<?xml version="1.0" encoding="utf-8"?>
<!-- Generator: Adobe Illustrator 16.0.3, SVG Export Plug-In . SVG Version: 6.00 Build 0)  -->
<!DOCTYPE svg PUBLIC "-//W3C//DTD SVG 1.1//EN" "http://www.w3.org/Graphics/SVG/1.1/DTD/svg11.dtd">
<svg version="1.1" xmlns="http://www.w3.org/2000/svg" xmlns:xlink="http://www.w3.org/1999/xlink" x="0px" y="0px" width="556px"
	 height="588px" viewBox="0 0 556 588" enable-background="new 0 0 556 588" xml:space="preserve">
<g id="Layer_5">
	<g>
		<path fill-rule="evenodd" clip-rule="evenodd" fill="#FFBA00" d="M45.734,246.039c0.634,0.02,0.965,0.461,1.292,0.918
			c1.593,2.228,3.633,3.972,6.002,5.304c0.895,0.503,1.903,0.847,2.9,1.112c1.41,0.372,2.805,0.866,4.307,0.804
			c0.511-0.021,0.759,0.383,0.593,0.88c-0.29,0.868-0.613,1.728-0.969,2.57c-0.084,0.198-0.326,0.393-0.537,0.46
			c-1.418,0.446-2.887,0.662-4.347,0.397c-1.686-0.307-3.344-0.798-4.805-1.741c-1.349-0.872-2.483-2.016-3.38-3.331
			c-1.209-1.772-2.137-3.704-2.599-5.827C44.561,246.925,45.089,246.425,45.734,246.039z"/>
		<path fill-rule="evenodd" clip-rule="evenodd" fill="#FFBA00" d="M166.448,551.203c-0.151,2.028-0.601,3.992-1.315,5.898
			c-1.281,3.423-3.151,6.505-5.365,9.394c-2.553,3.33-5.414,6.351-8.813,8.828c-2.449,1.784-5.056,3.251-8.042,3.938
			c-1.161,0.267-2.304,0.294-3.445-0.096c-1.629-0.555-2.699-1.644-3.189-3.292c-0.355-1.197-0.404-2.41-0.208-3.644
			c0.489-3.062,1.535-5.933,3.022-8.638c3.089-5.622,7.181-10.388,12.346-14.195c2.533-1.866,5.279-3.348,8.415-3.988
			c1.047-0.214,2.073-0.207,3.083,0.145c1.609,0.559,2.733,1.612,3.19,3.287C166.336,549.609,166.511,550.391,166.448,551.203z"/>
		<path fill-rule="evenodd" clip-rule="evenodd" fill="#FFBA00" d="M114.027,553.096c-0.5,0.027-0.627-0.203-0.78-0.379
			c-2.902-3.328-5.797-6.663-8.704-9.987c-0.413-0.473-0.711-0.953-0.737-1.621c-0.224-5.785,0.028-11.529,1.583-17.143
			c1.669-6.022,4.555-11.354,9.103-15.72c2.002-1.92,4.213-3.559,6.63-4.918c0.652-0.368,0.753-0.362,1.25,0.19
			c2.342,2.598,4.676,5.201,7,7.81c0.481,0.539,0.463,0.709-0.062,1.224c-0.658,0.643-1.338,1.261-1.997,1.904
			c-6.6,6.439-10.821,14.18-12.633,23.217c-0.972,4.841-1.092,9.737-0.728,14.649C113.971,552.563,113.998,552.803,114.027,553.096z
			"/>
		<path fill-rule="evenodd" clip-rule="evenodd" fill="#FFBA00" d="M133.994,574.015c-0.568-0.019-0.743-0.294-0.952-0.503
			c-2.382-2.389-4.747-4.799-7.148-7.17c-0.647-0.638-0.936-1.341-1.086-2.238c-0.761-4.503-0.955-9.025-0.709-13.573
			c0.348-6.419,2.055-12.441,5.446-17.935c2.413-3.907,5.498-7.21,9.198-9.932c0.71-0.525,0.806-0.528,1.402,0.069
			c2.339,2.349,4.661,4.71,6.986,7.072c0.124,0.126,0.19,0.309,0.274,0.45c-0.086,0.411-0.382,0.646-0.636,0.907
			c-4.786,4.874-7.963,10.692-10.017,17.158c-1.174,3.69-1.945,7.466-2.377,11.317c-0.397,3.54-0.629,7.086-0.57,10.648
			C133.827,571.511,133.928,572.731,133.994,574.015z"/>
		<path fill-rule="evenodd" clip-rule="evenodd" fill="#FFBA00" d="M111.229,490.458c-13.16,8.499-19.423,20.481-19.211,35.87
			c-0.322,0.167-0.48-0.037-0.625-0.225c-2.789-3.662-5.403-7.449-8.04-11.221c-0.368-0.526-0.549-1.068-0.457-1.72
			c0.9-6.399,2.303-12.664,5.052-18.559c1.939-4.159,4.457-7.9,7.953-10.932c1.774-1.537,3.698-2.834,5.841-3.797
			c0.789-0.354,0.863-0.349,1.39,0.319c2.014,2.554,4.01,5.123,6.018,7.681C109.792,488.689,110.451,489.491,111.229,490.458z"/>
		<path fill-rule="evenodd" clip-rule="evenodd" fill="#FFBA00" d="M430.069,109.519c1.279-1.261,2.766-2.226,4.307-3.092
			c3.132-1.762,6.505-2.824,10.052-3.393c3.236-0.517,6.483-0.358,9.732-0.296c1.124,0.021,1.939,0.438,2.67,1.323
			c3.915,4.727,7.732,9.525,11.273,14.542c0.271,0.384,0.656,0.717,0.659,1.289c-1.52-0.246-3.021-0.516-4.528-0.726
			c-3.42-0.476-6.843-0.425-10.271-0.044c-4.054,0.45-7.936,1.534-11.714,3.032c-0.928,0.37-0.972,0.375-1.566-0.353
			c-3.31-4.035-6.777-7.928-10.312-11.764C430.252,109.907,430.188,109.726,430.069,109.519z"/>
		<path fill-rule="evenodd" clip-rule="evenodd" fill="#FFBA00" d="M362.661,38.044c-0.204,0.624-0.836,0.673-1.301,0.905
			c-3.133,1.57-6.104,3.399-8.838,5.591c-3.57,2.864-6.618,6.191-8.81,10.247c-0.088,0.162-0.19,0.317-0.266,0.485
			c-0.208,0.457-0.515,0.641-1.025,0.471c-0.639-0.211-1.291-0.384-1.938-0.567c-4.479-1.269-9.017-2.28-13.57-3.23
			c-0.239-0.05-0.484-0.082-0.724-0.128c-0.429-0.08-0.65-0.334-0.572-0.771c0.076-0.42,0.179-0.836,0.296-1.246
			c1.654-5.778,5.098-10.259,9.967-13.69c2.013-1.415,4.177-2.552,6.446-3.504c0.774-0.325,1.514-0.446,2.318-0.232
			c6.037,1.605,12.016,3.39,17.88,5.552C362.573,37.944,362.608,37.998,362.661,38.044z"/>
		<path fill-rule="evenodd" clip-rule="evenodd" fill="#FFBA00" d="M481.476,243.331c8.708,0.579,15.512,4.654,20.216,12.25
			c0.342,0.552,0.48,1.096,0.397,1.739c-0.779,5.832-1.628,11.653-2.869,17.411c-0.05,0.238-0.095,0.48-0.174,0.71
			c-0.038,0.105-0.134,0.228-0.23,0.262c-0.203,0.074-0.308-0.085-0.395-0.246c-0.634-1.194-1.346-2.338-2.154-3.424
			c-1.898-2.543-4.312-4.518-6.934-6.255c-3.19-2.116-6.668-3.64-10.242-4.964c-2.22-0.825-1.825-0.317-1.609-2.52
			c0.272-2.807,0.646-5.602,0.935-8.407c0.195-1.892,0.308-3.79,0.479-5.683c0.068-0.733,0.208-0.848,0.896-0.871
			C480.281,243.319,480.772,243.331,481.476,243.331z"/>
		<path fill-rule="evenodd" clip-rule="evenodd" fill="#FFBA00" d="M448.818,132.347c2.287-1.463,4.774-2.463,7.399-3.125
			c5.433-1.372,10.819-1.043,16.152,0.549c0.998,0.297,1.97,0.68,2.96,1.006c0.74,0.241,1.232,0.709,1.606,1.398
			c1.782,3.288,3.628,6.542,5.399,9.836c0.986,1.835,1.878,3.721,2.799,5.591c0.127,0.259,0.333,0.513,0.231,0.863
			c-0.442,0.171-0.809-0.105-1.187-0.243c-5.24-1.924-10.651-2.833-16.229-2.704c-3.131,0.071-6.228,0.499-9.297,1.13
			c-0.927,0.19-0.955,0.186-1.444-0.645c-1.808-3.062-3.595-6.139-5.565-9.103c-0.781-1.174-1.568-2.344-2.35-3.519
			C449.095,133.081,448.845,132.8,448.818,132.347z"/>
		<path fill-rule="evenodd" clip-rule="evenodd" fill="#FFBA00" d="M489.049,307.352c-0.138-0.335-0.29-0.654-0.398-0.985
			c-1.034-3.145-2.768-5.866-4.976-8.303c-3.253-3.587-7.151-6.333-11.339-8.701c-1.991-1.126-1.863-0.625-1.183-2.887
			c1.251-4.167,2.469-8.343,3.416-12.593c0.107-0.478,0.238-0.952,0.375-1.422c0.095-0.332,0.32-0.529,0.678-0.454
			c0.777,0.166,1.561,0.324,2.325,0.538c4.077,1.139,7.754,3.015,10.903,5.888c2.966,2.707,4.996,6.017,6.484,9.705
			c0.3,0.743,0.201,1.414-0.023,2.141c-1.213,3.924-2.471,7.833-3.927,11.674c-0.562,1.492-1.145,2.975-1.717,4.462
			C489.538,306.754,489.438,307.117,489.049,307.352z"/>
		<path fill-rule="evenodd" clip-rule="evenodd" fill="#FFBA00" d="M502.947,242.917c-2.279-3.333-5.446-5.39-8.889-7.091
			c-4.031-1.988-8.276-3.385-12.608-4.54c-0.413-0.111-0.829-0.214-1.241-0.332c-0.907-0.258-0.922-0.267-0.964-1.26
			c-0.092-2.268-0.154-4.536-0.266-6.803c-0.111-2.265-0.271-4.529-0.405-6.793c-0.027-0.489-0.053-0.981-0.043-1.471
			c0.006-0.335,0.197-0.56,0.544-0.631c2.487-0.511,4.998-0.584,7.502-0.229c3.77,0.535,7.185,1.983,10.311,4.146
			c2.078,1.438,3.96,3.094,5.731,4.888c0.399,0.408,0.671,0.829,0.697,1.437c0.263,6.132,0.208,12.263-0.103,18.391
			C503.212,242.671,503.145,242.708,502.947,242.917z"/>
		<path fill-rule="evenodd" clip-rule="evenodd" fill="#FFBA00" d="M329.191,29.229c-0.608,0.444-1.197,0.869-1.782,1.299
			c-5.524,4.068-9.978,9.049-12.948,15.278c-0.475,0.996-0.865,2.028-1.305,3.04c-0.312,0.724-0.463,0.812-1.271,0.698
			c-3.704-0.524-7.424-0.872-11.158-1.076c-1.591-0.086-3.18-0.207-4.769-0.314c-0.814-0.057-0.943-0.181-0.893-1.021
			c0.136-2.219,0.666-4.359,1.412-6.441c2.237-6.226,6.459-10.75,12.095-14.06c0.61-0.358,1.207-0.441,1.922-0.377
			c5.802,0.521,11.549,1.44,17.288,2.407C328.25,28.744,328.738,28.771,329.191,29.229z"/>
		<path fill-rule="evenodd" clip-rule="evenodd" fill="#FFBA00" d="M267.249,48.523c-2.274,0.055-2.455,0.49-2.792-1.84
			c-0.75-5.187,0.594-9.841,3.382-14.161c1.644-2.547,3.74-4.698,5.966-6.733c0.525-0.48,1.1-0.746,1.819-0.743
			c0.92,0.001,1.84-0.053,2.76-0.053c4.726,0.002,9.45,0.012,14.176,0.026c0.487,0.001,0.98,0.031,1.463,0.104
			c0.154,0.024,0.287,0.277,0.151,0.44c-0.393,0.467-0.817,0.909-1.235,1.355c-4.656,4.97-7.965,10.704-9.797,17.273
			c-0.263,0.941-0.437,1.911-0.664,2.863c-0.153,0.649-0.314,0.779-1.026,0.808c-1.778,0.071-3.555,0.124-5.331,0.193
			C272.994,48.176,269.86,48.139,267.249,48.523z"/>
		<path fill-rule="evenodd" clip-rule="evenodd" fill="#FFBA00" d="M453.146,325.686c1.522,0.836,2.922,1.927,4.278,3.063
			c4.135,3.458,7.222,7.634,8.721,12.892c0.457,1.601,0.63,3.239,0.88,4.872c0.103,0.685-0.222,1.178-0.598,1.672
			c-1.634,2.143-3.23,4.318-4.913,6.424c-2.028,2.536-4.128,5.014-6.201,7.516c-0.148,0.179-0.271,0.423-0.668,0.402
			c-0.094-0.624-0.232-1.268-0.283-1.918c-0.215-2.787-1.074-5.391-2.214-7.918c-1.933-4.285-4.658-8.047-7.689-11.604
			c-1.551-1.819-1.515-1.195-0.091-3.117c2.698-3.647,5.288-7.366,7.781-11.156C452.41,326.42,452.565,325.92,453.146,325.686z"/>
		<path fill-rule="evenodd" clip-rule="evenodd" fill="#FFBA00" d="M79.661,156.31c0.309,0.537,0.503,0.843,0.669,1.165
			c3.66,7.048,8.996,12.473,15.862,16.433c0.673,0.388,1.479,0.606,1.948,1.309c-0.198,0.708-0.363,1.424-0.595,2.119
			c-1.436,4.301-2.597,8.677-3.621,13.091c-0.137,0.592-0.224,1.199-0.55,1.705c-0.152,0-0.286,0.037-0.392-0.004
			c-4.954-1.932-9.537-4.46-13.319-8.282c-2.677-2.705-4.641-5.833-5.797-9.469c-0.231-0.727-0.322-1.411-0.09-2.151
			c1.59-5.086,3.317-10.124,5.389-15.035C79.254,156.972,79.394,156.776,79.661,156.31z"/>
		<path fill-rule="evenodd" clip-rule="evenodd" fill="#FFBA00" d="M421.703,70.976c-2.314,0.473-4.605,0.882-6.85,1.502
			c-3.201,0.882-6.286,2.046-9.214,3.629c-2.444,1.322-4.678,2.918-6.638,4.892c-0.215,0.217-0.432,0.435-0.645,0.656
			c-0.289,0.297-0.589,0.414-0.963,0.126c-0.242-0.186-0.512-0.335-0.765-0.51c-4.233-2.938-8.587-5.683-13.081-8.205
			c-0.214-0.121-0.438-0.228-0.633-0.372c-0.286-0.211-0.345-0.478-0.113-0.776c0.411-0.535,0.797-1.091,1.235-1.601
			c1.645-1.918,3.503-3.592,5.596-5.021c4.479-3.055,9.478-4.821,14.705-6.039c0.68-0.158,1.288-0.088,1.918,0.319
			c5.149,3.333,10.15,6.875,14.994,10.64C421.438,70.36,421.658,70.493,421.703,70.976z"/>
		<path fill-rule="evenodd" clip-rule="evenodd" fill="#FFBA00" d="M435.216,349.143c0.279,0.143,0.47,0.193,0.596,0.312
			c3.938,3.719,7.057,7.971,8.635,13.235c0.874,2.915,1.116,5.887,0.919,8.907c-0.062,0.951-0.375,1.733-1.09,2.435
			c-4.113,4.039-8.343,7.951-12.684,11.744c-0.181,0.159-0.385,0.294-0.56,0.426c-0.455-0.143-0.319-0.49-0.319-0.766
			c0.001-0.613,0.026-1.227,0.04-1.837c0.164-7.593-2.212-14.333-6.812-20.328c-0.261-0.34-0.521-0.68-0.768-1.032
			c-0.062-0.094-0.067-0.227-0.127-0.439C427.193,357.71,431.31,353.519,435.216,349.143z"/>
		<path fill-rule="evenodd" clip-rule="evenodd" fill="#FFBA00" d="M114.859,100.781c0.117,0.611,0.271,1.243,0.355,1.883
			c0.977,7.343,4.073,13.686,9.025,19.152c0.452,0.5,0.939,0.97,1.393,1.468c0.481,0.527,0.481,0.635,0.019,1.261
			c-1.827,2.462-3.688,4.898-5.478,7.387c-1.215,1.691-2.333,3.452-3.494,5.184c-0.233,0.346-0.502,0.487-0.916,0.253
			c-5.791-3.312-10.257-7.729-12.066-14.387c-0.67-2.461-0.718-4.96-0.637-7.481c0.02-0.598,0.325-1.03,0.67-1.471
			c1.587-2.027,3.131-4.088,4.756-6.084c1.857-2.283,3.782-4.511,5.682-6.758C114.32,101.007,114.454,100.78,114.859,100.781z"/>
		<path fill-rule="evenodd" clip-rule="evenodd" fill="#FFBA00" d="M408.253,89.625c0.229-0.659,0.785-1.063,1.266-1.521
			c3.671-3.502,8.003-5.838,12.841-7.29c2.714-0.812,5.496-1.247,8.293-1.612c0.912-0.12,1.661,0.048,2.353,0.703
			c1.204,1.138,2.51,2.171,3.7,3.319c3.271,3.151,6.505,6.342,9.748,9.522c0.254,0.249,0.559,0.474,0.646,0.862
			c-0.158,0.387-0.503,0.253-0.778,0.254c-1.351,0.005-2.701-0.045-4.051-0.01c-7.166,0.186-13.787,2.09-19.674,6.29
			c-1.289,0.92-1.117,1.118-2.419-0.093c-3.464-3.217-7.043-6.301-10.724-9.268C409.028,90.438,408.539,90.153,408.253,89.625z"/>
		<path fill-rule="evenodd" clip-rule="evenodd" fill="#FFBA00" d="M466.506,299.587c0.198,0.031,0.329,0.021,0.428,0.07
			c4.899,2.439,9.198,5.629,12.447,10.093c2.008,2.756,3.394,5.802,4.098,9.158c0.151,0.724,0.058,1.307-0.273,1.922
			c-1.337,2.481-2.622,4.993-4,7.452c-1.409,2.509-2.908,4.972-4.37,7.454c-0.124,0.211-0.25,0.425-0.406,0.613
			c-0.062,0.076-0.202,0.105-0.312,0.122c-0.15,0.021-0.215-0.071-0.232-0.225c-0.227-2.026-0.793-3.96-1.586-5.83
			c-1.281-3.027-3.138-5.68-5.343-8.095c-2.03-2.225-4.254-4.242-6.668-6.042c-0.296-0.222-0.588-0.443-0.875-0.674
			c-0.269-0.216-0.352-0.478-0.175-0.8c0.147-0.268,0.278-0.545,0.421-0.816c2.212-4.24,4.274-8.549,6.14-12.953
			C466.013,300.533,466.276,300.054,466.506,299.587z"/>
		<path fill-rule="evenodd" clip-rule="evenodd" fill="#FFBA00" d="M71.948,285.016c0.468,0.031,0.757,0.388,1.112,0.612
			c3.69,2.32,7.708,3.707,12.023,4.289c4.098,0.554,8.191,0.521,12.291,0.072c0.976-0.105,1.026-0.094,1.415,0.989
			c1.346,3.75,2.736,7.48,4.318,11.139c0.438,1.012,0.91,2.01,1.346,3.023c0.25,0.586,0.171,0.763-0.432,0.955
			c-1.87,0.598-3.781,1.039-5.704,1.418c-2.359,0.464-4.75,0.56-7.144,0.45c-4.943-0.23-9.319-1.925-13.118-5.11
			c-0.682-0.571-1.142-1.242-1.437-2.08c-1.73-4.914-3.323-9.869-4.71-14.89C71.833,285.595,71.73,285.298,71.948,285.016z"/>
		<path fill-rule="evenodd" clip-rule="evenodd" fill="#FFBA00" d="M502.151,210.16c-0.29,0.108-0.439-0.144-0.612-0.287
			c-4.489-3.758-9.73-5.847-15.416-6.944c-2.47-0.475-4.96-0.794-7.48-0.824c-0.245-0.003-0.491-0.012-0.736-0.031
			c-0.939-0.076-1.014-0.125-1.196-1.04c-0.334-1.681-0.616-3.374-0.979-5.048c-0.686-3.172-1.411-6.335-2.12-9.5
			c-0.066-0.298-0.145-0.595-0.19-0.897c-0.042-0.274,0.11-0.461,0.35-0.572c0.109-0.049,0.234-0.077,0.354-0.092
			c4.959-0.651,9.893-0.762,14.764,0.651c3.991,1.158,7.365,3.278,10.135,6.372c0.541,0.602,0.924,1.243,1.049,2.088
			c0.377,2.544,0.893,5.067,1.257,7.612c0.373,2.606,0.63,5.229,0.936,7.847C502.291,209.719,502.396,209.965,502.151,210.16z"/>
		<path fill-rule="evenodd" clip-rule="evenodd" fill="#FFBA00" d="M371.419,66.623c-0.15-0.039-0.338-0.062-0.505-0.136
			c-0.393-0.17-0.777-0.365-1.164-0.55c-4.317-2.068-8.743-3.883-13.222-5.57c-0.345-0.13-0.688-0.258-1.031-0.395
			c-0.348-0.139-0.446-0.414-0.32-0.737c0.154-0.399,0.347-0.785,0.544-1.165c2.461-4.724,6.195-8.183,10.762-10.806
			c2.779-1.597,5.733-2.782,8.805-3.695c0.629-0.187,1.158-0.164,1.764,0.107c5.435,2.434,10.762,5.082,15.981,7.946
			c0.159,0.088,0.329,0.173,0.466,0.293c0.075,0.066,0.138,0.209,0.121,0.303c-0.017,0.096-0.117,0.225-0.209,0.255
			c-0.934,0.301-1.882,0.561-2.809,0.877c-4.142,1.413-8.093,3.202-11.665,5.774c-2.616,1.885-4.895,4.089-6.7,6.767
			C372.032,66.196,371.854,66.532,371.419,66.623z"/>
		<path fill-rule="evenodd" clip-rule="evenodd" fill="#FFBA00" d="M473.753,155.872c5.954,0.031,11.042,1.394,15.806,4.019
			c0.742,0.408,1.229,0.931,1.521,1.727c1.453,3.968,2.832,7.96,4.05,12.005c0.317,1.057,0.61,2.118,0.921,3.175
			c0.119,0.405,0.418,0.89,0.111,1.212c-0.376,0.393-0.759-0.124-1.113-0.273c-1.015-0.427-1.993-0.942-3.014-1.356
			c-5.116-2.075-10.455-3.011-15.96-3.054c-1.776-0.014-3.555,0.047-5.332,0.066c-1.032,0.01-1.041,0.007-1.438-1.02
			c-0.597-1.542-1.146-3.102-1.773-4.632c-1.113-2.719-2.271-5.42-3.415-8.128c-0.167-0.395-0.37-0.774-0.531-1.171
			c-0.256-0.632-0.145-0.887,0.535-1.078c1.946-0.551,3.922-0.982,5.929-1.217C471.445,155.984,472.857,155.936,473.753,155.872z"/>
		<path fill-rule="evenodd" clip-rule="evenodd" fill="#FFBA00" d="M99.973,344.797c1.307,0.172,2.625,0.375,3.953,0.509
			c6.753,0.69,13.345,0.187,19.593-2.738c0.722-0.336,1.423-0.715,2.134-1.075c0.826-0.419,0.875-0.433,1.388,0.207
			c3.294,4.121,6.753,8.098,10.345,11.963c0.204,0.22,0.458,0.417,0.489,0.777c-0.082,0.384-0.452,0.531-0.728,0.744
			c-5.232,4.089-11.172,6.027-17.803,5.73c-2.512-0.114-4.983-0.577-7.423-1.214c-0.825-0.216-1.41-0.649-1.932-1.289
			c-2.859-3.522-5.699-7.06-8.347-10.748c-0.501-0.698-1-1.396-1.5-2.093C99.998,345.369,99.876,345.162,99.973,344.797z"/>
		<path fill-rule="evenodd" clip-rule="evenodd" fill="#FFBA00" d="M262.801,25.781c-0.179,0.791-0.706,1.242-1.108,1.762
			c-2.032,2.63-3.734,5.451-5.029,8.523c-1.668,3.958-2.408,8.083-2.376,12.362c0,0.123,0.01,0.245,0.01,0.368
			c-0.008,0.953-0.103,1.062-0.983,1.197c-1.453,0.221-2.902,0.463-4.356,0.669c-3.761,0.539-7.482,1.287-11.189,2.106
			c-0.81,0.179-1.093,0.127-1.361-0.9c-1.972-7.531-0.557-14.319,4.384-20.344c0.737-0.9,1.573-1.718,2.356-2.58
			c0.561-0.618,1.239-0.921,2.078-1.041c4.004-0.561,7.994-1.21,12.023-1.566C259.074,26.173,260.895,25.971,262.801,25.781z"/>
		<path fill-rule="evenodd" clip-rule="evenodd" fill="#FFBA00" d="M373.183,422.37c-0.164-0.556,0.143-0.898,0.291-1.275
			c1.138-2.919,2.004-5.899,2.427-9.022c0.399-2.958,0.229-5.864-0.294-8.774c-0.361-1.996-1.01-3.91-1.735-5.799
			c-0.261-0.679-0.22-0.784,0.444-1.138c1.352-0.72,2.712-1.424,4.07-2.131c3.262-1.701,6.452-3.531,9.607-5.416
			c0.209-0.125,0.419-0.255,0.636-0.368c0.535-0.28,0.732-0.254,1.071,0.257c1.297,1.946,2.334,4.02,3.061,6.25
			c1.645,5.054,1.276,10.029-0.56,14.944c-0.383,1.031-0.896,2.014-1.3,3.039c-0.403,1.028-1.103,1.688-2.094,2.18
			c-4.173,2.067-8.33,4.163-12.618,5.986C375.195,421.524,374.248,422.074,373.183,422.37z"/>
		<path fill-rule="evenodd" clip-rule="evenodd" fill="#FFBA00" d="M180.312,75.569c-1.61-1.75-2.69-3.866-3.449-6.137
			c-0.882-2.641-1.182-5.353-0.924-8.152c0.342-3.71,1.389-7.2,2.87-10.591c0.34-0.776,0.842-1.304,1.588-1.689
			c5.119-2.645,10.331-5.092,15.667-7.272c0.223-0.09,0.466-0.171,0.701-0.183c0.165-0.007,0.372,0.106,0.282,0.347
			c-0.149,0.399-0.317,0.793-0.489,1.183c-1.098,2.469-1.982,5.005-2.536,7.659c-1.053,5.05-0.709,9.987,1.088,14.823
			c0.149,0.403,0.32,0.796,0.456,1.202c0.111,0.33-0.014,0.606-0.3,0.786c-0.26,0.162-0.539,0.294-0.812,0.432
			c-4.38,2.205-8.689,4.542-12.891,7.075C181.2,75.269,180.855,75.546,180.312,75.569z"/>
		<path fill-rule="evenodd" clip-rule="evenodd" fill="#FFBA00" d="M238.383,434.746c7.151-4.305,11.961-10.596,15.342-18.093
			c0.923-2.047,0.434-2.024,3.104-1.689c2.916,0.364,5.847,0.635,8.776,0.9c1.953,0.177,3.915,0.268,5.872,0.405
			c0.677,0.048,0.857,0.271,0.723,0.956c-0.975,4.922-2.584,9.581-5.705,13.606c-2.259,2.915-5.104,5.092-8.357,6.791
			c-0.887,0.465-1.769,0.439-2.683,0.326c-2.008-0.246-4.018-0.471-6.016-0.783c-3.691-0.577-7.375-1.211-11.06-1.823
			C238.125,435.141,238.129,434.942,238.383,434.746z"/>
		<path fill-rule="evenodd" clip-rule="evenodd" fill="#FFBA00" d="M340.31,432.995c0.093-0.5,0.454-0.851,0.718-1.253
			c2.57-3.921,4.044-8.221,4.592-12.874c0.39-3.308,0.445-6.605,0.053-9.91c-0.022-0.183-0.028-0.368-0.034-0.551
			c-0.01-0.342,0.139-0.583,0.471-0.697c0.348-0.119,0.694-0.245,1.043-0.362c4.595-1.531,9.187-3.073,13.671-4.911
			c0.284-0.117,0.579-0.202,0.866-0.308c0.28-0.105,0.481,0.019,0.609,0.243c0.116,0.21,0.188,0.449,0.269,0.679
			c1.351,3.799,2.076,7.704,1.766,11.742c-0.357,4.659-2.127,8.779-4.991,12.455c-0.408,0.523-0.937,0.744-1.531,0.928
			c-3.979,1.245-7.951,2.508-11.986,3.561c-1.602,0.418-3.205,0.828-4.808,1.243C340.783,433.04,340.555,433.153,340.31,432.995z"/>
		<path fill-rule="evenodd" clip-rule="evenodd" fill="#FFBA00" d="M66.354,255.006c0.65,0.076,1.086,0.438,1.551,0.705
			c4.725,2.715,9.748,4.6,15.116,5.566c2.058,0.371,4.123,0.616,6.213,0.67c0.429,0.011,0.86,0.018,1.289,0.043
			c0.974,0.058,1.024,0.099,1.197,1.022c0.337,1.808,0.626,3.625,1.009,5.423c0.651,3.057,1.361,6.101,2.048,9.151
			c0.069,0.299,0.167,0.59,0.223,0.892c0.084,0.464-0.061,0.659-0.574,0.728c-3.604,0.483-7.208,0.549-10.828,0.118
			c-2.209-0.263-4.344-0.774-6.404-1.594c-3.271-1.301-5.986-3.325-8.081-6.178c-0.453-0.615-0.753-1.268-0.875-1.998
			c-0.42-2.541-0.827-5.083-1.21-7.629c-0.238-1.576-0.436-3.158-0.629-4.741C66.313,256.481,66.17,255.767,66.354,255.006z"/>
		<path fill-rule="evenodd" clip-rule="evenodd" fill="#FFBA00" d="M94.924,127.167c0.927,4.44,2.674,8.439,5.361,12.018
			c2.679,3.569,6.009,6.438,9.637,8.857c-0.085,0.728-0.424,1.18-0.685,1.656c-2.181,3.985-4.122,8.087-5.916,12.26
			c-0.193,0.45-0.393,0.899-0.599,1.345c-0.191,0.414-0.482,0.466-0.896,0.288c-8.119-3.501-13.619-9.247-15.515-18.085
			c-0.587-2.733-0.595-2.733,0.711-5.225c2.166-4.131,4.458-8.192,6.982-12.115C94.227,127.82,94.375,127.389,94.924,127.167z"/>
		<path fill-rule="evenodd" clip-rule="evenodd" fill="#FFBA00" d="M138.132,77.729c0.129,0.114,0.28,0.184,0.285,0.262
			c0.034,0.611,0.048,1.224,0.052,1.837c0.023,4.018,0.609,7.94,1.917,11.748c1.104,3.217,2.657,6.196,4.771,8.87
			c0.267,0.337,0.519,0.687,0.797,1.013c0.239,0.284,0.228,0.548-0.007,0.813c-0.12,0.135-0.261,0.257-0.396,0.383
			c-3.557,3.301-6.924,6.785-10.179,10.382c-0.206,0.23-0.409,0.46-0.625,0.676c-0.453,0.453-0.622,0.486-1.091,0.112
			c-0.719-0.572-1.446-1.144-2.111-1.778c-3.912-3.726-6.241-8.271-7.104-13.606c-0.375-2.321-0.359-4.641-0.333-6.975
			c0.007-0.59,0.209-1.044,0.629-1.462c4.128-4.12,8.368-8.119,12.813-11.898C137.728,77.954,137.946,77.848,138.132,77.729z"/>
		<path fill-rule="evenodd" clip-rule="evenodd" fill="#FFBA00" d="M224.179,56.138c-0.325,0.161-0.48,0.27-0.654,0.319
			c-5.361,1.542-10.558,3.562-15.792,5.469c-0.044,0.017-0.109-0.023-0.263-0.061c-1.168-2.104-1.903-4.417-2.295-6.851
			c-0.748-4.647,0.162-9.013,2.195-13.197c0.808-1.66,1.784-3.214,2.861-4.71c0.36-0.5,0.753-0.917,1.391-1.129
			c5.588-1.84,11.246-3.427,16.976-4.757c0.168-0.039,0.354,0.011,0.572,0.021c0.063,0.649-0.413,1.013-0.679,1.452
			c-1.885,3.11-3.394,6.381-4.297,9.914c-1,3.921-1.183,7.863-0.31,11.833C224.002,54.973,224.07,55.513,224.179,56.138z"/>
		<path fill-rule="evenodd" clip-rule="evenodd" fill="#FFBA00" d="M399.732,381.171c1.966-1.479,3.849-2.846,5.677-4.279
			c2.46-1.925,4.88-3.902,7.315-5.857c0.239-0.193,0.474-0.393,0.717-0.577c0.226-0.17,0.453-0.14,0.656,0.046
			c0.091,0.082,0.171,0.175,0.248,0.269c2.919,3.494,4.979,7.419,5.879,11.9c0.659,3.28,0.641,6.573,0.006,9.862
			c-0.585,3.038-0.587,3.031-3.063,4.83c-3.818,2.772-7.69,5.467-11.652,8.03c-0.498,0.321-0.93,0.813-1.728,0.827
			c0.154-2.15,0.772-4.21,0.793-6.342c0.024-2.205,0.084-4.408-0.258-6.599c-0.328-2.127-0.879-4.192-1.635-6.204
			C401.93,385.067,400.884,383.2,399.732,381.171z"/>
		<path fill-rule="evenodd" clip-rule="evenodd" fill="#FFBA00" d="M169.387,82.908c-1.906,1.414-3.745,2.736-5.533,4.121
			c-2.277,1.762-4.514,3.577-6.767,5.371c-0.192,0.153-0.368,0.326-0.563,0.475c-0.491,0.37-0.68,0.386-1.132,0.004
			c-1.037-0.871-1.969-1.844-2.771-2.936c-1.892-2.575-2.911-5.497-3.438-8.621c-0.693-4.111-0.241-8.182,0.387-12.252
			c0.106-0.689,0.546-1.063,1.047-1.426c2.285-1.651,4.538-3.349,6.868-4.934c2.581-1.759,5.232-3.416,7.856-5.112
			c0.254-0.164,0.529-0.293,0.894-0.49c0.196,0.636-0.1,1.125-0.238,1.594c-0.794,2.728-1.176,5.531-1.183,8.345
			c-0.009,4.59,0.958,9,3.094,13.106C168.36,81.02,168.832,81.875,169.387,82.908z"/>
		<path fill-rule="evenodd" clip-rule="evenodd" fill="#FFBA00" d="M146.231,393.159c0.489-0.189,1.035-0.093,1.553-0.167
			c0.483-0.071,0.967-0.159,1.451-0.223c3.746-0.51,7.243-1.776,10.585-3.507c3.282-1.702,6.251-3.864,9.088-6.218
			c0.283-0.234,0.557-0.48,0.843-0.712c0.211-0.171,0.446-0.176,0.678-0.038c0.263,0.155,0.523,0.314,0.775,0.489
			c4.14,2.852,8.377,5.553,12.728,8.073c0.264,0.154,0.525,0.312,0.771,0.496c0.235,0.177,0.217,0.419,0.062,0.642
			c-0.138,0.201-0.293,0.394-0.454,0.576c-3,3.358-6.312,6.346-10.252,8.577c-3.293,1.863-6.812,3.018-10.603,3.347
			c-1.22,0.105-2.237-0.164-3.265-0.866c-4.513-3.066-8.952-6.236-13.248-9.599C146.673,393.816,146.256,393.712,146.231,393.159z"
			/>
		<path fill-rule="evenodd" clip-rule="evenodd" fill="#FFBA00" d="M212.076,404.212c-0.014,0.247,0.019,0.386-0.032,0.483
			c-2.458,4.841-5.693,9.019-10.37,11.924c-3.344,2.076-7.012,3.173-10.932,3.472c-0.662,0.053-1.192-0.188-1.75-0.446
			c-3.793-1.731-7.523-3.591-11.198-5.562c-0.271-0.144-0.559-0.265-0.807-0.442c-0.91-0.656-2.147-0.795-2.837-1.799
			c0.951-0.601,2.077-0.638,3.116-0.953c5.959-1.803,10.998-5.054,15.216-9.601c0.918-0.99,1.771-2.035,2.638-3.07
			c0.794-0.953,0.792-0.977,1.979-0.42c3.718,1.748,7.465,3.423,11.287,4.933C209.632,403.223,210.872,403.729,212.076,404.212z"/>
		<path fill-rule="evenodd" clip-rule="evenodd" fill="#FFBA00" d="M241.851,412.667c-0.037,0.246-0.035,0.431-0.095,0.593
			c-1.573,4.233-3.682,8.147-6.818,11.447c-3.255,3.421-7.195,5.656-11.776,6.784c-0.493,0.121-0.931,0.158-1.431,0.019
			c-5.484-1.535-10.934-3.184-16.291-5.123c-0.275-0.1-0.542-0.225-0.816-0.337c0.238-0.528,0.71-0.517,1.106-0.65
			c3.588-1.185,6.854-2.944,9.733-5.412c2.537-2.176,4.618-4.729,6.361-7.568c0.639-1.044,1.227-2.12,1.838-3.183
			c0.498-0.869,0.62-0.943,1.617-0.681c1.954,0.513,3.902,1.048,5.848,1.587c2.951,0.813,5.947,1.442,8.939,2.078
			C240.66,412.347,241.245,412.515,241.851,412.667z"/>
		<path fill-rule="evenodd" clip-rule="evenodd" fill="#FFBA00" d="M160.069,374.863c-4.469,4.308-9.512,7.659-15.715,8.973
			c-2.769,0.583-5.56,0.914-8.396,0.455c-0.559-0.092-1.046-0.216-1.486-0.613c-4.413-3.99-8.787-8.018-12.849-12.372
			c-0.115-0.125-0.177-0.299-0.267-0.455c0.294-0.399,0.675-0.211,0.995-0.186c8.363,0.644,16.048-1.279,22.994-6.034
			c2.065-1.413,1.434-1.614,3.411,0.207c3.291,3.034,6.673,5.965,10.156,8.779C159.335,373.957,159.854,374.214,160.069,374.863z"/>
		<path fill-rule="evenodd" clip-rule="evenodd" fill="#FFBA00" d="M282.385,439.395c-2.697,0-5.396,0.001-8.096-0.003
			c-0.306,0-0.612-0.023-0.914-0.068c-0.099-0.016-0.225-0.116-0.262-0.207c-0.037-0.09-0.012-0.251,0.052-0.325
			c0.157-0.187,0.343-0.35,0.529-0.509c5.129-4.334,8.34-9.891,10.295-16.23c0.469-1.521,0.801-3.083,1.202-4.624
			c0.173-0.659,0.312-0.761,1.021-0.811c0.121-0.009,0.246-0.005,0.367-0.01c3.738-0.125,7.477-0.238,11.213-0.387
			c1.469-0.06,2.934-0.223,4.402-0.301c0.712-0.039,0.901,0.136,0.897,0.832c-0.032,8.807-2.733,16.373-10.102,21.789
			c-0.884,0.65-1.773,0.972-2.881,0.945c-2.572-0.061-5.149-0.02-7.726-0.02C282.385,439.442,282.385,439.418,282.385,439.395z"/>
		<path fill-rule="evenodd" clip-rule="evenodd" fill="#FFBA00" d="M307.443,438.352c0.161-0.321,0.19-0.447,0.269-0.526
			c3.606-3.634,5.635-8.102,6.885-12.987c0.792-3.099,1.106-6.264,1.438-9.429c0.099-0.951,0.097-0.981,1.062-1.16
			c1.625-0.302,3.255-0.569,4.887-0.833c3.626-0.583,7.217-1.344,10.8-2.152c0.691-0.156,0.884-0.022,0.937,0.703
			c0.313,4.289,0.429,8.567-0.67,12.783c-1.116,4.282-3.279,7.883-6.767,10.663c-0.694,0.555-1.429,0.929-2.304,1.043
			c-4.189,0.537-8.353,1.261-12.566,1.613C310.139,438.178,308.882,438.467,307.443,438.352z"/>
		<path fill-rule="evenodd" clip-rule="evenodd" fill="#FFBA00" d="M104.362,334.887c-4.031,0.093-7.826-0.828-11.576-2.041
			c-0.803-0.26-1.372-0.687-1.779-1.447c-1.648-3.078-3.365-6.121-5.009-9.202c-0.866-1.619-1.64-3.289-2.446-4.94
			c-0.131-0.271-0.24-0.561-0.305-0.854c-0.042-0.194,0.103-0.365,0.313-0.306c0.351,0.098,0.691,0.239,1.029,0.381
			c4.945,2.113,10.109,2.896,15.454,2.442c2.879-0.244,5.686-0.905,8.417-1.833c1.926-0.655,1.737-0.47,2.544,0.954
			c2.299,4.054,4.723,8.03,7.357,11.876c0.172,0.253,0.355,0.501,0.505,0.767c0.182,0.324,0.066,0.589-0.236,0.765
			c-0.265,0.154-0.541,0.29-0.817,0.417C113.528,333.843,109.068,335.037,104.362,334.887z"/>
		<path fill-rule="evenodd" clip-rule="evenodd" fill="#FFBA00" d="M46.972,529.669c3.772-0.09,7.446,0.439,10.957,1.888
			c1.425,0.588,2.742,1.362,3.979,2.274c0.845,0.625,1.541,1.383,2.151,2.244c1.106,1.562,1.006,4.011-0.106,5.533
			c-0.667,0.915-1.509,1.599-2.457,2.178c-2.178,1.332-4.575,2.06-7.067,2.472c-4.56,0.751-9.038,0.287-13.436-1.047
			c-1.887-0.572-3.644-1.431-5.272-2.548c-0.765-0.526-1.439-1.143-2.062-1.825c-1.917-2.094-1.88-5.363,0.385-7.406
			c1.06-0.958,2.276-1.662,3.591-2.187c2.229-0.894,4.522-1.542,6.949-1.574C45.378,529.66,46.175,529.669,46.972,529.669z"/>
		<path fill-rule="evenodd" clip-rule="evenodd" fill="#FFBA00" d="M34.351,415.849c-0.425-1.534-0.859-2.923-1.19-4.334
			c-0.976-4.171-1.914-8.354-2.864-12.531c-0.194-0.851-0.217-1.65,0.206-2.493c2.018-4.027,4.434-7.766,7.676-10.929
			c3.375-3.292,7.319-5.497,12.009-6.316c1.159-0.204,2.312-0.234,3.474-0.259c0.501-0.011,0.737,0.247,0.889,0.729
			c0.931,2.98,1.901,5.948,2.845,8.924c0.206,0.647,0.111,0.829-0.528,1.154c-1.092,0.554-2.208,1.062-3.288,1.642
			c-5.248,2.816-9.868,6.385-13.412,11.239c-2.49,3.411-4.21,7.171-5.184,11.275C34.842,414.542,34.757,415.147,34.351,415.849z"/>
		<path fill-rule="evenodd" clip-rule="evenodd" fill="#FFBA00" d="M56.771,446.264c0.349-1.751,0.701-3.544,1.066-5.335
			c0.489-2.398,0.989-4.798,1.488-7.196c0.05-0.24,0.12-0.476,0.182-0.712c0.264-0.99,0.361-1.112,1.341-1.153
			c2.919-0.124,5.736,0.352,8.428,1.529c3.34,1.458,5.991,3.796,8.306,6.543c1.747,2.068,3.173,4.359,4.463,6.737
			c0.266,0.492,0.438,0.977,0.34,1.572c-0.717,4.351-1.408,8.706-2.109,13.06c-0.018,0.121-0.046,0.24-0.085,0.356
			c-0.015,0.044-0.076,0.105-0.112,0.102c-0.113-0.005-0.276-0.001-0.324-0.07c-0.287-0.395-0.552-0.806-0.814-1.217
			c-1.892-2.954-3.982-5.744-6.568-8.138c-2.696-2.497-5.738-4.383-9.333-5.3c-1.553-0.396-3.125-0.599-4.732-0.554
			C57.829,446.502,57.325,446.603,56.771,446.264z"/>
		<path fill-rule="evenodd" clip-rule="evenodd" fill="#FFBA00" d="M27.317,381.835c-0.667-4.169-1.216-8.115-1.621-12.08
			c-0.13-1.282-0.264-2.562-0.407-3.842c-0.064-0.566,0.036-1.086,0.281-1.602c1.898-3.992,4.356-7.548,7.968-10.191
			c2.998-2.192,6.341-3.453,10.084-3.524c1.286-0.026,2.577,0,3.863,0.05c1.001,0.039,1.031,0.068,1.192,1.009
			c0.35,2.056,0.654,4.118,0.993,6.174c0.219,1.33,0.472,2.655,0.698,3.983c0.062,0.362,0.103,0.73,0.112,1.098
			c0.006,0.264-0.161,0.482-0.422,0.524c-0.423,0.065-0.854,0.076-1.282,0.115c-5.146,0.495-9.796,2.193-13.679,5.703
			c-3.164,2.859-5.307,6.398-6.796,10.364C28.05,380.29,27.955,381.041,27.317,381.835z"/>
		<path fill-rule="evenodd" clip-rule="evenodd" fill="#FFBA00" d="M61.578,400.421c-0.254,1.943-0.519,3.885-0.752,5.832
			c-0.063,0.525-0.294,0.906-0.678,1.248c-4.895,4.372-7.861,9.96-10.111,16.005c-1.675,4.495-2.771,9.14-3.65,13.844
			c-0.528,2.83-0.944,5.679-1.181,8.552c-0.007,0.087-0.113,0.222-0.188,0.232c-0.098,0.019-0.264-0.039-0.308-0.117
			c-0.177-0.319-0.333-0.655-0.473-0.992c-2.049-4.925-3.943-9.904-5.642-14.961c-0.331-0.989-0.319-1.863-0.015-2.849
			c3.662-11.89,10.606-21.305,21.089-28.058c0.437-0.283,0.881-0.894,1.431-0.6c0.616,0.33,0.461,1.063,0.434,1.672
			c-0.003,0.062-0.009,0.124-0.013,0.185C61.541,400.416,61.559,400.418,61.578,400.421z"/>
		<path fill-rule="evenodd" clip-rule="evenodd" fill="#FFBA00" d="M69.344,517.001c-1.214-6.024-4.18-11.03-8.219-15.457
			c-2.154-2.359-4.441-4.577-7.092-6.388c-2.35-1.605-4.85-2.86-7.665-3.429c-0.774-0.154-0.914-0.384-0.687-1.171
			c0.813-2.824,1.646-5.646,2.49-8.461c0.248-0.828,0.358-0.87,1.162-0.798c2.732,0.242,5.288,1.098,7.658,2.422
			c7.315,4.09,12.47,9.993,14.989,18.081c0.374,1.197,0.483,2.338,0.203,3.583c-0.82,3.646-1.545,7.309-2.315,10.966
			C69.82,516.584,69.751,516.83,69.344,517.001z"/>
		<path fill-rule="evenodd" clip-rule="evenodd" fill="#FFBA00" d="M23.945,348.295c-0.394-0.165-0.323-0.505-0.341-0.792
			c-0.119-1.833-0.262-3.666-0.326-5.501c-0.03-0.917,0.104-1.833,0.145-2.75c0.073-1.716,0.145-3.432,0.193-5.146
			c0.043-1.446,0.464-2.727,1.3-3.938c1.542-2.228,3.187-4.337,5.345-6.021c3.738-2.917,7.956-3.783,12.477-2.637
			c4.559,1.154,3.619,0.443,3.885,4.736c0.167,2.69,0.062,5.393,0.418,8.074c0.048,0.363,0.039,0.734,0.036,1.102
			c-0.003,0.392-0.221,0.561-0.573,0.463c-0.119-0.034-0.235-0.071-0.347-0.115c-5.439-2.191-10.191-0.885-14.451,2.856
			c-2.695,2.367-4.844,5.186-6.726,8.224C24.669,347.354,24.49,347.968,23.945,348.295z"/>
		<path fill-rule="evenodd" clip-rule="evenodd" fill="#FFBA00" d="M84.063,432.497c-0.275-0.666-0.556-1.332-0.829-2
			c-1.408-3.424-3.161-6.641-5.611-9.449c-3.574-4.092-8.035-6.557-13.412-7.354c-0.243-0.036-0.487-0.059-0.729-0.096
			c-0.277-0.041-0.436-0.225-0.458-0.489c-0.021-0.241-0.007-0.489,0.021-0.73c0.356-3.107,0.719-6.211,1.072-9.316
			c0.249-2.211,0.451-2.425,2.654-2.604c1.932-0.159,3.778,0.197,5.56,0.96c1.827,0.782,3.44,1.893,4.916,3.197
			c3.341,2.961,5.915,6.54,8.271,10.295c0.314,0.503,0.38,1.019,0.333,1.581c-0.184,2.141-0.345,4.282-0.54,6.417
			c-0.19,2.074-0.406,4.148-0.62,6.223c-0.112,1.096-0.245,2.189-0.368,3.284C84.235,432.44,84.149,432.47,84.063,432.497z"/>
		<path fill-rule="evenodd" clip-rule="evenodd" fill="#FFBA00" d="M74.642,492.424c-0.923-2.067-1.68-3.874-2.531-5.636
			c-1.392-2.886-3.14-5.546-5.281-7.941c-3.871-4.332-8.627-7.21-14.218-8.734c-0.354-0.098-0.717-0.167-1.06-0.294
			c-0.235-0.085-0.408-0.28-0.362-0.565c0.039-0.241,0.097-0.478,0.16-0.714c0.651-2.426,1.36-4.84,1.94-7.284
			c0.287-1.208,0.516-1.225,1.645-1.168c3.804,0.192,7.362,1.207,10.619,3.217c2.599,1.604,4.708,3.721,6.466,6.2
			c2.188,3.082,3.645,6.516,4.793,10.096c0.155,0.487,0.162,0.959,0.071,1.449c-0.627,3.375-1.247,6.749-1.879,10.121
			C74.936,491.528,74.804,491.873,74.642,492.424z"/>
		<path fill-rule="evenodd" clip-rule="evenodd" fill="#FFBA00" d="M62.836,228.465c-1.167-0.064-2.112-0.519-3.078-0.868
			c-3.663-1.326-6.997-3.232-10.027-5.685c-0.703-0.567-1.133-1.228-1.354-2.102c-1.138-4.496-0.192-8.499,2.829-12.001
			c2.366-2.743,5.361-4.638,8.579-6.211c0.615-0.301,0.774-0.271,1.28,0.279c1.991,2.167,3.964,4.351,5.949,6.525
			c0.301,0.328,0.267,0.625,0.015,0.974c-0.535,0.747-1.069,1.498-1.552,2.28c-2.345,3.814-3.461,7.958-3.197,12.437
			C62.361,225.488,62.628,226.875,62.836,228.465z"/>
		<path fill-rule="evenodd" clip-rule="evenodd" fill="#FFBA00" d="M65.362,535.156c-0.425-1.008-0.935-2.03-1.599-2.964
			c-2.538-3.563-5.415-6.798-8.903-9.476c-3.022-2.32-6.272-4.286-9.458-6.354c-1.542-1.001-3.083-2.003-4.609-3.03
			c-0.719-0.483-0.744-0.569-0.506-1.355c0.759-2.52,1.524-5.04,2.31-7.552c0.25-0.803,0.349-0.869,1.174-0.825
			c1.856,0.094,3.625,0.561,5.318,1.318c1.975,0.884,3.742,2.084,5.358,3.517c3.057,2.708,5.496,5.926,7.636,9.377
			c1.779,2.865,3.309,5.868,4.749,8.916c0.321,0.682,0.459,1.316,0.259,2.107c-0.495,1.957-0.847,3.95-1.263,5.925
			C65.79,534.937,65.716,535.112,65.362,535.156z"/>
		<path fill-rule="evenodd" clip-rule="evenodd" fill="#FFBA00" d="M78.983,234.262c1.47-0.011,2.954,0.046,4.391-0.333
			c1.074-0.285,1.684,0.138,2.218,1.062c1.548,2.672,2.869,5.424,3.367,8.502c0.703,4.341-0.534,8.12-3.386,11.416
			c-0.388,0.447-0.845,0.643-1.433,0.702c-1.585,0.161-3.167,0.359-4.743,0.586c-0.549,0.079-0.946-0.086-1.322-0.454
			c-1.063-1.041-1.921-2.236-2.59-3.556c-1.7-3.347-2.6-6.871-2.214-10.656c0.239-2.354,1.033-4.53,2.135-6.606
			c0.261-0.494,0.624-0.697,1.184-0.673C77.387,234.288,78.185,234.262,78.983,234.262z"/>
		<path fill-rule="evenodd" clip-rule="evenodd" fill="#FFBA00" d="M86.641,399.146c-0.338-0.57-0.673-1.142-1.016-1.708
			c-1.628-2.691-3.48-5.19-5.949-7.193c-3.708-3.01-7.863-3.802-12.443-2.628c-0.473,0.12-0.939,0.261-1.36,0.377
			c-0.505-0.28-0.303-0.691-0.275-1.013c0.245-2.812,0.514-5.616,0.783-8.422c0.028-0.307,0.11-0.605,0.145-0.911
			c0.049-0.457,0.264-0.794,0.658-1.04c2.733-1.707,5.612-2.747,8.897-2.001c1.584,0.358,2.976,1.108,4.273,2.06
			c1.6,1.175,2.92,2.63,4.071,4.224c0.967,1.342,1.826,2.76,2.722,4.15c0.338,0.524,0.503,1.092,0.473,1.737
			c-0.177,3.675-0.324,7.354-0.494,11.028c-0.019,0.423-0.113,0.842-0.172,1.263C86.85,399.095,86.747,399.118,86.641,399.146z"/>
		<path fill-rule="evenodd" clip-rule="evenodd" fill="#FFBA00" d="M75.582,211.433c1.476-0.184,2.935-0.334,4.382-0.556
			c2.301-0.354,4.579-0.829,6.828-1.438c0.757-0.206,0.895-0.17,1.209,0.401c1.2,2.174,1.911,4.434,1.909,6.993
			c-0.003,4.646-1.822,8.561-4.374,12.259c-0.375,0.543-0.854,0.859-1.481,0.978c-3.094,0.58-6.21,0.686-9.34,0.405
			c-0.614-0.054-0.753-0.315-0.459-0.852c0.822-1.51,1.553-3.053,2.107-4.687c1.315-3.874,1.168-7.708-0.208-11.526
			c-0.185-0.518-0.397-1.028-0.59-1.543C75.544,211.814,75.567,211.745,75.582,211.433z"/>
		<path fill-rule="evenodd" clip-rule="evenodd" fill="#FFBA00" d="M95.621,252.12c0.035-0.481,0.369-0.847,0.594-1.251
			c1.606-2.895,3.112-5.84,4.164-8.991c0.701-2.096,1.236-4.225,1.3-6.459c0.064-2.264-0.354-4.382-1.605-6.307
			c-0.358-0.55-0.31-0.682,0.186-1.052c0.983-0.73,1.994-1.426,2.949-2.189c1.392-1.113,2.619-2.4,3.785-3.747
			c0.312-0.363,0.552-0.827,1.146-0.984c2.249,1.65,4.028,3.673,4.715,6.509c0.441,1.836,0.276,3.652-0.172,5.455
			c-0.296,1.192-0.693,2.354-1.293,3.43c-3.445,6.16-8.012,11.269-14.089,14.948c-0.466,0.283-0.972,0.497-1.464,0.735
			C95.805,252.231,95.737,252.174,95.621,252.12z"/>
		<path fill-rule="evenodd" clip-rule="evenodd" fill="#FFBA00" d="M46.538,310.767c-5.869-4.89-11.225-6.351-19.945-2.363
			c-0.352-0.572-0.135-1.181-0.045-1.733c0.373-2.296,0.802-4.584,1.214-6.877c0.032-0.18,0.095-0.355,0.128-0.536
			c0.505-2.699,0.201-2.113,2.559-3.349c1.357-0.708,2.824-1.167,4.352-1.426c2.832-0.484,5.49-0.048,7.963,1.426
			c0.897,0.535,1.771,1.112,2.513,1.85c2.694,2.684,2.338,1.944,1.964,5.202c-0.237,2.071-0.305,4.157-0.464,6.236
			C46.74,309.669,46.864,310.166,46.538,310.767z"/>
		<path fill-rule="evenodd" clip-rule="evenodd" fill="#FFBA00" d="M64.667,233.312c-0.017,0.672-0.41,1.096-0.651,1.58
			c-0.987,1.98-1.819,4.006-2.249,6.197c-0.567,2.915-0.388,5.731,0.845,8.453c0.126,0.28,0.27,0.551,0.386,0.834
			c0.126,0.317-0.027,0.609-0.39,0.678c-3.087,0.594-5.988,0.291-8.489-1.838c-1.273-1.086-2.295-2.38-3.104-3.843
			c-0.177-0.32-0.348-0.662-0.43-1.013c-0.466-2.035-0.859-4.091-0.773-6.186c0.091-2.213,0.433-4.396,1.386-6.429
			c0.364-0.774,0.779-1.53,1.237-2.253c0.609-0.962,0.734-0.984,1.733-0.347c2.717,1.734,5.673,2.883,8.782,3.673
			C63.529,232.962,64.097,233.146,64.667,233.312z"/>
		<path fill-rule="evenodd" clip-rule="evenodd" fill="#FFBA00" d="M65.196,193.337c0,1.594-0.103,3.177-0.493,4.742
			c-0.346,0.223-0.525-0.077-0.743-0.258c-0.661-0.546-1.292-1.132-1.988-1.629c-3.057-2.186-6.384-2.638-9.949-1.485
			c-1.764,0.572-3.37,1.452-4.899,2.487c-2.089,1.416-3.941,3.106-5.694,4.917c-0.37,0.379-0.632,0.917-1.247,1.013
			c-0.37-0.618-0.349-1.301-0.384-1.971c-0.094-1.904,0.002-3.795,0.324-5.678c0.147-0.86,0.468-1.644,0.896-2.394
			c1.654-2.894,4.091-4.856,7.208-5.958c2.327-0.825,4.743-1.268,7.216-1.144c2.501,0.126,4.807,0.917,6.812,2.449
			c1.298,0.994,2.233,2.258,2.616,3.884c0.054,0.229,0.188,0.441,0.285,0.662c0.108,0.069,0.149,0.147,0.125,0.232
			C65.256,193.292,65.229,193.337,65.196,193.337z"/>
		<path fill-rule="evenodd" clip-rule="evenodd" fill="#FFBA00" d="M67.931,361.615c-0.289-0.733-0.126-1.41-0.093-2.073
			c0.099-1.9,0.23-3.798,0.356-5.695c0.032-0.49,0.101-0.976,0.144-1.465c0.045-0.533,0.262-0.896,0.804-1.099
			c2.443-0.913,4.919-1.437,7.561-1.102c2.462,0.315,4.58,1.326,6.47,2.865c1.63,1.33,2.968,2.926,4.148,4.663
			c0.354,0.521,0.588,1.05,0.583,1.702c-0.017,3.125-0.007,6.25-0.007,9.376c-0.391,0.223-0.551-0.087-0.72-0.319
			c-0.867-1.195-1.813-2.32-2.867-3.358c-2.691-2.648-5.916-4.112-9.679-4.375c-1.604-0.114-3.183,0.124-4.749,0.452
			C69.231,361.321,68.583,361.471,67.931,361.615z"/>
		<path fill-rule="evenodd" clip-rule="evenodd" fill="#FFBA00" d="M87.107,343.934c-0.528-0.164-0.939-0.628-1.395-0.994
			c-1.534-1.235-3.152-2.334-4.95-3.145c-2.642-1.189-5.376-1.673-8.228-0.904c-0.82,0.222-1.601,0.595-2.397,0.91
			c-0.332,0.131-0.605,0.422-1.017,0.367c-0.343-0.268-0.207-0.652-0.194-0.987c0.115-3.06,0.239-6.121,0.376-9.181
			c0.051-1.13,0.076-1.146,1.221-1.496c3.2-0.981,6.394-1.1,9.531,0.209c2.663,1.113,4.764,2.967,6.537,5.215
			c0.241,0.304,0.356,0.628,0.392,1.005c0.27,2.929,0.392,5.862,0.336,8.803C87.318,343.774,87.245,343.809,87.107,343.934z"/>
		<path fill-rule="evenodd" clip-rule="evenodd" fill="#FFBA00" d="M65.541,193.337c1.051,0.664,1.787,1.667,2.679,2.501
			c1.675,1.566,3.584,2.742,5.727,3.544c0.572,0.216,1.158,0.395,1.738,0.59c1.518,0.513,3.06,0.85,4.68,0.742
			c0.672-0.044,1.351-0.032,2.025-0.001c3.494,0.165,6.79-0.644,9.983-1.991c0.999-0.422,2.01-0.82,2.993-1.221
			c0.272,0.292,0.087,0.526-0.035,0.696c-2.65,3.697-5.912,6.677-10.13,8.51c-2.873,1.247-5.904,1.633-8.982,1.321
			c-2.863-0.29-5.476-1.301-7.443-3.549c-1.353-1.546-2.254-3.347-2.808-5.313c-0.316-1.118-0.523-2.258-0.438-3.442
			c0.057-0.794,0.014-1.594,0.016-2.393L65.541,193.337z"/>
		<path fill-rule="evenodd" clip-rule="evenodd" fill="#FFBA00" d="M49.563,285.701c-0.726-0.687-1.242-1.204-1.786-1.688
			c-3.388-3.011-7.326-4.328-11.851-3.835c-1.082,0.119-2.173,0.161-3.151,0.494c-0.352-0.514-0.11-0.858-0.009-1.166
			c0.86-2.616,1.769-5.215,2.63-7.83c0.278-0.845,0.814-1.238,1.661-1.491c2.093-0.622,4.213-0.781,6.363-0.586
			c1.686,0.152,3.201,0.799,4.522,1.861c1.567,1.259,2.604,2.907,3.397,4.727c0.154,0.352,0.193,0.698,0.11,1.07
			C50.833,280,50.223,282.742,49.563,285.701z"/>
		<path fill-rule="evenodd" clip-rule="evenodd" fill="#FFBA00" d="M92.395,206.253c1.654-1.45,3.122-2.74,4.589-4.031
			c0.286-0.25,0.611-0.395,0.997-0.405c1.773-0.045,3.544-0.18,5.297,0.297c2.417,0.66,4.101,2.123,5.042,4.432
			c0.851,2.082,1.063,4.271,0.941,6.49c-0.137,2.479-0.186,2.557-1.791,4.442c-1.316,1.543-2.758,2.96-4.421,4.13
			c-0.59,0.416-1.227,0.768-1.806,1.125c-0.5-0.329-0.305-0.708-0.296-1.036c0.009-0.305,0.069-0.608,0.117-0.912
			c0.293-1.832,0.254-3.65-0.102-5.479c-0.648-3.34-2.468-5.824-5.388-7.507C94.633,207.257,93.617,206.843,92.395,206.253z"/>
		<path fill-rule="evenodd" clip-rule="evenodd" fill="#FFBA00" d="M79.131,486.219c0.26-1.632,0.507-3.265,0.783-4.893
			c0.707-4.163,1.44-8.322,2.128-12.486c0.112-0.695,0.356-1.286,0.788-1.821c1.711-2.123,3.742-3.872,6.118-5.213
			c0.646-0.364,0.812-0.336,1.216,0.25c1.989,2.868,3.969,5.745,5.946,8.623c0.269,0.388,0.184,0.62-0.291,0.843
			c-1.052,0.493-2.138,0.921-3.16,1.472c-4.351,2.346-7.792,5.693-10.588,9.733c-0.943,1.362-1.767,2.795-2.537,4.26
			C78.822,487.033,79.001,486.614,79.131,486.219z"/>
		<path fill-rule="evenodd" clip-rule="evenodd" fill="#FFBA00" d="M59.824,411.646c0.278,0.65,0.232,1.151,0.124,1.619
			c-0.507,2.199-0.709,4.447-1.066,6.67c-0.335,2.104-0.744,4.199-1.15,6.292c-0.441,2.272-0.903,4.539-1.377,6.805
			c-0.626,2.981-1.228,5.972-1.924,8.941c-1.047,4.455-2.166,8.89-3.258,13.336c-0.072,0.295-0.171,0.582-0.272,0.869
			c-0.06,0.169-0.154,0.347-0.371,0.315c-0.107-0.016-0.241-0.092-0.295-0.183c-0.475-0.785-0.943-1.576-1.396-2.372
			c-0.818-1.438-1.583-2.903-2.453-4.307c-0.411-0.664-0.407-1.223-0.087-1.891c0.843-1.768,1.684-3.537,2.471-5.333
			c1.178-2.686,2.362-5.376,3.446-8.103c1.401-3.523,2.786-7.055,4.028-10.635c1-2.885,1.781-5.846,2.652-8.774
			C59.201,413.865,59.487,412.826,59.824,411.646z"/>
		<path fill-rule="evenodd" clip-rule="evenodd" fill="#FFBA00" d="M48.645,226.202c-1.477,1.571-2.433,3.33-2.917,5.33
			c-0.57,2.352-0.581,4.733-0.274,7.117c0.141,1.092,0.359,2.173,0.536,3.259c0.038,0.234,0.071,0.476-0.123,0.719
			c-0.15-0.048-0.353-0.055-0.477-0.159c-2.381-1.978-4.394-4.242-5.696-7.098c-1.245-2.729-1.401-5.572-0.917-8.454
			c0.325-1.938,1.077-3.762,2.058-5.475c0.281-0.492,0.52-0.572,0.848-0.252c1.948,1.902,4.203,3.358,6.608,4.601
			C48.387,225.84,48.445,225.964,48.645,226.202z"/>
		<path fill-rule="evenodd" clip-rule="evenodd" fill="#FFBA00" d="M96.803,195.104c0.31-1.495,0.488-3.034,0.956-4.478
			c0.983-3.045,3.403-5.592,7.277-5.796c3.208-0.167,2.533-0.436,4.18,2.201c1.369,2.195,2.313,4.583,2.969,7.084
			c0.089,0.341,0.269,0.689-0.043,1.037c-0.634-0.065-1.081-0.525-1.609-0.814c-1.789-0.976-3.63-1.716-5.715-1.819
			c-2.6-0.125-4.799,0.736-6.723,2.423c-0.414,0.363-0.82,0.73-1.231,1.096C96.64,195.738,96.657,195.424,96.803,195.104z"/>
		<path fill-rule="evenodd" clip-rule="evenodd" fill="#FFBA00" d="M83.229,327.083c-1.37-0.435-2.438-1.353-3.515-2.237
			c-0.659-0.544-1.308-1.11-1.937-1.677c-0.892-0.807-1.605-1.828-2.325-2.809c-2.582-3.523-3.949-7.521-4.81-11.776
			c-0.686-3.395-0.713-6.788-0.65-10.588c0.48,1.101,0.604,1.918,0.819,2.711c0.943,3.484,2.094,6.902,3.443,10.249
			c1.859,4.618,4.275,8.938,7.068,13.05c0.514,0.757,1.057,1.494,1.6,2.232c0.19,0.259,0.29,0.533,0.304,0.847L83.229,327.083z"/>
		<path fill-rule="evenodd" clip-rule="evenodd" fill="#FFBA00" d="M65.962,182.041c-0.675-0.625-1.348-1.322-2.098-1.923
			c-0.712-0.573-1.493-1.064-2.265-1.557c-0.832-0.53-1.767-0.818-2.701-1.124c-0.864-0.281-1.773-0.287-2.598-0.441
			c-0.11-0.326,0.019-0.464,0.182-0.549c2.828-1.473,5.724-2.768,8.841-3.51c0.299-0.071,0.595-0.211,0.891-0.205
			c0.945,0.021,1.872-0.616,2.829-0.08c-0.061,0.875-0.553,1.599-0.86,2.384c-0.806,2.056-1.364,4.182-1.856,6.328
			C66.276,181.585,66.324,181.85,65.962,182.041z"/>
		<path fill-rule="evenodd" clip-rule="evenodd" fill="#FFBA00" d="M79.131,486.219c0.1,0.272,0.07,0.617,0.403,0.767
			c-0.001,0.444-0.2,0.803-0.489,1.126C78.693,487.273,78.687,487.272,79.131,486.219z"/>
		<path fill-rule="evenodd" clip-rule="evenodd" fill="#FFBA00" d="M96.803,195.104c0.021,0.31,0.04,0.622,0.06,0.933
			c-0.119,0.188-0.287,0.177-0.34-0.008C96.421,195.68,96.536,195.36,96.803,195.104z"/>
		<path fill-rule="evenodd" clip-rule="evenodd" fill="#FFBA00" d="M238.383,434.746c-0.002,0.199-0.004,0.397-0.004,0.596
			c-0.164-0.023-0.451-0.016-0.466-0.076C237.822,434.901,238.083,434.793,238.383,434.746z"/>
		<path fill-rule="evenodd" clip-rule="evenodd" fill="#FFBA00" d="M61.869,393.396c0.109,0.004,0.217,0,0.325-0.01
			c0.087,0.224,0.054,0.539-0.141,0.545C61.855,393.937,61.804,393.628,61.869,393.396z"/>
		<path fill-rule="evenodd" clip-rule="evenodd" fill="#FFBA00" d="M65.196,193.337c-0.014-0.123-0.027-0.244-0.041-0.365
			c0.128,0.122,0.257,0.243,0.386,0.365l0.002-0.005C65.429,193.335,65.312,193.337,65.196,193.337z"/>
		<path fill-rule="evenodd" clip-rule="evenodd" fill="#FFBA00" d="M83.226,327.085c0.053,0.03,0.151,0.065,0.148,0.083
			c-0.028,0.124-0.084,0.093-0.145-0.085L83.226,327.085z"/>
	</g>
</g>
<g id="Layer_4">
	<g>
		<path fill="#FFBA00" d="M183.573,224.865c-5.874,0-11.504-1.178-16.893-3.533c-5.389-2.354-10.163-5.746-14.323-10.173
			c-4.116-4.428-7.401-9.833-9.851-16.216c-2.452-6.382-3.677-13.578-3.677-21.584c0-8.007,1.201-15.272,3.606-21.797
			c2.405-6.524,5.733-12.141,9.987-16.851c4.208-4.663,9.179-8.266,14.913-10.809c5.734-2.544,11.86-3.816,18.381-3.816
			c4.855,0,9.247,0.613,13.178,1.835c3.931,1.226,6.978,2.788,6.978,2.788s5.379,1.51,7.146-4.912
			c0.341-0.104,3.841-0.003,3.841-0.003l0.964,34.942l-4.193,0.068c-0.739-3.483-1.789-16.79-16.653-25.626
			c-3.051-1.812-6.767-2.811-10.694-2.811c-4.484,0-8.383,0.734-12.243,2.76c-3.858,2.025-7.198,5.017-10.019,8.972
			c-2.681,3.817-4.786,8.67-6.312,14.558c-1.523,5.888-2.286,12.46-2.286,19.715c0,6.406,0.125,12.229,1.72,17.575
			c1.595,5.349,2.887,10.225,5.847,14.274c2.958,4.006,7.102,7.527,11.147,9.79c4.045,2.26,9.579,2.877,14.572,2.877
			c3.744,0,7.188-0.601,10.333-1.799c3.145-1.202,6.092-2.754,8.403-4.732c2.815-2.458,6.922-6.066,9.132-9.602
			c1.677,2.426,1.775,2.676,3.047,4.29c-3.529,5.961-7.846,10.344-12.607,13.431C200.452,222.734,192.637,224.865,183.573,224.865z"
			/>
		<path fill="#FFBA00" d="M333.918,223.552l-34.92,0.014l-0.02-4.271c3.54-0.241,4.421-0.217,6.759-0.943
			c4.049-1.36,2.964-5.96,2.964-5.96l-8.004-23.112h-33.919c-1.272,3.392-2.307,6.348-3.104,8.867
			c-0.795,2.52-1.512,4.846-2.147,6.978c-0.591,2.083-1,3.778-1.228,5.088c-0.228,1.307-0.342,2.375-0.342,3.197
			c-0.27,4.651,5.185,6.202,8.771,6.397v3.76h-27.511l-0.008-3.825c1.182-0.096,6.083-0.991,9.324-6.732
			c0.998-1.429,1.975-3.404,2.928-5.924c4.857-12.937,10.214-27.473,16.071-43.608c5.856-16.136,11.491-30.501,16.075-43.1h3.966
			l33.278,88.961c0.681,1.891,1.452,3.416,2.314,4.58c2.496,4.697,7.692,5.839,8.797,5.887L333.918,223.552z M298.543,183.65
			l-14.044-40.885l-15.748,40.941L298.543,183.65z"/>
		<path fill="#FFBA00" d="M438.293,196.649l-6.899,26.842h-72.599l0.017-4.032c1.13-0.095,11.743,1.017,11.918-10.273V137.45
			c0.506-12.48-10.662-11.185-11.935-11.28l0.034-3.548h38.975v3.548c-1.318,0.048-12.532-0.215-12.033,10.573v67.289
			c0,3.106,0.151,5.52,0.459,7.238c0.304,1.719,1.023,3.047,2.152,3.989c1.082,0.848,2.694,1.401,4.837,1.66
			c2.142,0.259,5.143,0.388,9.002,0.388c1.741,0,3.554-0.047,5.436-0.141c1.883-0.094,3.672-0.282,5.367-0.565
			c1.647-0.281,3.165-0.671,4.554-1.165s11.608-2.979,16.195-18.819L438.293,196.649z"/>
	</g>
	<g>
		<path fill="#FFBA00" d="M204.064,283.321h-13.097c-2.899-4.547-5.519-8.478-7.858-11.79c-2.34-3.313-4.879-6.729-7.618-10.248
			h-4.981v15.423c0,0.8,0.124,1.502,0.377,2.107c0.252,0.605,0.788,1.069,1.61,1.389c0.411,0.161,1.131,0.309,2.16,0.445
			c1.028,0.137,1.896,0.218,2.604,0.24v2.434h-20.563v-2.434c0.548-0.045,1.343-0.125,2.381-0.24
			c1.04-0.115,1.767-0.262,2.178-0.445c0.686-0.296,1.182-0.73,1.49-1.302c0.308-0.571,0.463-1.303,0.463-2.194V241.54
			c0-0.799-0.113-1.508-0.344-2.125c-0.229-0.616-0.765-1.084-1.609-1.405c-0.572-0.206-1.314-0.394-2.229-0.566
			c-0.914-0.17-1.69-0.278-2.33-0.324v-2.435h22.449c2.056,0,3.987,0.211,5.793,0.634c1.803,0.424,3.438,1.103,4.9,2.04
			c1.416,0.915,2.548,2.109,3.393,3.583c0.847,1.473,1.27,3.251,1.27,5.33c0,1.873-0.287,3.53-0.857,4.969
			c-0.571,1.439-1.417,2.684-2.535,3.736c-1.029,0.983-2.263,1.833-3.703,2.553c-1.439,0.72-3.027,1.331-4.764,1.834
			c2.398,3.176,4.392,5.85,5.981,8.02c1.587,2.171,3.535,4.811,5.844,7.917c1.005,1.371,1.913,2.382,2.724,3.034
			c0.811,0.65,1.617,1.182,2.417,1.593c0.595,0.297,1.337,0.527,2.228,0.686c0.892,0.161,1.633,0.252,2.229,0.274V283.321z
			 M186.035,247.077c0-2.942-0.846-5.275-2.536-6.998c-1.69-1.721-4.078-2.583-7.163-2.583h-5.826v20.838h4.489
			c3.153,0,5.78-1.008,7.883-3.027S186.035,250.545,186.035,247.077z"/>
		<path fill="#FFBA00" d="M314.665,237.12c-0.64,0.023-1.621,0.205-2.948,0.547c-1.324,0.343-2.272,0.698-2.844,1.063
			c-0.823,0.572-1.377,1.667-1.662,3.291c-0.286,1.623-0.429,3.678-0.429,6.169v35.611h-2.981l-29.478-39.792v25.088
			c0,2.811,0.177,4.97,0.531,6.478c0.355,1.508,0.897,2.583,1.63,3.222c0.524,0.503,1.611,0.972,3.256,1.406
			c1.646,0.434,2.729,0.664,3.255,0.686v2.434h-19.947v-2.434c0.617-0.045,1.656-0.268,3.119-0.669
			c1.463-0.397,2.375-0.758,2.743-1.079c0.799-0.64,1.347-1.616,1.645-2.931c0.296-1.314,0.445-3.558,0.445-6.734v-23.959
			c0-1.05-0.183-2.101-0.549-3.151c-0.365-1.052-0.857-1.863-1.475-2.435c-0.821-0.753-1.937-1.398-3.341-1.936
			c-1.405-0.535-2.542-0.827-3.41-0.873v-2.435h13.895l27.337,37.078v-23.13c0-2.833-0.183-5.008-0.548-6.528
			c-0.365-1.518-0.891-2.529-1.577-3.032c-0.64-0.434-1.685-0.857-3.136-1.268s-2.554-0.639-3.308-0.685v-2.435h19.776V237.12z"/>
		<path fill="#FFBA00" d="M409.167,283.321h-20.188v-2.434c0.55-0.045,1.343-0.114,2.383-0.206s1.755-0.228,2.143-0.411
			c0.685-0.274,1.188-0.691,1.508-1.252c0.32-0.558,0.479-1.284,0.479-2.176v-17.309h-22.859v16.932c0,0.8,0.131,1.473,0.394,2.022
			c0.262,0.549,0.782,1.028,1.56,1.439c0.389,0.206,1.078,0.412,2.073,0.617c0.993,0.207,1.775,0.321,2.348,0.343v2.434h-20.188
			v-2.434c0.549-0.045,1.343-0.114,2.382-0.206c1.041-0.092,1.754-0.228,2.144-0.411c0.686-0.274,1.188-0.691,1.508-1.252
			c0.32-0.558,0.479-1.284,0.479-2.176v-35.097c0-0.73-0.146-1.398-0.444-2.005c-0.297-0.604-0.812-1.08-1.542-1.422
			c-0.618-0.296-1.367-0.56-2.244-0.788c-0.88-0.229-1.641-0.365-2.281-0.411v-2.435h20.188v2.435
			c-0.64,0.023-1.422,0.124-2.348,0.308c-0.926,0.183-1.617,0.354-2.073,0.514c-0.777,0.273-1.298,0.732-1.56,1.37
			c-0.263,0.64-0.394,1.337-0.394,2.091v15.08h22.859v-14.737c0-0.73-0.147-1.398-0.444-2.005c-0.298-0.604-0.812-1.08-1.543-1.422
			c-0.618-0.296-1.365-0.56-2.244-0.788c-0.881-0.229-1.641-0.365-2.281-0.411v-2.435h20.188v2.435
			c-0.64,0.023-1.422,0.124-2.348,0.308c-0.926,0.183-1.617,0.354-2.074,0.514c-0.776,0.273-1.297,0.732-1.56,1.37
			c-0.262,0.64-0.393,1.337-0.393,2.091v35.062c0,0.8,0.131,1.473,0.393,2.022c0.263,0.549,0.783,1.028,1.56,1.439
			c0.389,0.206,1.081,0.412,2.074,0.617c0.995,0.207,1.775,0.321,2.348,0.343V283.321z"/>
	</g>
	<g>
		<path fill="#FFBA00" d="M188.269,327.022c-0.264,13.059-10.728,14.958-16.147,14.738c-2.103,0-4.117-0.73-6.219-1.382
			c-1.734-0.793-2.483-1.044-4-1.769c0,0-1.54-0.339-2.447,3.127c0.204,0.05-2.38,0-2.38,0s0.068-4.624-2.061-15.884
			c-0.455-0.092,2.628,0.011,2.628,0.011c2.809,9.37,8.331,10.67,9.869,11.444c5.38,1.618,8.257-0.062,8.302-0.103
			c7.229-3.965,4.08-11.239,1.587-12.711c-0.792-0.52-7.104-4.645-7.104-4.645s-9.099-5.612-10.571-7.546
			c-1.47-1.936-2.484-4.102-2.484-7.221c0-1.791,0.364-3.462,1.095-5.009c0.73-1.548,1.769-2.931,3.119-4.147
			c1.283-1.151,2.799-2.051,4.546-2.704c1.748-0.652,3.574-0.979,5.476-0.979c2.169,0,4.109,0.331,5.824,0.995
			c1.715,0.664,2.36,0.894,3.776,1.778l1.942-2.839c0,0,2.017-0.039,2.448,0c-0.114,8.435,1.169,15.643,1.169,15.643l-2.574-0.003
			c-0.487-1.792-0.635-7.205-7.973-11.541c-1.372-0.763-2.986-0.865-4.979-0.865c-2.1,0-3.479,0.52-4.961,1.868
			c-1.481,1.351-1.835,3.051-1.835,4.997c0.826,5.381,12.538,11.361,13.997,12.003C188.548,320.279,188.269,325.274,188.269,327.022
			z"/>
		<path fill="#FFBA00" d="M411.955,327.022c-0.264,13.059-10.727,14.958-16.147,14.738c-2.102,0-4.117-0.73-6.218-1.382
			c-1.735-0.793-2.482-1.044-4.001-1.769c0,0-1.54-0.339-2.447,3.127c0.204,0.05-2.379,0-2.379,0s0.069-4.624-2.062-15.884
			c-0.452-0.092,2.629,0.011,2.629,0.011c2.809,9.37,8.332,10.67,9.869,11.444c5.38,1.618,8.257-0.062,8.303-0.103
			c7.229-3.965,4.08-11.239,1.587-12.711c-0.793-0.52-7.104-4.645-7.104-4.645s-9.1-5.612-10.571-7.546
			c-1.471-1.936-2.485-4.102-2.485-7.221c0-1.791,0.365-3.462,1.096-5.009c0.729-1.548,1.769-2.931,3.119-4.147
			c1.282-1.151,2.798-2.051,4.546-2.704s3.573-0.979,5.477-0.979c2.168,0,4.109,0.331,5.822,0.995
			c1.715,0.664,2.36,0.894,3.776,1.778l1.943-2.839c0,0,2.017-0.039,2.446,0c-0.112,8.435,1.17,15.643,1.17,15.643l-2.573-0.003
			c-0.488-1.792-0.637-7.205-7.973-11.541c-1.372-0.763-2.986-0.865-4.978-0.865c-2.103,0-3.48,0.52-4.963,1.868
			c-1.481,1.351-1.834,3.051-1.834,4.997c0.825,5.381,12.537,11.361,13.997,12.003C412.235,320.279,411.955,325.274,411.955,327.022
			z"/>
		<path fill="#FFBA00" d="M231.722,306.082h-2.289c-0.199-0.796-0.559-1.741-1.082-2.837c-0.52-1.096-1.101-2.129-1.744-3.103
			c-0.666-1.018-1.392-1.908-2.18-2.671c-0.787-0.763-1.546-1.199-2.277-1.311c-0.688-0.088-1.552-0.155-2.595-0.199
			c-1.043-0.043-2.008-0.066-2.895-0.066h-1.928v37.665c0,0.729,0.155,1.4,0.464,2.006c0.311,0.61,0.851,1.08,1.625,1.411
			c0.399,0.155,1.234,0.364,2.506,0.631c1.272,0.265,2.263,0.409,2.97,0.432v2.355h-22.233v-2.355
			c0.619-0.045,1.565-0.133,2.838-0.265c1.272-0.133,2.15-0.3,2.639-0.499c0.73-0.287,1.267-0.702,1.608-1.244
			c0.344-0.542,0.515-1.266,0.515-2.174v-37.963h-1.925c-0.687,0-1.537,0.016-2.554,0.05c-1.018,0.032-1.991,0.104-2.922,0.215
			c-0.729,0.088-1.488,0.525-2.271,1.311c-0.786,0.786-1.511,1.676-2.173,2.671c-0.665,0.996-1.252,2.053-1.76,3.17
			c-0.51,1.117-0.863,2.04-1.062,2.77h-2.323v-12.776h41.049V306.082z"/>
		<path fill="#FFBA00" d="M273.297,298.88c2.08,2.169,3.705,4.785,4.879,7.849c1.171,3.064,1.758,6.455,1.758,10.171
			c0,3.739-0.597,7.134-1.791,10.187c-1.194,3.054-2.854,5.653-4.978,7.798c-2.058,2.125-4.447,3.763-7.168,4.912
			c-2.722,1.15-5.62,1.726-8.694,1.726c-3.275,0-6.3-0.613-9.076-1.842c-2.775-1.228-5.16-2.938-7.151-5.127
			c-1.991-2.146-3.557-4.75-4.696-7.814c-1.138-3.065-1.708-6.344-1.708-9.84c0-3.827,0.598-7.24,1.792-10.238
			s2.841-5.591,4.944-7.782c2.08-2.168,4.496-3.827,7.25-4.978s5.637-1.725,8.646-1.725c3.12,0,6.062,0.586,8.828,1.76
			C268.895,295.109,271.285,296.757,273.297,298.88z M268.353,332.265c1.239-2.012,2.141-4.292,2.705-6.836
			c0.563-2.544,0.847-5.386,0.847-8.528c0-3.229-0.315-6.195-0.945-8.894c-0.632-2.699-1.556-5-2.772-6.902
			c-1.217-1.88-2.743-3.346-4.578-4.396c-1.838-1.051-3.939-1.576-6.306-1.576c-2.655,0-4.912,0.609-6.77,1.825
			c-1.858,1.216-3.375,2.842-4.547,4.877c-1.107,1.948-1.931,4.225-2.472,6.835c-0.542,2.612-0.813,5.354-0.813,8.23
			c0,3.186,0.287,6.062,0.862,8.627c0.576,2.568,1.483,4.846,2.723,6.836c1.194,1.948,2.697,3.468,4.512,4.564
			c1.814,1.095,3.983,1.643,6.505,1.643c2.366,0,4.501-0.554,6.404-1.659C265.609,335.804,267.158,334.256,268.353,332.265z"/>
		<path fill="#FFBA00" d="M327.352,340.395h-12.68c-2.808-4.402-5.344-8.208-7.609-11.416c-2.265-3.206-4.723-6.514-7.376-9.921
			h-4.823v14.933c0,0.776,0.123,1.456,0.365,2.042c0.243,0.585,0.764,1.034,1.56,1.344c0.398,0.154,1.096,0.298,2.091,0.432
			c0.996,0.132,1.837,0.209,2.522,0.232v2.355H281.49v-2.355c0.531-0.045,1.3-0.122,2.308-0.232c1.006-0.11,1.709-0.255,2.107-0.432
			c0.662-0.287,1.144-0.708,1.442-1.261s0.447-1.261,0.447-2.125v-34.047c0-0.774-0.109-1.46-0.33-2.057
			c-0.223-0.597-0.742-1.051-1.56-1.362c-0.554-0.198-1.272-0.381-2.157-0.547c-0.887-0.166-1.638-0.271-2.258-0.314v-2.357h21.736
			c1.991,0,3.861,0.205,5.609,0.613c1.745,0.411,3.328,1.068,4.745,1.976c1.371,0.884,2.465,2.041,3.284,3.468
			c0.818,1.426,1.229,3.147,1.229,5.159c0,1.814-0.277,3.419-0.831,4.812c-0.552,1.394-1.371,2.6-2.455,3.617
			c-0.994,0.952-2.188,1.775-3.583,2.473c-1.395,0.698-2.933,1.289-4.612,1.775c2.322,3.076,4.251,5.665,5.79,7.766
			c1.537,2.102,3.423,4.656,5.658,7.665c0.974,1.328,1.853,2.306,2.638,2.936c0.785,0.631,1.565,1.146,2.34,1.543
			c0.575,0.29,1.295,0.51,2.156,0.665c0.862,0.155,1.582,0.242,2.157,0.265V340.395z M309.896,305.303
			c0-2.848-0.818-5.107-2.455-6.773c-1.638-1.669-3.95-2.503-6.936-2.503h-5.643v20.178h4.348c3.053,0,5.597-0.979,7.633-2.932
			C308.879,311.316,309.896,308.661,309.896,305.303z"/>
		<path fill="#FFBA00" d="M375.393,327.394l-4.078,13h-39.408v-2.355c0.664-0.045,1.548-0.138,2.654-0.282
			c1.105-0.144,1.825-0.293,2.158-0.448c0.706-0.332,1.198-0.763,1.476-1.293c0.276-0.532,0.414-1.206,0.414-2.026v-33.848
			c0-0.73-0.121-1.377-0.365-1.941c-0.243-0.565-1.405-2.892-6.337-2.538v-2.357h38.612v10.613h-1.99
			c-0.444-1.68-1.044-3.75-2.517-5.64c-1.47-1.893-5.898-1.909-7.227-2.086c-0.686-0.087-10.968,0.045-10.968,0.045
			s-1.802,0.056-2.141,1.655c-0.001-0.613,0,16.751,0,16.751h5.311c1.702,0,8.93-0.16,9.715-0.481
			c0.784-0.319,1.476-0.856,2.073-1.61c0.486-0.641,0.902-1.498,1.245-2.57c0.342-1.073,0.569-2.086,0.681-3.037h2.488l0.012,17.22
			c0,0-0.542,0-2.671-0.033c-0.124-0.679-0.307-1.38-0.542-2.105c-0.389-1.183-0.792-2.041-1.213-2.57
			c-0.685-0.863-1.466-1.429-2.339-1.693c-0.875-0.266-8.012-0.399-9.449-0.399h-5.311c0,0,0.101,16.644,0.299,17.46
			c0.199,0.817,0.587,1.436,1.162,1.854c0.575,0.42,1.36,0.691,2.356,0.813c0.994,0.121,2.41,0.181,4.247,0.181
			c0.73,0,1.692,0,2.888,0c1.194,0,2.2-0.043,3.021-0.133c0.839-0.088,1.707-0.248,2.604-0.481
			c8.438-2.46,10.031-10.025,9.922-9.666H375.393z"/>
	</g>
	<rect x="217.869" y="179.523" fill="#FFBA00" width="29.638" height="11.239"/>
	<rect x="329.26" y="179.523" fill="#FFBA00" width="29.638" height="11.239"/>
	<path fill="#FFBA00" d="M257.706,282.776l-18.202,0.007l-0.009-2.014c1.844-0.113,2.304-0.101,3.522-0.443
		c2.11-0.641,1.544-2.809,1.544-2.809l-4.171-10.896h-17.68c-0.663,1.599-1.201,2.992-1.617,4.18
		c-0.414,1.188-0.788,2.284-1.118,3.289c-0.311,0.983-0.523,1.781-0.642,2.398c-0.118,0.618-0.177,1.12-0.177,1.508
		c-0.141,2.193,2.701,2.924,4.571,3.015v1.773h-14.34l-0.004-1.803c0.616-0.046,3.171-0.466,4.859-3.173
		c0.521-0.673,1.03-1.604,1.526-2.792c2.532-6.099,5.324-12.95,8.378-20.557c3.051-7.606,5.988-14.378,8.377-20.318h2.067
		l17.345,41.936c0.355,0.891,0.758,1.61,1.208,2.159c1.3,2.214,4.009,2.754,4.584,2.775L257.706,282.776z M239.268,263.968
		l-7.319-19.272l-8.208,19.299L239.268,263.968z"/>
	<path fill="#FFBA00" d="M335.944,284.141c-3.192,0-6.252-0.567-9.181-1.702c-2.928-1.134-5.522-2.767-7.783-4.899
		c-2.238-2.132-4.021-4.734-5.354-7.809c-1.332-3.075-1.998-6.539-1.998-10.395s0.652-7.355,1.96-10.497
		c1.306-3.142,3.116-5.847,5.427-8.115c2.287-2.245,4.989-3.98,8.104-5.205c3.116-1.227,6.444-1.838,9.989-1.838
		c2.638,0,5.024,0.295,7.161,0.884c2.136,0.589,3.79,1.342,3.79,1.342s2.924,0.727,3.885-2.366c0.185-0.05,2.088-0.002,2.088-0.002
		l0.523,16.828l-2.278,0.032c-0.402-1.677-0.972-8.085-9.05-12.342c-1.659-0.872-3.678-1.352-5.812-1.352
		c-2.438,0-4.556,0.353-6.653,1.329c-2.097,0.974-3.912,2.417-5.444,4.321c-1.457,1.839-2.602,4.176-3.429,7.01
		c-0.828,2.837-1.243,6.001-1.243,9.496c0,3.084,0.067,5.89,0.935,8.464c0.866,2.575,1.569,4.922,3.177,6.874
		c1.608,1.929,3.859,3.625,6.06,4.715c2.197,1.089,5.203,1.385,7.918,1.385c2.034,0,3.905-0.289,5.616-0.868
		c1.706-0.576,3.308-1.324,4.564-2.276c1.53-1.184,3.762-2.921,4.963-4.625c0.911,1.168,0.965,1.29,1.656,2.066
		c-1.918,2.871-4.265,4.981-6.851,6.468C345.116,283.114,340.869,284.141,335.944,284.141z"/>
</g>
</svg>
