<?xml version="1.0" encoding="UTF-8" standalone="no"?>
<!DOCTYPE svg PUBLIC "-//W3C//DTD SVG 1.1//EN" "http://www.w3.org/Graphics/SVG/1.1/DTD/svg11.dtd">
<svg version="1.1" xmlns="http://www.w3.org/2000/svg" xmlns:xlink="http://www.w3.org/1999/xlink" preserveAspectRatio="xMidYMid meet" viewBox="0 0 640 640" width="640" height="640"><defs><path d="M47.03 246.96C48.62 249.19 50.66 250.93 53.03 252.26C53.92 252.76 54.93 253.11 55.93 253.37C57.34 253.75 58.73 254.24 60.24 254.18C60.75 254.16 60.99 254.56 60.83 255.06C60.54 255.93 60.22 256.78 59.86 257.63C59.78 257.83 59.53 258.02 59.32 258.09C57.9 258.53 56.44 258.75 54.98 258.48C53.29 258.18 51.63 257.69 50.17 256.74C48.82 255.87 47.69 254.73 46.79 253.41C45.58 251.64 44.65 249.71 44.19 247.59C44.56 246.93 45.09 246.43 45.73 246.04C46.37 246.06 46.7 246.5 47.03 246.96Z" id="i41R4O80AV"></path><path d="M165.13 557.1C163.85 560.52 161.98 563.61 159.77 566.5C157.22 569.83 154.35 572.85 150.96 575.32C148.51 577.11 145.9 578.57 142.91 579.26C141.75 579.53 140.61 579.55 139.47 579.17C137.84 578.61 136.77 577.52 136.28 575.87C135.92 574.68 135.88 573.46 136.07 572.23C136.56 569.17 137.61 566.3 139.09 563.59C142.18 557.97 146.27 553.2 151.44 549.4C153.97 547.53 156.72 546.05 159.85 545.41C160.9 545.19 161.93 545.2 162.94 545.55C164.55 546.11 165.67 547.16 166.13 548.84C166.34 549.61 166.51 550.39 166.45 551.2C166.3 553.23 165.85 555.19 165.13 557.1Z" id="dm3JrDBU3"></path><path d="M113.25 552.72C110.35 549.39 107.45 546.05 104.54 542.73C104.13 542.26 103.83 541.78 103.81 541.11C103.58 535.32 103.83 529.58 105.39 523.97C107.06 517.94 109.94 512.61 114.49 508.25C116.49 506.33 118.71 504.69 121.12 503.33C121.77 502.96 121.88 502.97 122.37 503.52C124.71 506.12 127.05 508.72 129.37 511.33C129.85 511.87 129.84 512.04 129.31 512.55C128.65 513.2 127.97 513.81 127.31 514.46C120.71 520.9 116.49 528.64 114.68 537.67C113.71 542.51 113.59 547.41 113.95 552.32C113.97 552.56 114 552.8 114.03 553.1C113.53 553.12 113.4 552.89 113.25 552.72Z" id="d5XD9Cn9Jm"></path><path d="M133.04 573.51C130.66 571.12 128.3 568.71 125.89 566.34C125.25 565.7 124.96 565 124.81 564.1C124.05 559.6 123.85 555.08 124.1 550.53C124.45 544.11 126.15 538.09 129.55 532.6C131.96 528.69 135.04 525.39 138.74 522.66C139.45 522.14 139.55 522.14 140.15 522.73C142.48 525.08 144.81 527.44 147.13 529.8C147.26 529.93 147.32 530.11 147.41 530.26C147.32 530.67 147.02 530.9 146.77 531.16C141.98 536.04 138.81 541.85 136.75 548.32C135.58 552.01 134.81 555.79 134.38 559.64C133.98 563.18 133.75 566.72 133.81 570.29C133.83 571.51 133.93 572.73 133.99 574.02C133.43 574 133.25 573.72 133.04 573.51Z" id="a7qhnKBHS"></path><path d="M92.02 526.33C91.7 526.5 91.54 526.29 91.39 526.1C88.6 522.44 85.99 518.65 83.35 514.88C82.99 514.36 82.8 513.81 82.9 513.16C83.8 506.76 85.2 500.5 87.95 494.6C89.89 490.44 92.41 486.7 95.9 483.67C97.68 482.13 99.6 480.84 101.74 479.87C102.53 479.52 102.61 479.52 103.13 480.19C105.15 482.75 107.14 485.32 109.15 487.87C109.79 488.69 110.45 489.49 111.23 490.46C98.07 498.96 91.81 510.94 92.02 526.33Z" id="gsMQWJ0Y7"></path><path d="M434.38 106.43C437.51 104.67 440.88 103.6 444.43 103.03C447.66 102.52 450.91 102.68 454.16 102.74C455.28 102.76 456.1 103.18 456.83 104.06C460.75 108.79 464.56 113.59 468.1 118.6C468.37 118.99 468.76 119.32 468.76 119.89C467.24 119.65 465.74 119.38 464.23 119.17C460.81 118.69 457.39 118.74 453.96 119.12C449.91 119.57 446.03 120.66 442.25 122.15C441.32 122.52 441.28 122.53 440.68 121.8C437.37 117.77 433.91 113.87 430.37 110.04C430.25 109.91 430.19 109.73 430.07 109.52C431.35 108.26 432.84 107.29 434.38 106.43Z" id="aPUWv8di6"></path><path d="M361.36 38.95C358.23 40.52 355.26 42.35 352.52 44.54C348.95 47.4 345.9 50.73 343.71 54.79C343.62 54.95 343.52 55.1 343.45 55.27C343.24 55.73 342.93 55.91 342.42 55.74C341.78 55.53 341.13 55.36 340.48 55.18C336 53.91 331.47 52.9 326.91 51.95C326.67 51.9 326.43 51.86 326.19 51.82C325.76 51.74 325.54 51.48 325.62 51.05C325.69 50.63 325.8 50.21 325.91 49.8C327.57 44.02 331.01 39.54 335.88 36.11C337.89 34.7 340.06 33.56 342.33 32.61C343.1 32.28 343.84 32.16 344.64 32.38C350.68 33.98 356.66 35.77 362.52 37.93C362.57 37.94 362.61 38 362.66 38.04C362.46 38.67 361.83 38.72 361.36 38.95Z" id="aGyalKSf4"></path><path d="M501.69 255.58C502.03 256.13 502.17 256.68 502.09 257.32C501.31 263.15 500.46 268.97 499.22 274.73C499.17 274.97 499.12 275.21 499.05 275.44C499.01 275.55 498.91 275.67 498.82 275.7C498.61 275.78 498.51 275.62 498.42 275.46C497.79 274.26 497.08 273.12 496.27 272.03C494.37 269.49 491.96 267.52 489.33 265.78C486.14 263.66 482.67 262.14 479.09 260.81C476.87 259.99 477.27 260.5 477.48 258.29C477.75 255.49 478.13 252.69 478.42 249.89C478.61 248 478.73 246.1 478.9 244.2C478.96 243.47 479.1 243.36 479.79 243.33C480.28 243.32 480.77 243.33 481.48 243.33C490.18 243.91 496.99 247.99 501.69 255.58Z" id="fbA8uSU5d"></path><path d="M456.22 129.22C461.65 127.85 467.04 128.18 472.37 129.77C473.37 130.07 474.34 130.45 475.33 130.78C476.07 131.02 476.56 131.49 476.93 132.18C478.72 135.46 480.56 138.72 482.33 142.01C483.32 143.85 484.21 145.73 485.13 147.6C485.26 147.86 485.47 148.12 485.36 148.47C484.92 148.64 484.55 148.36 484.18 148.22C478.94 146.3 473.53 145.39 467.95 145.52C464.82 145.59 461.72 146.02 458.65 146.65C457.72 146.84 457.7 146.83 457.21 146C455.4 142.94 453.61 139.86 451.64 136.9C450.86 135.73 450.07 134.56 449.29 133.38C449.1 133.08 448.85 132.8 448.82 132.35C451.1 130.88 453.59 129.88 456.22 129.22Z" id="b1zgGj3vTm"></path><path d="M488.65 306.37C487.62 303.22 485.88 300.5 483.67 298.06C480.42 294.48 476.52 291.73 472.34 289.36C470.35 288.24 470.47 288.74 471.15 286.48C472.4 282.31 473.62 278.13 474.57 273.88C474.68 273.4 474.81 272.93 474.94 272.46C475.04 272.13 475.26 271.93 475.62 272.01C476.4 272.17 477.18 272.33 477.95 272.54C482.02 273.68 485.7 275.56 488.85 278.43C491.82 281.14 493.85 284.45 495.33 288.14C495.63 288.88 495.54 289.55 495.31 290.28C494.1 294.2 492.84 298.11 491.38 301.95C490.82 303.44 490.24 304.93 489.67 306.41C489.54 306.75 489.44 307.12 489.05 307.35C488.91 307.02 488.76 306.7 488.65 306.37Z" id="c2MhU34RES"></path><path d="M494.06 235.83C490.03 233.84 485.78 232.44 481.45 231.29C481.04 231.18 480.62 231.07 480.21 230.95C479.3 230.7 479.29 230.69 479.25 229.69C479.15 227.43 479.09 225.16 478.98 222.89C478.87 220.63 478.71 218.36 478.57 216.1C478.55 215.61 478.52 215.12 478.53 214.63C478.54 214.29 478.73 214.07 479.08 214C481.56 213.49 484.07 213.41 486.58 213.77C490.35 214.3 493.76 215.75 496.89 217.91C498.97 219.35 500.85 221.01 502.62 222.8C503.02 223.21 503.29 223.63 503.32 224.24C503.58 230.37 503.52 236.5 503.21 242.63C503.21 242.67 503.15 242.71 502.95 242.92C500.67 239.58 497.5 237.53 494.06 235.83Z" id="b1Rjc7LjFr"></path><path d="M327.41 30.53C321.89 34.6 317.43 39.58 314.46 45.81C313.99 46.8 313.6 47.83 313.16 48.85C312.84 49.57 312.69 49.66 311.89 49.54C308.18 49.02 304.46 48.67 300.73 48.47C299.14 48.38 297.55 48.26 295.96 48.15C295.14 48.1 295.02 47.97 295.07 47.13C295.2 44.91 295.73 42.77 296.48 40.69C298.71 34.47 302.94 29.94 308.57 26.63C309.18 26.27 309.78 26.19 310.49 26.25C316.3 26.78 322.04 27.69 327.78 28.66C328.25 28.74 328.74 28.77 329.19 29.23C328.58 29.67 327.99 30.1 327.41 30.53Z" id="bqbTX20Hn"></path><path d="M264.46 46.68C263.71 41.5 265.05 36.84 267.84 32.52C269.48 29.98 271.58 27.82 273.81 25.79C274.33 25.31 274.91 25.04 275.62 25.05C276.54 25.05 277.46 24.99 278.38 24.99C283.11 24.99 287.83 25.01 292.56 25.02C293.05 25.02 293.54 25.05 294.02 25.12C294.18 25.15 294.31 25.4 294.17 25.56C293.78 26.03 293.36 26.47 292.94 26.92C288.28 31.89 284.97 37.62 283.14 44.19C282.88 45.13 282.71 46.1 282.48 47.05C282.33 47.7 282.16 47.83 281.45 47.86C279.67 47.93 277.9 47.99 276.12 48.06C272.99 48.18 269.86 48.14 267.25 48.52C264.98 48.58 264.79 49.01 264.46 46.68Z" id="fHYCbL8IW"></path><path d="M457.42 328.75C461.56 332.21 464.65 336.38 466.15 341.64C466.6 343.24 466.78 344.88 467.03 346.51C467.13 347.2 466.8 347.69 466.43 348.19C464.79 350.33 463.2 352.5 461.51 354.61C459.49 357.15 457.39 359.62 455.31 362.13C455.17 362.3 455.04 362.55 454.65 362.53C454.55 361.9 454.41 361.26 454.36 360.61C454.15 357.82 453.29 355.22 452.15 352.69C450.22 348.41 447.49 344.64 444.46 341.09C442.91 339.27 442.94 339.89 444.37 337.97C447.07 334.32 449.66 330.6 452.15 326.81C452.41 326.42 452.57 325.92 453.15 325.69C454.67 326.52 456.07 327.61 457.42 328.75Z" id="b27Ar4H2Z9"></path><path d="M80.33 157.48C83.99 164.52 89.33 169.95 96.19 173.91C96.87 174.3 97.67 174.51 98.14 175.22C97.94 175.93 97.78 176.64 97.54 177.34C96.11 181.64 94.95 186.01 93.92 190.43C93.79 191.02 93.7 191.63 93.37 192.13C93.22 192.13 93.09 192.17 92.98 192.13C88.03 190.2 83.45 187.67 79.66 183.85C76.99 181.14 75.02 178.01 73.87 174.38C73.64 173.65 73.54 172.97 73.78 172.23C75.37 167.14 77.09 162.1 79.16 157.19C79.25 156.97 79.39 156.78 79.66 156.31C79.97 156.85 80.16 157.15 80.33 157.48Z" id="j3XRXhAUBY"></path><path d="M414.85 72.48C411.65 73.36 408.57 74.52 405.64 76.11C403.19 77.43 400.96 79.03 399 81C398.79 81.22 398.57 81.43 398.36 81.66C398.07 81.95 397.77 82.07 397.39 81.78C397.15 81.6 396.88 81.45 396.63 81.27C392.4 78.33 388.04 75.59 383.55 73.07C383.33 72.95 383.11 72.84 382.91 72.69C382.63 72.48 382.57 72.22 382.8 71.92C383.21 71.38 383.6 70.83 384.04 70.32C385.68 68.4 387.54 66.73 389.63 65.3C394.11 62.24 399.11 60.48 404.34 59.26C405.02 59.1 405.63 59.17 406.26 59.58C411.4 62.91 416.41 66.45 421.25 70.22C421.44 70.36 421.66 70.49 421.7 70.98C419.39 71.45 417.1 71.86 414.85 72.48Z" id="dgF8F2n3h"></path><path d="M435.81 349.46C439.75 353.17 442.87 357.43 444.45 362.69C445.32 365.61 445.56 368.58 445.37 371.6C445.3 372.55 444.99 373.33 444.28 374.03C440.16 378.07 435.93 381.98 431.59 385.78C431.41 385.93 431.21 386.07 431.03 386.2C430.58 386.06 430.71 385.71 430.71 385.44C430.71 384.82 430.74 384.21 430.75 383.6C430.92 376.01 428.54 369.27 423.94 363.27C423.68 362.93 423.42 362.59 423.17 362.24C423.11 362.15 423.11 362.01 423.05 361.8C427.19 357.71 431.31 353.52 435.22 349.14C435.5 349.29 435.69 349.34 435.81 349.46Z" id="bfNB3c2RP"></path><path d="M115.21 102.66C116.19 110.01 119.29 116.35 124.24 121.82C124.69 122.32 125.18 122.79 125.63 123.28C126.11 123.81 126.11 123.92 125.65 124.55C123.82 127.01 121.96 129.44 120.17 131.93C118.96 133.62 117.84 135.38 116.68 137.12C116.45 137.46 116.18 137.6 115.76 137.37C109.97 134.06 105.51 129.64 103.7 122.98C103.03 120.52 102.98 118.02 103.06 115.5C103.08 114.9 103.39 114.47 103.73 114.03C105.32 112 106.86 109.94 108.49 107.95C110.34 105.66 112.27 103.43 114.17 101.19C114.32 101.01 114.45 100.78 114.86 100.78C114.98 101.39 115.13 102.02 115.21 102.66Z" id="hhfzxIFfL"></path><path d="M409.52 88.1C413.19 84.6 417.52 82.27 422.36 80.81C425.07 80 427.86 79.57 430.65 79.2C431.57 79.08 432.31 79.25 433.01 79.91C434.21 81.04 435.52 82.08 436.71 83.22C439.98 86.38 443.21 89.57 446.45 92.75C446.71 93 447.01 93.22 447.1 93.61C446.94 94 446.6 93.86 446.32 93.86C444.97 93.87 443.62 93.82 442.27 93.85C435.11 94.04 428.48 95.94 422.6 100.14C421.31 101.06 421.48 101.26 420.18 100.05C416.71 96.83 413.14 93.75 409.45 90.78C409.03 90.44 408.54 90.15 408.25 89.63C408.48 88.97 409.04 88.56 409.52 88.1Z" id="gCxtiN9qY"></path><path d="M466.93 299.66C471.83 302.1 476.13 305.29 479.38 309.75C481.39 312.51 482.78 315.55 483.48 318.91C483.63 319.63 483.54 320.22 483.21 320.83C481.87 323.31 480.58 325.82 479.21 328.28C477.8 330.79 476.3 333.25 474.84 335.74C474.71 335.95 474.59 336.16 474.43 336.35C474.37 336.43 474.23 336.45 474.12 336.47C473.97 336.49 473.9 336.4 473.89 336.25C473.66 334.22 473.09 332.29 472.3 330.42C471.02 327.39 469.16 324.74 466.96 322.32C464.93 320.1 462.7 318.08 460.29 316.28C459.99 316.06 459.7 315.84 459.41 315.61C459.14 315.39 459.06 315.13 459.24 314.81C459.39 314.54 459.52 314.26 459.66 313.99C461.87 309.75 463.93 305.44 465.8 301.04C466.01 300.53 466.28 300.05 466.51 299.59C466.7 299.62 466.84 299.61 466.93 299.66Z" id="i92CYqiWJ7"></path><path d="M73.06 285.63C76.75 287.95 80.77 289.34 85.08 289.92C89.18 290.47 93.27 290.44 97.37 289.99C98.35 289.88 98.4 289.9 98.79 290.98C100.14 294.73 101.53 298.46 103.11 302.12C103.54 303.13 104.02 304.13 104.45 305.14C104.7 305.73 104.62 305.9 104.02 306.1C102.15 306.69 100.24 307.13 98.32 307.51C95.96 307.98 93.57 308.07 91.17 307.96C86.23 307.73 81.85 306.04 78.05 302.85C77.37 302.28 76.91 301.61 76.62 300.77C74.89 295.86 73.3 290.9 71.91 285.88C71.83 285.6 71.73 285.3 71.95 285.02C72.42 285.05 72.71 285.4 73.06 285.63Z" id="benReeX8t"></path><path d="M501.54 209.87C497.05 206.11 491.81 204.03 486.12 202.93C483.65 202.45 481.16 202.14 478.64 202.11C478.4 202.1 478.15 202.09 477.91 202.07C476.97 202 476.89 201.95 476.71 201.03C476.38 199.35 476.1 197.66 475.73 195.99C475.05 192.81 474.32 189.65 473.61 186.49C473.55 186.19 473.47 185.89 473.42 185.59C473.38 185.32 473.53 185.13 473.77 185.02C473.88 184.97 474.01 184.94 474.13 184.93C479.09 184.27 484.02 184.16 488.89 185.58C492.88 186.73 496.26 188.85 499.03 191.95C499.57 192.55 499.95 193.19 500.07 194.04C500.45 196.58 500.97 199.1 501.33 201.65C501.7 204.25 501.96 206.88 502.27 209.49C502.29 209.72 502.4 209.97 502.15 210.16C501.86 210.27 501.71 210.02 501.54 209.87Z" id="c6YgYvqu1"></path><path d="M370.91 66.49C370.52 66.32 370.14 66.12 369.75 65.94C365.43 63.87 361.01 62.05 356.53 60.37C356.18 60.24 355.84 60.11 355.5 59.97C355.15 59.83 355.05 59.56 355.18 59.24C355.33 58.84 355.52 58.45 355.72 58.07C358.18 53.35 361.92 49.89 366.48 47.26C369.26 45.67 372.22 44.48 375.29 43.57C375.92 43.38 376.45 43.41 377.05 43.68C382.49 46.11 387.81 48.76 393.03 51.62C393.19 51.71 393.36 51.8 393.5 51.92C393.57 51.98 393.64 52.12 393.62 52.22C393.6 52.31 393.5 52.44 393.41 52.47C392.48 52.77 391.53 53.03 390.6 53.35C386.46 54.76 382.51 56.55 378.94 59.12C376.32 61.01 374.04 63.21 372.24 65.89C372.03 66.2 371.85 66.53 371.42 66.62C371.27 66.58 371.08 66.56 370.91 66.49Z" id="bE2uhNNU6"></path><path d="M489.56 159.89C490.3 160.3 490.79 160.82 491.08 161.62C492.53 165.59 493.91 169.58 495.13 173.62C495.45 174.68 495.74 175.74 496.05 176.8C496.17 177.2 496.47 177.69 496.16 178.01C495.79 178.4 495.4 177.89 495.05 177.74C494.03 177.31 493.06 176.8 492.04 176.38C486.92 174.31 481.58 173.37 476.08 173.33C474.3 173.31 472.52 173.37 470.74 173.39C469.71 173.4 469.7 173.4 469.31 172.37C468.71 170.83 468.16 169.27 467.53 167.74C466.42 165.02 465.26 162.32 464.12 159.61C463.95 159.22 463.75 158.84 463.59 158.44C463.33 157.81 463.44 157.56 464.12 157.36C466.07 156.81 468.04 156.38 470.05 156.15C471.45 155.98 472.86 155.94 473.75 155.87C479.71 155.9 484.79 157.27 489.56 159.89Z" id="eLVgfGEX"></path><path d="M103.93 345.31C110.68 346 117.27 345.49 123.52 342.57C124.24 342.23 124.94 341.85 125.65 341.49C126.48 341.07 126.53 341.06 127.04 341.7C130.34 345.82 133.79 349.8 137.39 353.66C137.59 353.88 137.84 354.08 137.88 354.44C137.79 354.82 137.42 354.97 137.15 355.18C131.92 359.27 125.98 361.21 119.34 360.91C116.83 360.8 114.36 360.34 111.92 359.7C111.1 359.48 110.51 359.05 109.99 358.41C107.13 354.89 104.29 351.35 101.64 347.66C101.14 346.97 100.64 346.27 100.14 345.57C100 345.37 99.88 345.16 99.97 344.8C101.28 344.97 102.6 345.17 103.93 345.31Z" id="c2uP6dG8j"></path><path d="M261.69 27.54C259.66 30.17 257.96 32.99 256.66 36.07C255 40.02 254.26 44.15 254.29 48.43C254.29 48.55 254.3 48.67 254.3 48.8C254.29 49.75 254.19 49.86 253.31 49.99C251.86 50.21 250.41 50.46 248.96 50.66C245.2 51.2 241.48 51.95 237.77 52.77C236.96 52.95 236.68 52.9 236.41 51.87C234.44 44.34 235.85 37.55 240.79 31.52C241.53 30.62 242.37 29.81 243.15 28.94C243.71 28.33 244.39 28.02 245.23 27.9C249.23 27.34 253.22 26.69 257.25 26.34C259.07 26.17 260.9 25.97 262.8 25.78C262.62 26.57 262.09 27.02 261.69 27.54Z" id="e4brN3OCdv"></path><path d="M373.47 421.1C374.61 418.18 375.48 415.2 375.9 412.07C376.3 409.12 376.13 406.21 375.61 403.3C375.25 401.3 374.6 399.39 373.87 397.5C373.61 396.82 373.65 396.72 374.32 396.36C375.67 395.64 377.03 394.94 378.39 394.23C381.65 392.53 384.84 390.7 387.99 388.82C388.2 388.69 388.41 388.56 388.63 388.45C389.16 388.17 389.36 388.19 389.7 388.7C391 390.65 392.03 392.72 392.76 394.95C394.41 400.01 394.04 404.98 392.2 409.9C391.82 410.93 391.31 411.91 390.9 412.94C390.5 413.97 389.8 414.63 388.81 415.12C384.63 417.18 380.48 419.28 376.19 421.1C375.2 421.52 374.25 422.07 373.18 422.37C373.02 421.81 373.33 421.47 373.47 421.1Z" id="b8TkEb0Bn"></path><path d="M176.86 69.43C175.98 66.79 175.68 64.08 175.94 61.28C176.28 57.57 177.33 54.08 178.81 50.69C179.15 49.91 179.65 49.39 180.4 49C185.52 46.36 190.73 43.91 196.06 41.73C196.29 41.64 196.53 41.56 196.77 41.55C196.93 41.54 197.14 41.65 197.05 41.89C196.9 42.29 196.73 42.69 196.56 43.08C195.46 45.54 194.58 48.08 194.02 50.73C192.97 55.78 193.31 60.72 195.11 65.56C195.26 65.96 195.43 66.35 195.57 66.76C195.68 67.09 195.55 67.36 195.27 67.55C195.01 67.71 194.73 67.84 194.45 67.98C190.07 70.18 185.76 72.52 181.56 75.05C181.2 75.27 180.86 75.55 180.31 75.57C178.7 73.82 177.62 71.7 176.86 69.43Z" id="abpttpWng"></path><path d="M253.73 416.65C254.65 414.61 254.16 414.63 256.83 414.96C259.75 415.33 262.68 415.6 265.61 415.86C267.56 416.04 269.52 416.13 271.48 416.27C272.15 416.32 272.33 416.54 272.2 417.22C271.23 422.15 269.62 426.81 266.5 430.83C264.24 433.75 261.39 435.92 258.14 437.62C257.25 438.09 256.37 438.06 255.46 437.95C253.45 437.7 251.44 437.48 249.44 437.16C245.75 436.59 242.06 435.95 238.38 435.34C238.13 435.14 238.13 434.94 238.38 434.75C245.53 430.44 250.34 424.15 253.73 416.65Z" id="b22n2wJVxB"></path><path d="M341.03 431.74C343.6 427.82 345.07 423.52 345.62 418.87C346.01 415.56 346.07 412.26 345.67 408.96C345.65 408.78 345.65 408.59 345.64 408.41C345.63 408.07 345.78 407.82 346.11 407.71C346.46 407.59 346.8 407.47 347.15 407.35C351.75 405.82 356.34 404.28 360.82 402.44C361.11 402.32 361.4 402.23 361.69 402.13C361.97 402.02 362.17 402.15 362.3 402.37C362.42 402.58 362.49 402.82 362.57 403.05C363.92 406.85 364.64 410.75 364.33 414.79C363.98 419.45 362.21 423.57 359.34 427.25C358.94 427.77 358.41 427.99 357.81 428.18C353.83 429.42 349.86 430.68 345.83 431.74C344.22 432.15 342.62 432.56 341.02 432.98C340.78 433.04 340.56 433.15 340.31 433C340.4 432.5 340.76 432.14 341.03 431.74Z" id="a99I7RHFO"></path><path d="M67.91 255.71C72.63 258.43 77.65 260.31 83.02 261.28C85.08 261.65 87.14 261.89 89.23 261.95C89.66 261.96 90.09 261.96 90.52 261.99C91.5 262.05 91.55 262.09 91.72 263.01C92.06 264.82 92.35 266.64 92.73 268.44C93.38 271.49 94.09 274.54 94.78 277.59C94.85 277.89 94.94 278.18 95 278.48C95.08 278.94 94.94 279.14 94.43 279.21C90.82 279.69 87.22 279.76 83.6 279.32C81.39 279.06 79.25 278.55 77.19 277.73C73.92 276.43 71.21 274.41 69.11 271.55C68.66 270.94 68.36 270.28 68.24 269.55C67.82 267.01 67.41 264.47 67.03 261.93C66.79 260.35 66.59 258.77 66.4 257.18C66.31 256.48 66.17 255.77 66.35 255.01C67 255.08 67.44 255.44 67.91 255.71Z" id="doZTm6xiN"></path><path d="M100.29 139.19C102.96 142.75 106.29 145.62 109.92 148.04C109.84 148.77 109.5 149.22 109.24 149.7C107.06 153.68 105.12 157.79 103.32 161.96C103.13 162.41 102.93 162.86 102.72 163.3C102.53 163.72 102.24 163.77 101.83 163.59C93.71 160.09 88.21 154.34 86.31 145.51C85.72 142.77 85.72 142.77 87.02 140.28C89.19 136.15 91.48 132.09 94 128.17C94.23 127.82 94.38 127.39 94.92 127.17C95.85 131.61 97.6 135.61 100.29 139.19Z" id="b6uGH9YYR4"></path><path d="M138.42 77.99C138.45 78.6 138.47 79.22 138.47 79.83C138.49 83.85 139.08 87.77 140.39 91.58C141.49 94.79 143.04 97.77 145.16 100.45C145.42 100.78 145.68 101.13 145.95 101.46C146.19 101.74 146.18 102.01 145.95 102.27C145.83 102.41 145.69 102.53 145.55 102.66C141.99 105.96 138.63 109.44 135.37 113.04C135.17 113.27 134.96 113.5 134.75 113.71C134.29 114.17 134.12 114.2 133.66 113.83C132.94 113.25 132.21 112.68 131.54 112.05C127.63 108.32 125.3 103.78 124.44 98.44C124.07 96.12 124.08 93.8 124.11 91.47C124.12 90.88 124.32 90.42 124.74 90C128.87 85.88 133.1 81.89 137.55 78.11C137.73 77.95 137.95 77.85 138.13 77.73C138.26 77.84 138.41 77.91 138.42 77.99Z" id="a2vqMtuT0K"></path><path d="M223.53 56.46C218.16 58 212.97 60.02 207.73 61.93C207.69 61.94 207.62 61.9 207.47 61.87C206.3 59.76 205.57 57.45 205.18 55.01C204.43 50.37 205.34 46 207.37 41.82C208.18 40.16 209.15 38.6 210.23 37.11C210.59 36.61 210.98 36.19 211.62 35.98C217.21 34.14 222.87 32.55 228.6 31.22C228.77 31.18 228.95 31.23 229.17 31.24C229.23 31.89 228.76 32.26 228.49 32.69C226.61 35.8 225.1 39.08 224.19 42.61C223.19 46.53 223.01 50.47 223.88 54.44C224 54.97 224.07 55.51 224.18 56.14C223.85 56.3 223.7 56.41 223.53 56.46Z" id="aQzjS5RJc"></path><path d="M405.41 376.89C407.87 374.97 410.29 372.99 412.72 371.04C412.96 370.84 413.2 370.64 413.44 370.46C413.67 370.29 413.89 370.32 414.1 370.5C414.19 370.59 414.27 370.68 414.35 370.77C417.26 374.27 419.32 378.19 420.22 382.67C420.88 385.95 420.87 389.25 420.23 392.54C419.65 395.57 419.64 395.57 417.17 397.36C413.35 400.14 409.48 402.83 405.52 405.39C405.02 405.72 404.59 406.21 403.79 406.22C403.94 404.07 404.56 402.01 404.58 399.88C404.6 397.67 404.66 395.47 404.32 393.28C403.99 391.15 403.44 389.09 402.69 387.08C401.93 385.07 400.88 383.2 399.73 381.17C401.7 379.69 403.58 378.33 405.41 376.89Z" id="a5Cofq5fyN"></path><path d="M163.85 87.03C161.58 88.79 159.34 90.61 157.09 92.4C156.9 92.55 156.72 92.73 156.52 92.87C156.03 93.24 155.84 93.26 155.39 92.88C154.36 92.01 153.42 91.04 152.62 89.94C150.73 87.37 149.71 84.45 149.18 81.32C148.49 77.21 148.94 73.14 149.57 69.07C149.68 68.38 150.12 68.01 150.62 67.64C152.9 65.99 155.16 64.29 157.49 62.71C160.07 60.95 162.72 59.29 165.34 57.6C165.6 57.43 165.87 57.3 166.24 57.11C166.43 57.74 166.14 58.23 166 58.7C165.2 61.43 164.82 64.23 164.81 67.05C164.81 71.64 165.77 76.05 167.91 80.15C168.36 81.02 168.83 81.88 169.39 82.91C167.48 84.32 165.64 85.64 163.85 87.03Z" id="b3NktMgo42"></path><path d="M147.78 392.99C148.27 392.92 148.75 392.83 149.23 392.77C152.98 392.26 156.48 390.99 159.82 389.26C163.1 387.56 166.07 385.4 168.91 383.04C169.19 382.81 169.46 382.56 169.75 382.33C169.96 382.16 170.2 382.16 170.43 382.29C170.69 382.45 170.95 382.61 171.2 382.78C175.34 385.63 179.58 388.34 183.93 390.86C184.2 391.01 184.46 391.17 184.7 391.35C184.94 391.53 184.92 391.77 184.77 391.99C184.63 392.19 184.47 392.39 184.31 392.57C181.31 395.93 178 398.92 174.06 401.15C170.77 403.01 167.25 404.16 163.46 404.49C162.24 404.6 161.22 404.33 160.19 403.63C155.68 400.56 151.24 397.39 146.94 394.03C146.67 393.82 146.26 393.71 146.23 393.16C146.72 392.97 147.27 393.07 147.78 392.99Z" id="bQ01u3DbN"></path><path d="M212.04 404.7C209.59 409.54 206.35 413.71 201.67 416.62C198.33 418.7 194.66 419.79 190.74 420.09C190.08 420.14 189.55 419.9 188.99 419.64C185.2 417.91 181.47 416.05 177.79 414.08C177.52 413.94 177.24 413.82 176.99 413.64C176.08 412.98 174.84 412.85 174.15 411.84C175.1 411.24 176.23 411.2 177.27 410.89C183.23 409.09 188.26 405.84 192.48 401.29C193.4 400.3 194.25 399.25 195.12 398.22C195.91 397.27 195.91 397.24 197.1 397.8C200.82 399.55 204.56 401.22 208.39 402.73C209.63 403.22 210.87 403.73 212.08 404.21C212.06 404.46 212.1 404.6 212.04 404.7Z" id="a6BAz0aB7"></path><path d="M241.76 413.26C240.18 417.49 238.07 421.41 234.94 424.71C231.68 428.13 227.74 430.36 223.16 431.49C222.67 431.61 222.23 431.65 221.73 431.51C216.25 429.98 210.8 428.33 205.44 426.39C205.16 426.29 204.9 426.16 204.62 426.05C204.86 425.52 205.33 425.53 205.73 425.4C209.32 424.22 212.58 422.46 215.46 419.99C218 417.81 220.08 415.26 221.82 412.42C222.46 411.38 223.05 410.3 223.66 409.24C224.16 408.37 224.28 408.29 225.28 408.56C227.23 409.07 229.18 409.6 231.13 410.14C234.08 410.96 237.07 411.59 240.07 412.22C240.66 412.35 241.25 412.52 241.85 412.67C241.81 412.91 241.82 413.1 241.76 413.26Z" id="a2dhGPr5Ge"></path><path d="M144.35 383.84C141.58 384.42 138.79 384.75 135.96 384.29C135.4 384.2 134.91 384.08 134.47 383.68C130.06 379.69 125.68 375.66 121.62 371.31C121.51 371.18 121.45 371.01 121.36 370.85C121.65 370.45 122.03 370.64 122.35 370.67C130.71 371.31 138.4 369.39 145.34 364.63C147.41 363.22 146.78 363.02 148.76 364.84C152.05 367.87 155.43 370.8 158.91 373.62C159.34 373.96 159.85 374.21 160.07 374.86C155.6 379.17 150.56 382.52 144.35 383.84Z" id="iCNgB7GfA"></path><path d="M274.29 439.39C273.98 439.39 273.68 439.37 273.38 439.32C273.28 439.31 273.15 439.21 273.11 439.12C273.08 439.03 273.1 438.87 273.17 438.79C273.32 438.61 273.51 438.44 273.69 438.28C278.82 433.95 282.03 428.39 283.99 422.05C284.46 420.53 284.79 418.97 285.19 417.43C285.36 416.77 285.5 416.67 286.21 416.62C286.33 416.61 286.46 416.61 286.58 416.61C290.32 416.48 294.06 416.37 297.79 416.22C299.26 416.16 300.73 416 302.19 415.92C302.91 415.88 303.1 416.06 303.09 416.75C303.06 425.56 300.36 433.13 292.99 438.54C292.11 439.19 291.22 439.51 290.11 439.49C287.54 439.43 284.96 439.47 282.38 439.47C282.39 439.44 282.39 439.42 282.39 439.4C279.69 439.4 276.99 439.4 274.29 439.39Z" id="avSj6o79c"></path><path d="M307.71 437.83C311.32 434.19 313.35 429.72 314.6 424.84C315.39 421.74 315.7 418.57 316.03 415.41C316.13 414.46 316.13 414.43 317.1 414.25C318.72 413.95 320.35 413.68 321.98 413.42C325.61 412.83 329.2 412.07 332.78 411.26C333.48 411.11 333.67 411.24 333.72 411.97C334.03 416.26 334.15 420.53 333.05 424.75C331.94 429.03 329.77 432.63 326.28 435.41C325.59 435.97 324.86 436.34 323.98 436.46C319.79 436.99 315.63 437.72 311.41 438.07C310.14 438.18 308.88 438.47 307.44 438.35C307.6 438.03 307.63 437.91 307.71 437.83Z" id="bgYxC2jfJ"></path><path d="M92.79 332.85C91.98 332.59 91.41 332.16 91.01 331.4C89.36 328.32 87.64 325.28 86 322.2C85.13 320.58 84.36 318.91 83.55 317.26C83.42 316.99 83.31 316.7 83.25 316.4C83.21 316.21 83.35 316.04 83.56 316.1C83.91 316.2 84.25 316.34 84.59 316.48C89.53 318.59 94.7 319.37 100.04 318.92C102.92 318.68 105.73 318.02 108.46 317.09C110.39 316.43 110.2 316.62 111 318.04C113.3 322.09 115.73 326.07 118.36 329.92C118.53 330.17 118.72 330.42 118.87 330.68C119.05 331.01 118.93 331.27 118.63 331.45C118.37 331.6 118.09 331.74 117.81 331.87C113.53 333.84 109.07 335.04 104.36 334.89C100.33 334.98 96.54 334.06 92.79 332.85Z" id="b3cvc9FNa"></path><path d="M57.93 531.56C59.35 532.15 60.67 532.92 61.91 533.83C62.75 534.46 63.45 535.21 64.06 536.08C65.16 537.64 65.07 540.09 63.95 541.61C63.29 542.52 62.44 543.21 61.5 543.79C59.32 545.12 56.92 545.85 54.43 546.26C49.87 547.01 45.39 546.55 40.99 545.21C39.11 544.64 37.35 543.78 35.72 542.66C34.96 542.14 34.28 541.52 33.66 540.84C31.74 538.74 31.78 535.47 34.04 533.43C35.1 532.47 36.32 531.77 37.64 531.25C39.86 530.35 42.16 529.7 44.58 529.67C45.38 529.66 46.18 529.67 46.97 529.67C50.74 529.58 54.42 530.11 57.93 531.56Z" id="a3EN4a6xxt"></path><path d="M33.16 411.52C32.19 407.34 31.25 403.16 30.3 398.98C30.1 398.13 30.08 397.33 30.5 396.49C32.52 392.46 34.94 388.73 38.18 385.56C41.55 382.27 45.5 380.07 50.19 379.25C51.35 379.04 52.5 379.01 53.66 378.99C54.16 378.98 54.4 379.23 54.55 379.72C55.48 382.7 56.45 385.66 57.4 388.64C57.6 389.29 57.51 389.47 56.87 389.79C55.78 390.35 54.66 390.86 53.58 391.44C48.33 394.25 43.71 397.82 40.17 402.67C37.68 406.09 35.96 409.85 34.98 413.95C34.84 414.54 34.76 415.15 34.35 415.85C33.93 414.32 33.49 412.93 33.16 411.52Z" id="c3dWsNz8M"></path><path d="M57.84 440.93C58.33 438.53 58.83 436.13 59.33 433.73C59.38 433.49 59.45 433.26 59.51 433.02C59.77 432.03 59.87 431.91 60.85 431.87C63.77 431.74 66.58 432.22 69.28 433.4C72.62 434.86 75.27 437.19 77.58 439.94C79.33 442.01 80.76 444.3 82.05 446.68C82.31 447.17 82.48 447.65 82.39 448.25C81.67 452.6 80.98 456.96 80.28 461.31C80.26 461.43 80.23 461.55 80.19 461.67C80.18 461.71 80.12 461.77 80.08 461.77C79.97 461.76 79.8 461.77 79.76 461.7C79.47 461.3 79.2 460.89 78.94 460.48C77.05 457.53 74.96 454.74 72.37 452.34C69.68 449.85 66.64 447.96 63.04 447.04C61.49 446.65 59.92 446.44 58.31 446.49C57.83 446.5 57.33 446.6 56.77 446.26C57.12 444.51 57.47 442.72 57.84 440.93Z" id="a1oALZCKjk"></path><path d="M25.7 369.76C25.57 368.47 25.43 367.19 25.29 365.91C25.23 365.35 25.33 364.83 25.57 364.31C27.47 360.32 29.93 356.76 33.54 354.12C36.54 351.93 39.88 350.67 43.62 350.6C44.91 350.57 46.2 350.6 47.49 350.65C48.49 350.69 48.52 350.71 48.68 351.66C49.03 353.71 49.33 355.77 49.67 357.83C49.89 359.16 50.14 360.48 50.37 361.81C50.43 362.17 50.47 362.54 50.48 362.91C50.49 363.17 50.32 363.39 50.06 363.43C49.64 363.5 49.2 363.51 48.78 363.55C43.63 364.04 38.98 365.74 35.1 369.25C31.93 372.11 29.79 375.65 28.3 379.62C28.05 380.29 27.96 381.04 27.32 381.84C26.65 377.67 26.1 373.72 25.7 369.76Z" id="a4P7q0Osbt"></path><path d="M60.83 406.25C60.76 406.78 60.53 407.16 60.15 407.5C55.25 411.87 52.29 417.46 50.04 423.51C48.36 428 47.27 432.65 46.39 437.35C45.86 440.18 45.44 443.03 45.21 445.9C45.2 445.99 45.09 446.12 45.02 446.13C44.92 446.15 44.75 446.1 44.71 446.02C44.53 445.7 44.38 445.36 44.24 445.03C42.19 440.1 40.29 435.12 38.6 430.06C38.26 429.08 38.28 428.2 38.58 427.22C42.24 415.33 49.19 405.91 59.67 399.16C60.11 398.87 60.55 398.26 61.1 398.56C61.72 398.89 61.56 399.62 61.53 400.23C61.53 400.29 61.53 400.35 61.52 400.41C61.54 400.42 61.56 400.42 61.58 400.42C61.32 402.36 61.06 404.31 60.83 406.25Z" id="i6pBGxY9U"></path><path d="M61.12 501.54C58.97 499.19 56.68 496.97 54.03 495.16C51.68 493.55 49.18 492.3 46.37 491.73C45.59 491.57 45.45 491.34 45.68 490.56C46.49 487.73 47.33 484.91 48.17 482.1C48.42 481.27 48.53 481.23 49.33 481.3C52.07 481.54 54.62 482.4 56.99 483.72C64.31 487.81 69.46 493.71 71.98 501.8C72.35 503 72.46 504.14 72.18 505.38C71.36 509.03 70.64 512.69 69.87 516.35C69.82 516.58 69.75 516.83 69.34 517C68.13 510.98 65.16 505.97 61.12 501.54Z" id="kZfZX3ws"></path><path d="M23.6 347.5C23.49 345.67 23.34 343.84 23.28 342C23.25 341.09 23.38 340.17 23.42 339.25C23.5 337.54 23.57 335.82 23.62 334.11C23.66 332.66 24.08 331.38 24.92 330.17C26.46 327.94 28.1 325.83 30.26 324.15C34 321.23 38.22 320.36 42.74 321.51C47.3 322.66 46.36 321.95 46.62 326.25C46.79 328.94 46.68 331.64 47.04 334.32C47.09 334.68 47.08 335.05 47.08 335.42C47.07 335.81 46.86 335.98 46.5 335.89C46.39 335.85 46.27 335.81 46.16 335.77C40.72 333.58 35.97 334.89 31.71 338.63C29.01 340.99 26.86 343.81 24.98 346.85C24.67 347.35 24.49 347.97 23.95 348.3C23.55 348.13 23.62 347.79 23.6 347.5Z" id="b50CWpezDy"></path><path d="M83.23 430.5C81.83 427.07 80.07 423.86 77.62 421.05C74.05 416.96 69.59 414.49 64.21 413.69C63.97 413.66 63.72 413.64 63.48 413.6C63.21 413.56 63.05 413.37 63.02 413.11C63 412.87 63.02 412.62 63.05 412.38C63.4 409.27 63.76 406.17 64.12 403.06C64.37 400.85 64.57 400.64 66.77 400.46C68.7 400.3 70.55 400.66 72.33 401.42C74.16 402.2 75.77 403.31 77.25 404.62C80.59 407.58 83.16 411.16 85.52 414.91C85.83 415.41 85.9 415.93 85.85 416.49C85.67 418.63 85.51 420.77 85.31 422.91C85.12 424.98 84.9 427.06 84.69 429.13C84.58 430.23 84.45 431.32 84.32 432.42C84.24 432.44 84.15 432.47 84.06 432.5C83.79 431.83 83.51 431.17 83.23 430.5Z" id="bcHUrSAtH"></path><path d="M72.11 486.79C70.72 483.9 68.97 481.24 66.83 478.85C62.96 474.52 58.2 471.64 52.61 470.11C52.26 470.02 51.89 469.95 51.55 469.82C51.32 469.73 51.14 469.54 51.19 469.25C51.23 469.01 51.29 468.78 51.35 468.54C52 466.11 52.71 463.7 53.29 461.26C53.58 460.05 53.81 460.03 54.93 460.09C58.74 460.28 62.3 461.3 65.55 463.31C68.15 464.91 70.26 467.03 72.02 469.51C74.21 472.59 75.66 476.02 76.81 479.6C76.97 480.09 76.97 480.56 76.88 481.05C76.26 484.43 75.64 487.8 75 491.17C74.94 491.53 74.8 491.87 74.64 492.42C73.72 490.36 72.96 488.55 72.11 486.79Z" id="eXpMCNXr"></path><path d="M59.76 227.6C56.1 226.27 52.76 224.37 49.73 221.91C49.03 221.35 48.6 220.68 48.38 219.81C47.24 215.31 48.18 211.31 51.21 207.81C53.57 205.07 56.57 203.17 59.79 201.6C60.4 201.3 60.56 201.33 61.07 201.88C63.06 204.04 65.03 206.23 67.01 208.4C67.32 208.73 67.28 209.03 67.03 209.38C66.49 210.12 65.96 210.87 65.48 211.66C63.13 215.47 62.02 219.61 62.28 224.09C62.36 225.49 62.63 226.88 62.84 228.47C61.67 228.4 60.72 227.95 59.76 227.6Z" id="c1NdN8PBqO"></path><path d="M63.76 532.19C61.23 528.63 58.35 525.39 54.86 522.72C51.84 520.4 48.59 518.43 45.4 516.36C43.86 515.36 42.32 514.36 40.79 513.33C40.07 512.85 40.05 512.76 40.29 511.98C41.05 509.46 41.81 506.94 42.6 504.42C42.85 503.62 42.95 503.56 43.77 503.6C45.63 503.69 47.4 504.16 49.09 504.92C51.06 505.8 52.83 507 54.45 508.43C57.5 511.14 59.94 514.36 62.08 517.81C63.86 520.68 65.39 523.68 66.83 526.73C67.15 527.41 67.29 528.04 67.09 528.83C66.6 530.79 66.24 532.78 65.83 534.76C65.79 534.94 65.72 535.11 65.36 535.16C64.94 534.15 64.43 533.13 63.76 532.19Z" id="c1hBrlDOIx"></path><path d="M83.37 233.93C84.45 233.64 85.06 234.07 85.59 234.99C87.14 237.66 88.46 240.42 88.96 243.49C89.66 247.83 88.43 251.61 85.57 254.91C85.19 255.36 84.73 255.55 84.14 255.61C82.56 255.77 80.97 255.97 79.4 256.2C78.85 256.28 78.45 256.11 78.08 255.74C77.01 254.7 76.15 253.51 75.49 252.19C73.79 248.84 72.89 245.32 73.27 241.53C73.51 239.18 74.3 237 75.41 234.93C75.67 234.43 76.03 234.23 76.59 234.25C77.39 234.29 78.19 234.26 78.98 234.26C80.45 234.25 81.94 234.31 83.37 233.93Z" id="bJLz18Hw9"></path><path d="M85.63 397.44C84 394.75 82.15 392.25 79.68 390.25C75.97 387.24 71.81 386.44 67.23 387.62C66.76 387.74 66.29 387.88 65.87 387.99C65.37 387.71 65.57 387.3 65.6 386.98C65.84 384.17 66.11 381.37 66.38 378.56C66.41 378.25 66.49 377.95 66.53 377.65C66.58 377.19 66.79 376.85 67.18 376.61C69.92 374.9 72.8 373.86 76.08 374.61C77.67 374.97 79.06 375.72 80.35 376.67C81.95 377.84 83.27 379.3 84.43 380.89C85.39 382.23 86.25 383.65 87.15 385.04C87.48 385.57 87.65 386.13 87.62 386.78C87.44 390.45 87.3 394.13 87.13 397.81C87.11 398.23 87.01 398.65 86.95 399.07C86.85 399.1 86.75 399.12 86.64 399.15C86.3 398.58 85.97 398 85.63 397.44Z" id="a23bnYQQpV"></path><path d="M79.96 210.88C82.27 210.52 84.54 210.05 86.79 209.44C87.55 209.23 87.69 209.27 88 209.84C89.2 212.01 89.91 214.27 89.91 216.83C89.91 221.48 88.09 225.39 85.54 229.09C85.16 229.64 84.68 229.95 84.06 230.07C80.96 230.65 77.85 230.76 74.72 230.48C74.1 230.42 73.96 230.16 74.26 229.62C75.08 228.11 75.81 226.57 76.36 224.94C77.68 221.06 77.53 217.23 76.16 213.41C75.97 212.89 75.76 212.38 75.57 211.87C75.54 211.81 75.57 211.75 75.58 211.43C77.06 211.25 78.52 211.1 79.96 210.88Z" id="eLBKsdLWB"></path><path d="M96.21 250.87C97.82 247.97 99.33 245.03 100.38 241.88C101.08 239.78 101.62 237.65 101.68 235.42C101.74 233.15 101.32 231.04 100.07 229.11C99.72 228.56 99.76 228.43 100.26 228.06C101.24 227.33 102.25 226.63 103.21 225.87C104.6 224.76 105.83 223.47 106.99 222.12C107.31 221.76 107.55 221.3 108.14 221.14C110.39 222.79 112.17 224.81 112.85 227.65C113.3 229.49 113.13 231.3 112.68 233.1C112.39 234.3 111.99 235.46 111.39 236.53C107.95 242.69 103.38 247.8 97.3 251.48C96.84 251.77 96.33 251.98 95.84 252.22C95.81 252.23 95.74 252.17 95.62 252.12C95.66 251.64 95.99 251.27 96.21 250.87Z" id="c1lwohbq7X"></path><path d="M26.59 308.4C26.24 307.83 26.46 307.22 26.55 306.67C26.92 304.38 27.35 302.09 27.76 299.79C27.79 299.61 27.86 299.44 27.89 299.26C28.39 296.56 28.09 297.15 30.45 295.91C31.81 295.2 33.27 294.74 34.8 294.48C37.63 294 40.29 294.44 42.76 295.91C43.66 296.44 44.54 297.02 45.28 297.76C47.97 300.44 47.61 299.7 47.24 302.96C47 305.03 46.94 307.12 46.78 309.2C46.74 309.67 46.86 310.17 46.54 310.77C40.67 305.88 35.31 304.42 26.59 308.4Z" id="e1XiRPsWen"></path><path d="M64.02 234.89C63.03 236.87 62.2 238.9 61.77 241.09C61.2 244 61.38 246.82 62.61 249.54C62.74 249.82 62.88 250.09 63 250.38C63.12 250.69 62.97 250.99 62.61 251.05C59.52 251.65 56.62 251.35 54.12 249.22C52.85 248.13 51.82 246.84 51.02 245.37C50.84 245.05 50.67 244.71 50.59 244.36C50.12 242.33 49.73 240.27 49.81 238.17C49.9 235.96 50.25 233.78 51.2 231.75C51.56 230.97 51.98 230.22 52.44 229.49C53.04 228.53 53.17 228.51 54.17 229.15C56.89 230.88 59.84 232.03 62.95 232.82C63.53 232.96 64.1 233.15 64.67 233.31C64.65 233.98 64.26 234.41 64.02 234.89Z" id="a17s79Yht1"></path><path d="M64.7 198.08C64.36 198.3 64.18 198 63.96 197.82C63.3 197.27 62.67 196.69 61.97 196.19C58.92 194.01 55.59 193.55 52.02 194.71C50.26 195.28 48.65 196.16 47.12 197.19C45.04 198.61 43.18 200.3 41.43 202.11C41.06 202.49 40.8 203.03 40.18 203.12C39.81 202.51 39.83 201.82 39.8 201.15C39.71 199.25 39.8 197.36 40.12 195.47C40.27 194.61 40.59 193.83 41.02 193.08C42.67 190.19 45.11 188.22 48.23 187.12C50.55 186.3 52.97 185.85 55.44 185.98C57.94 186.1 60.25 186.9 62.26 188.43C63.55 189.42 64.49 190.69 64.87 192.31C64.93 192.54 65.06 192.75 65.16 192.97C65.26 193.04 65.3 193.12 65.28 193.21C65.26 193.29 65.23 193.34 65.2 193.34C65.2 194.93 65.09 196.51 64.7 198.08Z" id="absqomc2w"></path><path d="M67.84 359.54C67.94 357.64 68.07 355.74 68.19 353.85C68.23 353.36 68.29 352.87 68.34 352.38C68.38 351.85 68.6 351.49 69.14 351.28C71.58 350.37 74.06 349.85 76.7 350.18C79.17 350.5 81.28 351.51 83.17 353.05C84.8 354.38 86.14 355.97 87.32 357.71C87.68 358.23 87.91 358.76 87.9 359.41C87.89 362.54 87.9 365.66 87.9 368.79C87.51 369.01 87.35 368.7 87.18 368.47C86.31 367.27 85.36 366.15 84.31 365.11C81.62 362.46 78.39 361 74.63 360.74C73.03 360.62 71.45 360.86 69.88 361.19C69.23 361.32 68.58 361.47 67.93 361.62C67.64 360.88 67.8 360.21 67.84 359.54Z" id="k2zs5h9Rv"></path><path d="M85.71 342.94C84.18 341.71 82.56 340.61 80.76 339.8C78.12 338.61 75.39 338.12 72.53 338.89C71.71 339.11 70.93 339.49 70.14 339.8C69.81 339.93 69.53 340.22 69.12 340.17C68.78 339.9 68.91 339.52 68.93 339.18C69.04 336.12 69.17 333.06 69.3 330C69.35 328.87 69.38 328.85 70.52 328.5C73.72 327.52 76.92 327.4 80.05 328.71C82.72 329.83 84.82 331.68 86.59 333.93C86.83 334.23 86.95 334.56 86.98 334.93C87.25 337.86 87.38 340.8 87.32 343.74C87.32 343.77 87.25 343.81 87.11 343.93C86.58 343.77 86.17 343.31 85.71 342.94Z" id="b1HpQQovoS"></path><path d="M68.22 195.84C69.9 197.4 71.8 198.58 73.95 199.38C74.52 199.6 75.11 199.78 75.69 199.97C77.2 200.49 78.75 200.82 80.37 200.71C81.04 200.67 81.72 200.68 82.39 200.71C85.88 200.88 89.18 200.07 92.37 198.72C93.37 198.3 94.38 197.9 95.37 197.5C95.64 197.79 95.45 198.03 95.33 198.2C92.68 201.89 89.42 204.87 85.2 206.71C82.33 207.95 79.3 208.34 76.22 208.03C73.36 207.74 70.74 206.73 68.78 204.48C67.42 202.93 66.52 201.13 65.97 199.17C65.65 198.05 65.45 196.91 65.53 195.72C65.59 194.93 65.54 194.13 65.55 193.33C65.55 193.33 65.54 193.33 65.54 193.34C66.73 194.45 67.63 195.28 68.22 195.84Z" id="a5bneKOEG"></path><path d="M47.78 284.01C44.39 281 40.45 279.69 35.93 280.18C34.84 280.3 33.75 280.34 32.78 280.67C32.42 280.16 32.67 279.81 32.77 279.51C33.63 276.89 34.54 274.29 35.4 271.68C35.67 270.83 36.21 270.44 37.06 270.19C39.15 269.56 41.27 269.4 43.42 269.6C45.11 269.75 46.62 270.4 47.94 271.46C49.51 272.72 50.55 274.37 51.34 276.19C51.49 276.54 51.53 276.89 51.45 277.26C50.83 280 50.22 282.74 49.56 285.7C48.84 285.01 48.32 284.5 47.78 284.01Z" id="aaNPwvZb"></path><path d="M96.98 202.22C97.27 201.97 97.6 201.83 97.98 201.82C99.75 201.77 101.53 201.64 103.28 202.11C105.7 202.77 107.38 204.24 108.32 206.55C109.17 208.63 109.38 210.82 109.26 213.04C109.12 215.52 109.07 215.59 107.47 217.48C106.15 219.02 104.71 220.44 103.05 221.61C102.46 222.02 101.82 222.38 101.24 222.73C100.74 222.4 100.94 222.02 100.95 221.7C100.96 221.39 101.02 221.09 101.06 220.78C101.36 218.95 101.32 217.13 100.96 215.31C100.31 211.97 98.49 209.48 95.57 207.8C94.63 207.26 93.62 206.84 92.4 206.25C94.05 204.8 95.52 203.51 96.98 202.22Z" id="boCQGBkVK"></path><path d="M79.91 481.33C80.62 477.16 81.35 473 82.04 468.84C82.15 468.15 82.4 467.55 82.83 467.02C84.54 464.9 86.57 463.15 88.95 461.81C89.59 461.44 89.76 461.47 90.16 462.06C92.15 464.92 94.13 467.8 96.11 470.68C96.38 471.07 96.29 471.3 95.82 471.52C94.77 472.02 93.68 472.44 92.66 472.99C88.31 475.34 84.87 478.69 82.07 482.73C81.13 484.09 80.3 485.52 79.53 486.99C78.82 487.03 79 486.61 79.13 486.22C79.39 484.59 79.64 482.95 79.91 481.33Z" id="b3G0m3FowE"></path><path d="M59.95 413.27C59.44 415.46 59.24 417.71 58.88 419.94C58.55 422.04 58.14 424.13 57.73 426.23C57.29 428.5 56.83 430.77 56.36 433.03C55.73 436.01 55.13 439 54.43 441.97C53.38 446.43 52.27 450.86 51.17 455.31C51.1 455.6 51 455.89 50.9 456.18C50.84 456.35 50.75 456.53 50.53 456.49C50.42 456.48 50.29 456.4 50.23 456.31C49.76 455.53 49.29 454.73 48.84 453.94C48.02 452.5 47.26 451.04 46.39 449.63C45.97 448.97 45.98 448.41 46.3 447.74C47.14 445.97 47.98 444.2 48.77 442.41C49.95 439.72 51.13 437.03 52.22 434.3C53.62 430.78 55 427.25 56.24 423.67C57.24 420.78 58.02 417.82 58.9 414.9C59.2 413.87 59.49 412.83 59.82 411.65C60.1 412.3 60.06 412.8 59.95 413.27Z" id="fm3cmcSwx"></path><path d="M45.73 231.53C45.16 233.88 45.15 236.27 45.45 238.65C45.6 239.74 45.81 240.82 45.99 241.91C46.03 242.14 46.06 242.38 45.87 242.63C45.72 242.58 45.51 242.57 45.39 242.47C43.01 240.49 41 238.23 39.69 235.37C38.45 232.64 38.29 229.8 38.78 226.92C39.1 224.98 39.85 223.15 40.84 221.44C41.12 220.95 41.36 220.87 41.68 221.19C43.63 223.09 45.89 224.55 48.29 225.79C48.39 225.84 48.45 225.96 48.65 226.2C47.17 227.77 46.21 229.53 45.73 231.53Z" id="c3FfRrFiq4"></path><path d="M97.76 190.63C98.74 187.58 101.16 185.03 105.04 184.83C108.24 184.66 107.57 184.39 109.22 187.03C110.59 189.23 111.53 191.61 112.19 194.12C112.27 194.46 112.45 194.8 112.14 195.15C111.51 195.09 111.06 194.63 110.53 194.34C108.74 193.36 106.9 192.62 104.82 192.52C102.22 192.39 100.02 193.26 98.1 194.94C97.68 195.31 97.28 195.67 96.86 196.04C96.64 195.74 96.66 195.42 96.8 195.1C97.11 193.61 97.29 192.07 97.76 190.63Z" id="aB7xsxDn0"></path><path d="M79.71 324.85C79.05 324.3 78.41 323.74 77.78 323.17C76.89 322.36 76.17 321.34 75.45 320.36C72.87 316.84 71.5 312.84 70.64 308.58C69.96 305.19 69.93 301.8 69.99 298C70.47 299.1 70.6 299.91 70.81 300.71C71.75 304.19 72.9 307.61 74.25 310.96C76.11 315.57 78.53 319.89 81.32 324.01C81.84 324.76 82.38 325.5 82.92 326.24C83.11 326.5 83.21 326.77 83.23 327.08C83.23 327.08 83.23 327.08 83.23 327.08C81.6 326.18 80.43 325.44 79.71 324.85Z" id="a4vNhUXlsl"></path><path d="M63.86 180.12C63.15 179.55 62.37 179.05 61.6 178.56C60.77 178.03 59.83 177.74 58.9 177.44C58.03 177.16 57.13 177.15 56.3 177C56.19 176.67 56.32 176.53 56.48 176.45C59.31 174.97 62.21 173.68 65.32 172.94C65.62 172.87 65.92 172.73 66.21 172.73C67.16 172.75 68.09 172.12 69.04 172.65C68.98 173.53 68.49 174.25 68.18 175.04C67.38 177.09 66.82 179.22 66.33 181.36C66.28 181.59 66.32 181.85 65.96 182.04C65.29 181.42 64.61 180.72 63.86 180.12Z" id="e34vNcb9O9"></path><path d="M79.53 486.99C79.53 487.43 79.33 487.79 79.05 488.11C78.69 487.27 78.69 487.27 79.13 486.22C79.23 486.49 79.2 486.84 79.53 486.99Z" id="f5i5TWFATW"></path><path d="M96.86 196.04C96.74 196.23 96.58 196.21 96.52 196.03C96.42 195.68 96.54 195.36 96.8 195.1C96.82 195.41 96.84 195.73 96.86 196.04Z" id="c12a72WV8k"></path><path d="M238.38 435.34C238.22 435.32 237.93 435.33 237.91 435.27C237.82 434.9 238.08 434.79 238.38 434.75C238.38 434.95 238.38 435.14 238.38 435.34Z" id="afvgoPfeM"></path><path d="M62.19 393.39C62.28 393.61 62.25 393.93 62.05 393.93C61.86 393.94 61.8 393.63 61.87 393.4C61.98 393.4 62.09 393.4 62.19 393.39Z" id="b3y85IxkJv"></path><path d="M65.16 192.97C65.28 193.09 65.41 193.21 65.54 193.34C65.54 193.34 65.54 193.33 65.54 193.33C65.43 193.34 65.31 193.34 65.2 193.34C65.18 193.21 65.17 193.09 65.16 192.97Z" id="gpzfeQx1R"></path><path d="M83.37 327.17C83.35 327.29 83.29 327.26 83.23 327.08C83.23 327.08 83.23 327.08 83.23 327.08C83.33 327.13 83.38 327.16 83.37 327.17Z" id="a4VR138Xk6"></path><path d="M166.68 221.33C161.29 218.98 156.52 215.59 152.36 211.16C148.24 206.73 144.96 201.33 142.51 194.94C140.05 188.56 138.83 181.37 138.83 173.36C138.83 165.35 140.03 158.09 142.44 151.56C144.84 145.04 148.17 139.42 152.42 134.71C156.63 130.05 161.6 126.45 167.34 123.9C173.07 121.36 179.2 120.09 185.72 120.09C190.57 120.09 194.96 120.7 198.89 121.92C202.83 123.15 205.87 124.71 205.87 124.71C205.87 124.71 211.25 126.22 213.02 119.8C213.36 119.69 216.86 119.79 216.86 119.79C216.92 122.12 217.24 133.77 217.82 154.74C215.31 154.78 213.91 154.8 213.63 154.8C212.89 151.32 211.84 138.01 196.98 129.18C193.93 127.37 190.21 126.37 186.28 126.37C181.8 126.37 177.9 127.1 174.04 129.13C170.18 131.15 166.84 134.14 164.02 138.1C161.34 141.92 159.24 146.77 157.71 152.66C156.19 158.54 155.42 165.12 155.42 172.37C155.42 178.78 155.55 184.6 157.14 189.95C158.74 195.3 160.03 200.17 162.99 204.22C165.95 208.23 170.09 211.75 174.14 214.01C178.18 216.27 183.72 216.89 188.71 216.89C192.45 216.89 195.9 216.29 199.04 215.09C202.19 213.89 205.13 212.33 207.45 210.36C210.26 207.9 214.37 204.29 216.58 200.75C218.25 203.18 218.35 203.43 219.62 205.04C216.1 211.01 211.78 215.39 207.02 218.48C200.45 222.73 192.64 224.87 183.57 224.87C177.7 224.87 172.07 223.69 166.68 221.33Z" id="bOR5ymKhd"></path><path d="M299 223.57C298.99 221 298.98 219.58 298.98 219.3C302.52 219.05 303.4 219.08 305.74 218.35C309.79 216.99 308.7 212.39 308.7 212.39C308.17 210.85 305.5 203.15 300.7 189.28C280.35 189.28 269.04 189.28 266.78 189.28C265.51 192.67 264.47 195.63 263.67 198.15C262.88 200.67 262.16 202.99 261.53 205.13C260.94 207.21 260.53 208.9 260.3 210.21C260.07 211.52 259.96 212.59 259.96 213.41C259.69 218.06 265.14 219.61 268.73 219.81C268.73 220.06 268.73 221.31 268.73 223.57L241.22 223.57C241.21 221.27 241.21 220 241.21 219.74C242.39 219.65 247.29 218.75 250.53 213.01C251.53 211.58 252.51 209.61 253.46 207.09C258.32 194.15 263.68 179.61 269.53 163.48C275.39 147.34 281.02 132.98 285.61 120.38C285.87 120.38 287.19 120.38 289.57 120.38C309.54 173.75 320.63 203.41 322.85 209.34C323.53 211.23 324.3 212.76 325.17 213.92C327.66 218.62 332.86 219.76 333.96 219.81C333.96 220.06 333.94 221.3 333.92 223.55L299 223.57ZM284.5 142.77L268.75 183.71L298.54 183.65L284.5 142.77Z" id="b2uzjZL1y"></path><path d="M431.39 223.49L358.8 223.49C358.81 221.07 358.81 219.73 358.81 219.46C359.94 219.36 370.56 220.48 370.73 209.19C370.73 202.01 370.73 144.62 370.73 137.45C371.24 124.97 360.07 126.26 358.8 126.17C358.8 125.93 358.81 124.75 358.83 122.62L397.8 122.62C397.8 124.75 397.8 125.93 397.8 126.17C396.49 126.22 385.27 125.95 385.77 136.74C385.77 143.47 385.77 197.3 385.77 204.03C385.77 207.14 385.92 209.55 386.23 211.27C386.53 212.99 387.25 214.32 388.38 215.26C389.46 216.11 391.08 216.66 393.22 216.92C395.36 217.18 398.36 217.31 402.22 217.31C403.96 217.31 405.78 217.26 407.66 217.17C409.54 217.07 411.33 216.88 413.02 216.6C414.67 216.32 416.19 215.93 417.58 215.44C418.97 214.94 429.19 212.46 433.77 196.62C434.07 196.62 435.58 196.63 438.29 196.65L431.39 223.49Z" id="c6Fu8rIfkd"></path><path d="M190.97 283.32C188.07 278.77 185.45 274.84 183.11 271.53C180.77 268.22 178.23 264.8 175.49 261.28C175.16 261.28 173.5 261.28 170.51 261.28C170.51 270.54 170.51 275.68 170.51 276.71C170.51 277.51 170.63 278.21 170.89 278.81C171.14 279.42 171.68 279.88 172.5 280.2C172.91 280.36 173.63 280.51 174.66 280.65C175.69 280.78 176.55 280.87 177.26 280.89C177.26 281.05 177.26 281.86 177.26 283.32L156.7 283.32C156.7 281.86 156.7 281.05 156.7 280.89C157.25 280.84 158.04 280.76 159.08 280.65C160.12 280.53 160.85 280.39 161.26 280.2C161.94 279.91 162.44 279.47 162.75 278.9C163.06 278.33 163.21 277.6 163.21 276.71C163.21 273.19 163.21 245.06 163.21 241.54C163.21 240.74 163.1 240.03 162.87 239.42C162.64 238.8 162.1 238.33 161.26 238.01C160.69 237.8 159.94 237.62 159.03 237.44C158.11 237.27 157.34 237.17 156.7 237.12C156.7 236.96 156.7 236.15 156.7 234.68C170.17 234.68 177.65 234.68 179.15 234.68C181.2 234.68 183.13 234.9 184.94 235.32C186.74 235.74 188.38 236.42 189.84 237.36C191.26 238.27 192.39 239.47 193.23 240.94C194.08 242.41 194.5 244.19 194.5 246.27C194.5 248.14 194.22 249.8 193.65 251.24C193.08 252.68 192.23 253.92 191.11 254.98C190.08 255.96 188.85 256.81 187.41 257.53C185.97 258.25 184.38 258.86 182.64 259.36C185.04 262.54 187.04 265.21 188.63 267.38C190.21 269.55 192.16 272.19 194.47 275.3C195.47 276.67 196.38 277.68 197.19 278.33C198 278.98 198.81 279.52 199.61 279.93C200.21 280.22 200.95 280.45 201.84 280.61C202.73 280.77 203.47 280.87 204.07 280.89C204.07 281.05 204.07 281.86 204.07 283.32C196.21 283.32 191.84 283.32 190.97 283.32ZM183.5 240.08C181.81 238.36 179.42 237.5 176.34 237.5C175.95 237.5 174.01 237.5 170.51 237.5L170.51 258.33C173.2 258.33 174.7 258.33 175 258.33C178.15 258.33 180.78 257.33 182.88 255.31C184.99 253.29 186.04 250.55 186.04 247.08C186.04 244.14 185.19 241.8 183.5 240.08Z" id="a24thkhKCd"></path><path d="M311.72 237.67C310.39 238.01 309.45 238.37 308.87 238.73C308.05 239.3 307.5 240.4 307.21 242.02C306.93 243.64 306.78 245.7 306.78 248.19C306.78 250.56 306.78 262.43 306.78 283.8L303.8 283.8L274.32 244.01C274.32 259.06 274.32 267.42 274.32 269.1C274.32 271.91 274.5 274.07 274.85 275.58C275.21 277.08 275.75 278.16 276.48 278.8C277.01 279.3 278.1 279.77 279.74 280.2C281.39 280.64 282.47 280.87 283 280.89C283 281.05 283 281.86 283 283.32L263.05 283.32C263.05 281.86 263.05 281.05 263.05 280.89C263.67 280.84 264.7 280.62 266.17 280.22C267.63 279.82 268.54 279.46 268.91 279.14C269.71 278.5 270.26 277.52 270.56 276.21C270.85 274.9 271 272.65 271 269.48C271 267.08 271 247.91 271 245.52C271 244.47 270.82 243.42 270.45 242.37C270.09 241.31 269.59 240.5 268.98 239.93C268.16 239.18 267.04 238.53 265.64 237.99C264.23 237.46 263.09 237.17 262.23 237.12C262.23 236.96 262.23 236.15 262.23 234.69L276.12 234.69L303.46 271.77C303.46 257.89 303.46 250.18 303.46 248.64C303.46 245.8 303.27 243.63 302.91 242.11C302.54 240.59 302.02 239.58 301.33 239.08C300.69 238.64 299.65 238.22 298.2 237.81C296.74 237.4 295.64 237.17 294.89 237.12C294.89 236.96 294.89 236.15 294.89 234.69L314.66 234.69L314.66 237.12C313.58 237.26 312.6 237.44 311.72 237.67Z" id="c1THkj2bn8"></path><path d="M388.98 283.32C388.98 281.86 388.98 281.05 388.98 280.89C389.53 280.84 390.32 280.77 391.36 280.68C392.4 280.59 393.12 280.45 393.5 280.27C394.19 280 394.69 279.58 395.01 279.02C395.33 278.46 395.49 277.73 395.49 276.84C395.49 275.69 395.49 269.92 395.49 259.53L372.63 259.53C372.63 269.69 372.63 275.34 372.63 276.46C372.63 277.27 372.76 277.94 373.03 278.49C373.29 279.04 373.81 279.52 374.59 279.93C374.98 280.13 375.66 280.34 376.66 280.54C377.65 280.75 378.43 280.86 379.01 280.89C379.01 281.05 379.01 281.86 379.01 283.32L358.82 283.32C358.82 281.86 358.82 281.05 358.82 280.89C359.37 280.84 360.16 280.77 361.2 280.68C362.24 280.59 362.96 280.45 363.35 280.27C364.03 280 364.53 279.58 364.85 279.02C365.17 278.46 365.33 277.73 365.33 276.84C365.33 273.33 365.33 245.25 365.33 241.74C365.33 241.01 365.19 240.35 364.89 239.74C364.59 239.14 364.08 238.66 363.35 238.32C362.73 238.02 361.98 237.76 361.1 237.53C360.22 237.3 359.46 237.16 358.82 237.12C358.82 236.96 358.82 236.14 358.82 234.68L379.01 234.68C379.01 236.14 379.01 236.96 379.01 237.12C378.37 237.14 377.59 237.24 376.66 237.43C375.74 237.61 375.04 237.78 374.59 237.94C373.81 238.21 373.29 238.67 373.03 239.31C372.77 239.95 372.63 240.65 372.63 241.4C372.63 242.41 372.63 247.43 372.63 256.48L395.49 256.48C395.49 247.64 395.49 242.73 395.49 241.74C395.49 241.01 395.35 240.35 395.05 239.74C394.75 239.14 394.24 238.66 393.51 238.32C392.89 238.02 392.14 237.76 391.26 237.53C390.38 237.3 389.62 237.16 388.98 237.12C388.98 236.96 388.98 236.14 388.98 234.68L409.17 234.68C409.17 236.14 409.17 236.96 409.17 237.12C408.53 237.14 407.75 237.24 406.82 237.43C405.9 237.61 405.2 237.78 404.75 237.94C403.97 238.21 403.45 238.67 403.19 239.31C402.93 239.95 402.79 240.65 402.79 241.4C402.79 244.91 402.79 272.96 402.79 276.46C402.79 277.26 402.93 277.94 403.19 278.49C403.45 279.03 403.97 279.51 404.75 279.92C405.14 280.13 405.83 280.34 406.82 280.54C407.82 280.75 408.6 280.86 409.17 280.88C409.17 281.05 409.17 281.86 409.17 283.32L388.98 283.32Z" id="aTS6G0et6"></path><path d="M172.12 341.76C170.02 341.76 168.01 341.03 165.9 340.38C164.17 339.59 163.42 339.33 161.9 338.61C161.9 338.61 160.36 338.27 159.46 341.74C159.66 341.79 157.08 341.74 157.08 341.74C157.08 341.74 157.14 337.11 155.02 325.85C154.56 325.76 157.64 325.86 157.64 325.86C160.45 335.23 165.97 336.53 167.51 337.31C172.89 338.93 175.77 337.25 175.81 337.2C183.04 333.24 179.89 325.97 177.4 324.49C176.61 323.97 170.3 319.85 170.3 319.85C170.3 319.85 161.2 314.24 159.73 312.3C158.26 310.37 157.24 308.2 157.24 305.08C157.24 303.29 157.61 301.62 158.34 300.07C159.07 298.52 160.11 297.14 161.46 295.93C162.74 294.77 164.26 293.87 166 293.22C167.75 292.57 169.58 292.24 171.48 292.24C173.65 292.24 175.59 292.57 177.3 293.24C179.02 293.9 179.66 294.13 181.08 295.02C181.27 294.73 182.83 292.46 183.02 292.18C183.02 292.18 185.04 292.14 185.47 292.18C185.35 300.61 186.64 307.82 186.64 307.82C186.38 307.82 184.32 307.82 184.06 307.82C183.58 306.02 183.43 300.61 176.09 296.28C174.72 295.51 173.1 295.41 171.11 295.41C169.01 295.41 167.63 295.93 166.15 297.28C164.67 298.63 164.31 300.33 164.31 302.28C165.14 307.66 176.85 313.64 178.31 314.28C188.55 320.28 188.27 325.27 188.27 327.02C188.01 340.08 177.54 341.98 172.12 341.76Z" id="ei7B6xdxq"></path><path d="M395.81 341.76C393.71 341.76 391.69 341.03 389.59 340.38C387.85 339.59 387.11 339.33 385.59 338.61C385.59 338.61 384.05 338.27 383.14 341.74C383.35 341.79 380.76 341.74 380.76 341.74C380.76 341.74 380.83 337.11 378.7 325.85C378.25 325.76 381.33 325.86 381.33 325.86C384.14 335.23 389.66 336.53 391.2 337.31C396.58 338.93 399.46 337.25 399.5 337.2C406.73 333.24 403.58 325.97 401.09 324.49C400.3 323.97 393.98 319.85 393.98 319.85C393.98 319.85 384.88 314.24 383.41 312.3C381.94 310.37 380.93 308.2 380.93 305.08C380.93 303.29 381.29 301.62 382.02 300.07C382.75 298.52 383.79 297.14 385.14 295.93C386.43 294.77 387.94 293.87 389.69 293.22C391.44 292.57 393.26 292.24 395.17 292.24C397.33 292.24 399.28 292.57 400.99 293.24C402.7 293.9 403.35 294.13 404.76 295.02C404.96 294.73 406.51 292.46 406.71 292.18C406.71 292.18 408.72 292.14 409.15 292.18C409.04 300.61 410.32 307.82 410.32 307.82C410.07 307.82 408.01 307.82 407.75 307.82C407.26 306.02 407.11 300.61 399.78 296.28C398.41 295.51 396.79 295.41 394.8 295.41C392.7 295.41 391.32 295.93 389.84 297.28C388.36 298.63 388 300.33 388 302.28C388.83 307.66 400.54 313.64 402 314.28C412.24 320.28 411.96 325.27 411.96 327.02C411.69 340.08 401.23 341.98 395.81 341.76Z" id="amS55uA46"></path><path d="M229.43 306.08C229.23 305.29 228.87 304.34 228.35 303.25C227.83 302.15 227.25 301.12 226.61 300.14C225.94 299.12 225.22 298.23 224.43 297.47C223.64 296.71 222.88 296.27 222.15 296.16C221.46 296.07 220.6 296.01 219.56 295.96C218.51 295.92 217.55 295.9 216.66 295.9C216.53 295.9 215.89 295.9 214.73 295.9C214.73 318.49 214.73 331.05 214.73 333.56C214.73 334.29 214.89 334.96 215.2 335.57C215.51 336.18 216.05 336.65 216.82 336.98C217.22 337.13 218.06 337.34 219.33 337.61C220.6 337.87 221.59 338.02 222.3 338.04C222.3 338.2 222.3 338.98 222.3 340.4L200.06 340.4C200.06 338.98 200.06 338.2 200.06 338.04C200.68 338 201.63 337.91 202.9 337.78C204.17 337.64 205.05 337.48 205.54 337.28C206.27 336.99 206.81 336.57 207.15 336.03C207.49 335.49 207.66 334.77 207.66 333.86C207.66 331.33 207.66 318.67 207.66 295.9C206.51 295.9 205.87 295.9 205.74 295.9C205.05 295.9 204.2 295.91 203.19 295.95C202.17 295.98 201.19 296.05 200.26 296.16C199.53 296.25 198.78 296.68 197.99 297.47C197.21 298.26 196.48 299.15 195.82 300.14C195.15 301.14 194.57 302.19 194.06 303.31C193.55 304.43 193.2 305.35 193 306.08C192.84 306.08 192.07 306.08 190.67 306.08L190.67 293.31L231.72 293.31L231.72 306.08C230.35 306.08 229.59 306.08 229.43 306.08Z" id="a3JAE09lex"></path><path d="M278.18 306.73C279.35 309.79 279.93 313.18 279.93 316.9C279.93 320.64 279.34 324.03 278.14 327.09C276.95 330.14 275.29 332.74 273.17 334.89C271.11 337.01 268.72 338.65 266 339.8C263.28 340.95 260.38 341.52 257.3 341.52C254.03 341.52 251 340.91 248.23 339.68C245.45 338.45 243.07 336.74 241.08 334.55C239.08 332.41 237.52 329.8 236.38 326.74C235.24 323.67 234.67 320.4 234.67 316.9C234.67 313.07 235.27 309.66 236.46 306.66C237.66 303.66 239.31 301.07 241.41 298.88C243.49 296.71 245.9 295.05 248.66 293.9C251.41 292.75 254.3 292.18 257.3 292.18C260.42 292.18 263.37 292.76 266.13 293.94C268.9 295.11 271.29 296.76 273.3 298.88C275.38 301.05 277 303.67 278.18 306.73ZM271.06 325.43C271.62 322.89 271.9 320.04 271.9 316.9C271.9 313.67 271.59 310.71 270.96 308.01C270.33 305.31 269.4 303.01 268.19 301.1C266.97 299.22 265.45 297.76 263.61 296.71C261.77 295.66 259.67 295.13 257.3 295.13C254.65 295.13 252.39 295.74 250.53 296.96C248.68 298.17 247.16 299.8 245.99 301.83C244.88 303.78 244.06 306.06 243.52 308.67C242.97 311.28 242.7 314.02 242.7 316.9C242.7 320.09 242.99 322.96 243.56 325.53C244.14 328.09 245.05 330.37 246.29 332.36C247.48 334.31 248.98 335.83 250.8 336.93C252.61 338.02 254.78 338.57 257.3 338.57C259.67 338.57 261.81 338.02 263.71 336.91C265.61 335.8 267.16 334.26 268.35 332.27C269.59 330.25 270.49 327.97 271.06 325.43Z" id="aaJoJEbbb"></path><path d="M314.67 340.4C311.86 335.99 309.33 332.19 307.06 328.98C304.8 325.77 302.34 322.46 299.69 319.06C299.37 319.06 297.76 319.06 294.86 319.06C294.86 328.02 294.86 333 294.86 333.99C294.86 334.77 294.99 335.45 295.23 336.03C295.47 336.62 295.99 337.07 296.79 337.38C297.19 337.53 297.89 337.67 298.88 337.81C299.88 337.94 300.72 338.02 301.4 338.04C301.4 338.2 301.4 338.98 301.4 340.4L281.49 340.4C281.49 338.98 281.49 338.2 281.49 338.04C282.02 338 282.79 337.92 283.8 337.81C284.8 337.7 285.51 337.55 285.91 337.38C286.57 337.09 287.05 336.67 287.35 336.12C287.65 335.56 287.79 334.85 287.79 333.99C287.79 330.59 287.79 303.35 287.79 299.94C287.79 299.17 287.69 298.48 287.46 297.89C287.24 297.29 286.72 296.84 285.9 296.52C285.35 296.33 284.63 296.14 283.75 295.98C282.86 295.81 282.11 295.71 281.49 295.66C281.49 295.51 281.49 294.72 281.49 293.31C294.53 293.31 301.78 293.31 303.23 293.31C305.22 293.31 307.09 293.51 308.83 293.92C310.58 294.33 312.16 294.99 313.58 295.9C314.95 296.78 316.04 297.94 316.86 299.36C317.68 300.79 318.09 302.51 318.09 304.52C318.09 306.34 317.82 307.94 317.26 309.33C316.71 310.73 315.89 311.93 314.81 312.95C313.81 313.9 312.62 314.73 311.22 315.42C309.83 316.12 308.29 316.71 306.61 317.2C308.93 320.28 310.86 322.86 312.4 324.97C313.94 327.07 315.82 329.62 318.06 332.63C319.03 333.96 319.91 334.94 320.7 335.57C321.48 336.2 322.26 336.71 323.04 337.11C323.61 337.4 324.33 337.62 325.19 337.77C326.06 337.93 326.77 338.02 327.35 338.04C327.35 338.2 327.35 338.98 327.35 340.4C319.74 340.4 315.52 340.4 314.67 340.4ZM307.44 298.53C305.8 296.86 303.49 296.03 300.51 296.03C300.13 296.03 298.25 296.03 294.86 296.03L294.86 316.21C297.47 316.21 298.92 316.21 299.21 316.21C302.26 316.21 304.81 315.23 306.84 313.27C308.88 311.32 309.9 308.66 309.9 305.3C309.9 302.46 309.08 300.2 307.44 298.53Z" id="bxvLzmPni"></path><path d="M371.32 340.39L331.91 340.39C331.91 338.98 331.91 338.2 331.91 338.04C332.57 337.99 333.46 337.9 334.56 337.76C335.67 337.61 336.39 337.46 336.72 337.31C337.43 336.98 337.92 336.55 338.2 336.02C338.47 335.48 338.61 334.81 338.61 333.99C338.61 330.61 338.61 303.53 338.61 300.14C338.61 299.41 338.49 298.77 338.24 298.2C338 297.64 336.84 295.31 331.91 295.66C331.91 295.51 331.91 294.72 331.91 293.31L370.52 293.31L370.52 303.92C369.33 303.92 368.66 303.92 368.53 303.92C368.09 302.24 367.49 300.17 366.01 298.28C364.54 296.39 360.11 296.37 358.79 296.19C358.1 296.11 347.82 296.24 347.82 296.24C347.82 296.24 346.02 296.29 345.68 297.89C345.68 297.28 345.68 314.64 345.68 314.64C346.21 314.64 350.46 314.64 350.99 314.64C352.69 314.64 359.92 314.48 360.7 314.16C361.49 313.84 362.18 313.31 362.77 312.55C363.26 311.91 363.68 311.05 364.02 309.98C364.36 308.91 364.59 307.9 364.7 306.95C364.87 306.95 365.7 306.95 367.19 306.95C367.2 317.28 367.2 323.02 367.2 324.17C367.2 324.17 366.66 324.17 364.53 324.13C364.41 323.45 364.22 322.75 363.99 322.03C363.6 320.84 363.2 319.99 362.77 319.46C362.09 318.59 361.31 318.03 360.44 317.76C359.56 317.5 352.42 317.37 350.99 317.37C350.46 317.37 346.21 317.37 345.68 317.37C345.68 317.37 345.78 334.01 345.97 334.83C346.17 335.64 346.56 336.26 347.14 336.68C347.71 337.1 348.5 337.37 349.49 337.49C350.49 337.61 351.9 337.67 353.74 337.67C354.47 337.67 355.43 337.67 356.63 337.67C357.82 337.67 358.83 337.63 359.65 337.54C360.49 337.45 361.36 337.29 362.25 337.06C370.69 334.6 372.28 327.03 372.17 327.39C372.39 327.39 373.46 327.39 375.39 327.39L371.32 340.39Z" id="a5aLwByJE"></path><path d="M247.51 179.52C247.51 179.52 247.51 179.52 247.51 179.52C247.51 186.27 247.51 190.01 247.51 190.76C247.51 190.76 247.51 190.76 247.51 190.76C229.72 190.76 219.84 190.76 217.87 190.76C217.87 190.76 217.87 190.76 217.87 190.76C217.87 184.02 217.87 180.27 217.87 179.52C217.87 179.52 217.87 179.52 217.87 179.52C235.65 179.52 245.53 179.52 247.51 179.52Z" id="cyadywOia"></path><path d="M358.9 179.52C358.9 179.52 358.9 179.52 358.9 179.52C358.9 186.27 358.9 190.01 358.9 190.76C358.9 190.76 358.9 190.76 358.9 190.76C341.12 190.76 331.24 190.76 329.26 190.76C329.26 190.76 329.26 190.76 329.26 190.76C329.26 184.02 329.26 180.27 329.26 179.52C329.26 179.52 329.26 179.52 329.26 179.52C347.04 179.52 356.92 179.52 358.9 179.52Z" id="ag32KXRHo"></path><path d="M239.5 282.78C239.5 281.57 239.5 280.9 239.5 280.77C241.34 280.66 241.8 280.67 243.02 280.33C245.13 279.69 244.56 277.52 244.56 277.52C244.28 276.79 242.89 273.16 240.39 266.62C229.78 266.62 223.89 266.62 222.71 266.62C222.05 268.22 221.51 269.61 221.09 270.8C220.68 271.99 220.31 273.08 219.98 274.09C219.66 275.07 219.45 275.87 219.33 276.49C219.22 277.11 219.16 277.61 219.16 278C219.02 280.19 221.86 280.92 223.73 281.01C223.73 281.13 223.73 281.72 223.73 282.78L209.39 282.78C209.38 281.7 209.38 281.1 209.38 280.98C210 280.94 212.55 280.52 214.24 277.81C214.76 277.14 215.27 276.2 215.77 275.02C218.3 268.92 221.09 262.07 224.15 254.46C227.2 246.85 230.13 240.08 232.52 234.14C232.66 234.14 233.35 234.14 234.59 234.14C245 259.3 250.78 273.28 251.94 276.08C252.29 276.97 252.69 277.69 253.14 278.24C254.44 280.45 257.15 280.99 257.73 281.01C257.73 281.13 257.72 281.72 257.71 282.78L239.5 282.78ZM231.95 244.7L223.74 264L239.27 263.97L231.95 244.7Z" id="ee0wTCzqg"></path><path d="M326.76 282.44C323.84 281.31 321.24 279.67 318.98 277.54C316.74 275.41 314.96 272.81 313.63 269.73C312.29 266.66 311.63 263.19 311.63 259.34C311.63 255.48 312.28 251.98 313.59 248.84C314.89 245.7 316.7 242.99 319.02 240.72C321.3 238.48 324 236.74 327.12 235.52C330.24 234.29 333.56 233.68 337.11 233.68C339.75 233.68 342.13 233.98 344.27 234.56C346.41 235.15 348.06 235.91 348.06 235.91C348.06 235.91 350.98 236.63 351.94 233.54C352.13 233.49 354.03 233.54 354.03 233.54C354.07 234.66 354.24 240.27 354.56 250.37C353.19 250.39 352.43 250.4 352.28 250.4C351.88 248.72 351.31 242.31 343.23 238.06C341.57 237.18 339.55 236.7 337.42 236.7C334.98 236.7 332.86 237.06 330.76 238.03C328.67 239.01 326.85 240.45 325.32 242.35C323.86 244.19 322.72 246.53 321.89 249.36C321.06 252.2 320.65 255.37 320.65 258.86C320.65 261.94 320.71 264.75 321.58 267.32C322.45 269.9 323.15 272.25 324.76 274.2C326.37 276.13 328.62 277.82 330.82 278.91C333.02 280 336.02 280.3 338.74 280.3C340.77 280.3 342.64 280.01 344.35 279.43C346.06 278.85 347.66 278.11 348.92 277.15C350.45 275.97 352.68 274.23 353.88 272.53C354.79 273.7 354.84 273.82 355.54 274.6C353.62 277.47 351.27 279.58 348.68 281.06C345.12 283.11 340.87 284.14 335.94 284.14C332.75 284.14 329.69 283.57 326.76 282.44Z" id="c5jdjLcHS"></path></defs><g><g><g><use xlink:href="#i41R4O80AV" opacity="1" fill="#ffffff" fill-opacity="1"></use><g><use xlink:href="#i41R4O80AV" opacity="1" fill-opacity="0" stroke="#000000" stroke-width="1" stroke-opacity="0"></use></g></g><g><use xlink:href="#dm3JrDBU3" opacity="1" fill="#ffffff" fill-opacity="1"></use><g><use xlink:href="#dm3JrDBU3" opacity="1" fill-opacity="0" stroke="#000000" stroke-width="1" stroke-opacity="0"></use></g></g><g><use xlink:href="#d5XD9Cn9Jm" opacity="1" fill="#ffffff" fill-opacity="1"></use><g><use xlink:href="#d5XD9Cn9Jm" opacity="1" fill-opacity="0" stroke="#000000" stroke-width="1" stroke-opacity="0"></use></g></g><g><use xlink:href="#a7qhnKBHS" opacity="1" fill="#ffffff" fill-opacity="1"></use><g><use xlink:href="#a7qhnKBHS" opacity="1" fill-opacity="0" stroke="#000000" stroke-width="1" stroke-opacity="0"></use></g></g><g><use xlink:href="#gsMQWJ0Y7" opacity="1" fill="#ffffff" fill-opacity="1"></use><g><use xlink:href="#gsMQWJ0Y7" opacity="1" fill-opacity="0" stroke="#000000" stroke-width="1" stroke-opacity="0"></use></g></g><g><use xlink:href="#aPUWv8di6" opacity="1" fill="#ffffff" fill-opacity="1"></use><g><use xlink:href="#aPUWv8di6" opacity="1" fill-opacity="0" stroke="#000000" stroke-width="1" stroke-opacity="0"></use></g></g><g><use xlink:href="#aGyalKSf4" opacity="1" fill="#ffffff" fill-opacity="1"></use><g><use xlink:href="#aGyalKSf4" opacity="1" fill-opacity="0" stroke="#000000" stroke-width="1" stroke-opacity="0"></use></g></g><g><use xlink:href="#fbA8uSU5d" opacity="1" fill="#ffffff" fill-opacity="1"></use><g><use xlink:href="#fbA8uSU5d" opacity="1" fill-opacity="0" stroke="#000000" stroke-width="1" stroke-opacity="0"></use></g></g><g><use xlink:href="#b1zgGj3vTm" opacity="1" fill="#ffffff" fill-opacity="1"></use><g><use xlink:href="#b1zgGj3vTm" opacity="1" fill-opacity="0" stroke="#000000" stroke-width="1" stroke-opacity="0"></use></g></g><g><use xlink:href="#c2MhU34RES" opacity="1" fill="#ffffff" fill-opacity="1"></use><g><use xlink:href="#c2MhU34RES" opacity="1" fill-opacity="0" stroke="#000000" stroke-width="1" stroke-opacity="0"></use></g></g><g><use xlink:href="#b1Rjc7LjFr" opacity="1" fill="#ffffff" fill-opacity="1"></use><g><use xlink:href="#b1Rjc7LjFr" opacity="1" fill-opacity="0" stroke="#000000" stroke-width="1" stroke-opacity="0"></use></g></g><g><use xlink:href="#bqbTX20Hn" opacity="1" fill="#ffffff" fill-opacity="1"></use><g><use xlink:href="#bqbTX20Hn" opacity="1" fill-opacity="0" stroke="#000000" stroke-width="1" stroke-opacity="0"></use></g></g><g><use xlink:href="#fHYCbL8IW" opacity="1" fill="#ffffff" fill-opacity="1"></use><g><use xlink:href="#fHYCbL8IW" opacity="1" fill-opacity="0" stroke="#000000" stroke-width="1" stroke-opacity="0"></use></g></g><g><use xlink:href="#b27Ar4H2Z9" opacity="1" fill="#ffffff" fill-opacity="1"></use><g><use xlink:href="#b27Ar4H2Z9" opacity="1" fill-opacity="0" stroke="#000000" stroke-width="1" stroke-opacity="0"></use></g></g><g><use xlink:href="#j3XRXhAUBY" opacity="1" fill="#ffffff" fill-opacity="1"></use><g><use xlink:href="#j3XRXhAUBY" opacity="1" fill-opacity="0" stroke="#000000" stroke-width="1" stroke-opacity="0"></use></g></g><g><use xlink:href="#dgF8F2n3h" opacity="1" fill="#ffffff" fill-opacity="1"></use><g><use xlink:href="#dgF8F2n3h" opacity="1" fill-opacity="0" stroke="#000000" stroke-width="1" stroke-opacity="0"></use></g></g><g><use xlink:href="#bfNB3c2RP" opacity="1" fill="#ffffff" fill-opacity="1"></use><g><use xlink:href="#bfNB3c2RP" opacity="1" fill-opacity="0" stroke="#000000" stroke-width="1" stroke-opacity="0"></use></g></g><g><use xlink:href="#hhfzxIFfL" opacity="1" fill="#ffffff" fill-opacity="1"></use><g><use xlink:href="#hhfzxIFfL" opacity="1" fill-opacity="0" stroke="#000000" stroke-width="1" stroke-opacity="0"></use></g></g><g><use xlink:href="#gCxtiN9qY" opacity="1" fill="#ffffff" fill-opacity="1"></use><g><use xlink:href="#gCxtiN9qY" opacity="1" fill-opacity="0" stroke="#000000" stroke-width="1" stroke-opacity="0"></use></g></g><g><use xlink:href="#i92CYqiWJ7" opacity="1" fill="#ffffff" fill-opacity="1"></use><g><use xlink:href="#i92CYqiWJ7" opacity="1" fill-opacity="0" stroke="#000000" stroke-width="1" stroke-opacity="0"></use></g></g><g><use xlink:href="#benReeX8t" opacity="1" fill="#ffffff" fill-opacity="1"></use><g><use xlink:href="#benReeX8t" opacity="1" fill-opacity="0" stroke="#000000" stroke-width="1" stroke-opacity="0"></use></g></g><g><use xlink:href="#c6YgYvqu1" opacity="1" fill="#ffffff" fill-opacity="1"></use><g><use xlink:href="#c6YgYvqu1" opacity="1" fill-opacity="0" stroke="#000000" stroke-width="1" stroke-opacity="0"></use></g></g><g><use xlink:href="#bE2uhNNU6" opacity="1" fill="#ffffff" fill-opacity="1"></use><g><use xlink:href="#bE2uhNNU6" opacity="1" fill-opacity="0" stroke="#000000" stroke-width="1" stroke-opacity="0"></use></g></g><g><use xlink:href="#eLVgfGEX" opacity="1" fill="#ffffff" fill-opacity="1"></use><g><use xlink:href="#eLVgfGEX" opacity="1" fill-opacity="0" stroke="#000000" stroke-width="1" stroke-opacity="0"></use></g></g><g><use xlink:href="#c2uP6dG8j" opacity="1" fill="#ffffff" fill-opacity="1"></use><g><use xlink:href="#c2uP6dG8j" opacity="1" fill-opacity="0" stroke="#000000" stroke-width="1" stroke-opacity="0"></use></g></g><g><use xlink:href="#e4brN3OCdv" opacity="1" fill="#ffffff" fill-opacity="1"></use><g><use xlink:href="#e4brN3OCdv" opacity="1" fill-opacity="0" stroke="#000000" stroke-width="1" stroke-opacity="0"></use></g></g><g><use xlink:href="#b8TkEb0Bn" opacity="1" fill="#ffffff" fill-opacity="1"></use><g><use xlink:href="#b8TkEb0Bn" opacity="1" fill-opacity="0" stroke="#000000" stroke-width="1" stroke-opacity="0"></use></g></g><g><use xlink:href="#abpttpWng" opacity="1" fill="#ffffff" fill-opacity="1"></use><g><use xlink:href="#abpttpWng" opacity="1" fill-opacity="0" stroke="#000000" stroke-width="1" stroke-opacity="0"></use></g></g><g><use xlink:href="#b22n2wJVxB" opacity="1" fill="#ffffff" fill-opacity="1"></use><g><use xlink:href="#b22n2wJVxB" opacity="1" fill-opacity="0" stroke="#000000" stroke-width="1" stroke-opacity="0"></use></g></g><g><use xlink:href="#a99I7RHFO" opacity="1" fill="#ffffff" fill-opacity="1"></use><g><use xlink:href="#a99I7RHFO" opacity="1" fill-opacity="0" stroke="#000000" stroke-width="1" stroke-opacity="0"></use></g></g><g><use xlink:href="#doZTm6xiN" opacity="1" fill="#ffffff" fill-opacity="1"></use><g><use xlink:href="#doZTm6xiN" opacity="1" fill-opacity="0" stroke="#000000" stroke-width="1" stroke-opacity="0"></use></g></g><g><use xlink:href="#b6uGH9YYR4" opacity="1" fill="#ffffff" fill-opacity="1"></use><g><use xlink:href="#b6uGH9YYR4" opacity="1" fill-opacity="0" stroke="#000000" stroke-width="1" stroke-opacity="0"></use></g></g><g><use xlink:href="#a2vqMtuT0K" opacity="1" fill="#ffffff" fill-opacity="1"></use><g><use xlink:href="#a2vqMtuT0K" opacity="1" fill-opacity="0" stroke="#000000" stroke-width="1" stroke-opacity="0"></use></g></g><g><use xlink:href="#aQzjS5RJc" opacity="1" fill="#ffffff" fill-opacity="1"></use><g><use xlink:href="#aQzjS5RJc" opacity="1" fill-opacity="0" stroke="#000000" stroke-width="1" stroke-opacity="0"></use></g></g><g><use xlink:href="#a5Cofq5fyN" opacity="1" fill="#ffffff" fill-opacity="1"></use><g><use xlink:href="#a5Cofq5fyN" opacity="1" fill-opacity="0" stroke="#000000" stroke-width="1" stroke-opacity="0"></use></g></g><g><use xlink:href="#b3NktMgo42" opacity="1" fill="#ffffff" fill-opacity="1"></use><g><use xlink:href="#b3NktMgo42" opacity="1" fill-opacity="0" stroke="#000000" stroke-width="1" stroke-opacity="0"></use></g></g><g><use xlink:href="#bQ01u3DbN" opacity="1" fill="#ffffff" fill-opacity="1"></use><g><use xlink:href="#bQ01u3DbN" opacity="1" fill-opacity="0" stroke="#000000" stroke-width="1" stroke-opacity="0"></use></g></g><g><use xlink:href="#a6BAz0aB7" opacity="1" fill="#ffffff" fill-opacity="1"></use><g><use xlink:href="#a6BAz0aB7" opacity="1" fill-opacity="0" stroke="#000000" stroke-width="1" stroke-opacity="0"></use></g></g><g><use xlink:href="#a2dhGPr5Ge" opacity="1" fill="#ffffff" fill-opacity="1"></use><g><use xlink:href="#a2dhGPr5Ge" opacity="1" fill-opacity="0" stroke="#000000" stroke-width="1" stroke-opacity="0"></use></g></g><g><use xlink:href="#iCNgB7GfA" opacity="1" fill="#ffffff" fill-opacity="1"></use><g><use xlink:href="#iCNgB7GfA" opacity="1" fill-opacity="0" stroke="#000000" stroke-width="1" stroke-opacity="0"></use></g></g><g><use xlink:href="#avSj6o79c" opacity="1" fill="#ffffff" fill-opacity="1"></use><g><use xlink:href="#avSj6o79c" opacity="1" fill-opacity="0" stroke="#000000" stroke-width="1" stroke-opacity="0"></use></g></g><g><use xlink:href="#bgYxC2jfJ" opacity="1" fill="#ffffff" fill-opacity="1"></use><g><use xlink:href="#bgYxC2jfJ" opacity="1" fill-opacity="0" stroke="#000000" stroke-width="1" stroke-opacity="0"></use></g></g><g><use xlink:href="#b3cvc9FNa" opacity="1" fill="#ffffff" fill-opacity="1"></use><g><use xlink:href="#b3cvc9FNa" opacity="1" fill-opacity="0" stroke="#000000" stroke-width="1" stroke-opacity="0"></use></g></g><g><use xlink:href="#a3EN4a6xxt" opacity="1" fill="#ffffff" fill-opacity="1"></use><g><use xlink:href="#a3EN4a6xxt" opacity="1" fill-opacity="0" stroke="#000000" stroke-width="1" stroke-opacity="0"></use></g></g><g><use xlink:href="#c3dWsNz8M" opacity="1" fill="#ffffff" fill-opacity="1"></use><g><use xlink:href="#c3dWsNz8M" opacity="1" fill-opacity="0" stroke="#000000" stroke-width="1" stroke-opacity="0"></use></g></g><g><use xlink:href="#a1oALZCKjk" opacity="1" fill="#ffffff" fill-opacity="1"></use><g><use xlink:href="#a1oALZCKjk" opacity="1" fill-opacity="0" stroke="#000000" stroke-width="1" stroke-opacity="0"></use></g></g><g><use xlink:href="#a4P7q0Osbt" opacity="1" fill="#ffffff" fill-opacity="1"></use><g><use xlink:href="#a4P7q0Osbt" opacity="1" fill-opacity="0" stroke="#000000" stroke-width="1" stroke-opacity="0"></use></g></g><g><use xlink:href="#i6pBGxY9U" opacity="1" fill="#ffffff" fill-opacity="1"></use><g><use xlink:href="#i6pBGxY9U" opacity="1" fill-opacity="0" stroke="#000000" stroke-width="1" stroke-opacity="0"></use></g></g><g><use xlink:href="#kZfZX3ws" opacity="1" fill="#ffffff" fill-opacity="1"></use><g><use xlink:href="#kZfZX3ws" opacity="1" fill-opacity="0" stroke="#000000" stroke-width="1" stroke-opacity="0"></use></g></g><g><use xlink:href="#b50CWpezDy" opacity="1" fill="#ffffff" fill-opacity="1"></use><g><use xlink:href="#b50CWpezDy" opacity="1" fill-opacity="0" stroke="#000000" stroke-width="1" stroke-opacity="0"></use></g></g><g><use xlink:href="#bcHUrSAtH" opacity="1" fill="#ffffff" fill-opacity="1"></use><g><use xlink:href="#bcHUrSAtH" opacity="1" fill-opacity="0" stroke="#000000" stroke-width="1" stroke-opacity="0"></use></g></g><g><use xlink:href="#eXpMCNXr" opacity="1" fill="#ffffff" fill-opacity="1"></use><g><use xlink:href="#eXpMCNXr" opacity="1" fill-opacity="0" stroke="#000000" stroke-width="1" stroke-opacity="0"></use></g></g><g><use xlink:href="#c1NdN8PBqO" opacity="1" fill="#ffffff" fill-opacity="1"></use><g><use xlink:href="#c1NdN8PBqO" opacity="1" fill-opacity="0" stroke="#000000" stroke-width="1" stroke-opacity="0"></use></g></g><g><use xlink:href="#c1hBrlDOIx" opacity="1" fill="#ffffff" fill-opacity="1"></use><g><use xlink:href="#c1hBrlDOIx" opacity="1" fill-opacity="0" stroke="#000000" stroke-width="1" stroke-opacity="0"></use></g></g><g><use xlink:href="#bJLz18Hw9" opacity="1" fill="#ffffff" fill-opacity="1"></use><g><use xlink:href="#bJLz18Hw9" opacity="1" fill-opacity="0" stroke="#000000" stroke-width="1" stroke-opacity="0"></use></g></g><g><use xlink:href="#a23bnYQQpV" opacity="1" fill="#ffffff" fill-opacity="1"></use><g><use xlink:href="#a23bnYQQpV" opacity="1" fill-opacity="0" stroke="#000000" stroke-width="1" stroke-opacity="0"></use></g></g><g><use xlink:href="#eLBKsdLWB" opacity="1" fill="#ffffff" fill-opacity="1"></use><g><use xlink:href="#eLBKsdLWB" opacity="1" fill-opacity="0" stroke="#000000" stroke-width="1" stroke-opacity="0"></use></g></g><g><use xlink:href="#c1lwohbq7X" opacity="1" fill="#ffffff" fill-opacity="1"></use><g><use xlink:href="#c1lwohbq7X" opacity="1" fill-opacity="0" stroke="#000000" stroke-width="1" stroke-opacity="0"></use></g></g><g><use xlink:href="#e1XiRPsWen" opacity="1" fill="#ffffff" fill-opacity="1"></use><g><use xlink:href="#e1XiRPsWen" opacity="1" fill-opacity="0" stroke="#000000" stroke-width="1" stroke-opacity="0"></use></g></g><g><use xlink:href="#a17s79Yht1" opacity="1" fill="#ffffff" fill-opacity="1"></use><g><use xlink:href="#a17s79Yht1" opacity="1" fill-opacity="0" stroke="#000000" stroke-width="1" stroke-opacity="0"></use></g></g><g><use xlink:href="#absqomc2w" opacity="1" fill="#ffffff" fill-opacity="1"></use><g><use xlink:href="#absqomc2w" opacity="1" fill-opacity="0" stroke="#000000" stroke-width="1" stroke-opacity="0"></use></g></g><g><use xlink:href="#k2zs5h9Rv" opacity="1" fill="#ffffff" fill-opacity="1"></use><g><use xlink:href="#k2zs5h9Rv" opacity="1" fill-opacity="0" stroke="#000000" stroke-width="1" stroke-opacity="0"></use></g></g><g><use xlink:href="#b1HpQQovoS" opacity="1" fill="#ffffff" fill-opacity="1"></use><g><use xlink:href="#b1HpQQovoS" opacity="1" fill-opacity="0" stroke="#000000" stroke-width="1" stroke-opacity="0"></use></g></g><g><use xlink:href="#a5bneKOEG" opacity="1" fill="#ffffff" fill-opacity="1"></use><g><use xlink:href="#a5bneKOEG" opacity="1" fill-opacity="0" stroke="#000000" stroke-width="1" stroke-opacity="0"></use></g></g><g><use xlink:href="#aaNPwvZb" opacity="1" fill="#ffffff" fill-opacity="1"></use><g><use xlink:href="#aaNPwvZb" opacity="1" fill-opacity="0" stroke="#000000" stroke-width="1" stroke-opacity="0"></use></g></g><g><use xlink:href="#boCQGBkVK" opacity="1" fill="#ffffff" fill-opacity="1"></use><g><use xlink:href="#boCQGBkVK" opacity="1" fill-opacity="0" stroke="#000000" stroke-width="1" stroke-opacity="0"></use></g></g><g><use xlink:href="#b3G0m3FowE" opacity="1" fill="#ffffff" fill-opacity="1"></use><g><use xlink:href="#b3G0m3FowE" opacity="1" fill-opacity="0" stroke="#000000" stroke-width="1" stroke-opacity="0"></use></g></g><g><use xlink:href="#fm3cmcSwx" opacity="1" fill="#ffffff" fill-opacity="1"></use><g><use xlink:href="#fm3cmcSwx" opacity="1" fill-opacity="0" stroke="#000000" stroke-width="1" stroke-opacity="0"></use></g></g><g><use xlink:href="#c3FfRrFiq4" opacity="1" fill="#ffffff" fill-opacity="1"></use><g><use xlink:href="#c3FfRrFiq4" opacity="1" fill-opacity="0" stroke="#000000" stroke-width="1" stroke-opacity="0"></use></g></g><g><use xlink:href="#aB7xsxDn0" opacity="1" fill="#ffffff" fill-opacity="1"></use><g><use xlink:href="#aB7xsxDn0" opacity="1" fill-opacity="0" stroke="#000000" stroke-width="1" stroke-opacity="0"></use></g></g><g><use xlink:href="#a4vNhUXlsl" opacity="1" fill="#ffffff" fill-opacity="1"></use><g><use xlink:href="#a4vNhUXlsl" opacity="1" fill-opacity="0" stroke="#000000" stroke-width="1" stroke-opacity="0"></use></g></g><g><use xlink:href="#e34vNcb9O9" opacity="1" fill="#ffffff" fill-opacity="1"></use><g><use xlink:href="#e34vNcb9O9" opacity="1" fill-opacity="0" stroke="#000000" stroke-width="1" stroke-opacity="0"></use></g></g><g><use xlink:href="#f5i5TWFATW" opacity="1" fill="#ffffff" fill-opacity="1"></use><g><use xlink:href="#f5i5TWFATW" opacity="1" fill-opacity="0" stroke="#000000" stroke-width="1" stroke-opacity="0"></use></g></g><g><use xlink:href="#c12a72WV8k" opacity="1" fill="#ffffff" fill-opacity="1"></use><g><use xlink:href="#c12a72WV8k" opacity="1" fill-opacity="0" stroke="#000000" stroke-width="1" stroke-opacity="0"></use></g></g><g><use xlink:href="#afvgoPfeM" opacity="1" fill="#ffffff" fill-opacity="1"></use><g><use xlink:href="#afvgoPfeM" opacity="1" fill-opacity="0" stroke="#000000" stroke-width="1" stroke-opacity="0"></use></g></g><g><use xlink:href="#b3y85IxkJv" opacity="1" fill="#ffffff" fill-opacity="1"></use><g><use xlink:href="#b3y85IxkJv" opacity="1" fill-opacity="0" stroke="#000000" stroke-width="1" stroke-opacity="0"></use></g></g><g><use xlink:href="#gpzfeQx1R" opacity="1" fill="#ffffff" fill-opacity="1"></use><g><use xlink:href="#gpzfeQx1R" opacity="1" fill-opacity="0" stroke="#000000" stroke-width="1" stroke-opacity="0"></use></g></g><g><use xlink:href="#a4VR138Xk6" opacity="1" fill="#ffffff" fill-opacity="1"></use><g><use xlink:href="#a4VR138Xk6" opacity="1" fill-opacity="0" stroke="#000000" stroke-width="1" stroke-opacity="0"></use></g></g><g><use xlink:href="#bOR5ymKhd" opacity="1" fill="#ffffff" fill-opacity="1"></use><g><use xlink:href="#bOR5ymKhd" opacity="1" fill-opacity="0" stroke="#000000" stroke-width="1" stroke-opacity="0"></use></g></g><g><use xlink:href="#b2uzjZL1y" opacity="1" fill="#ffffff" fill-opacity="1"></use><g><use xlink:href="#b2uzjZL1y" opacity="1" fill-opacity="0" stroke="#000000" stroke-width="1" stroke-opacity="0"></use></g></g><g><use xlink:href="#c6Fu8rIfkd" opacity="1" fill="#ffffff" fill-opacity="1"></use><g><use xlink:href="#c6Fu8rIfkd" opacity="1" fill-opacity="0" stroke="#000000" stroke-width="1" stroke-opacity="0"></use></g></g><g><use xlink:href="#a24thkhKCd" opacity="1" fill="#ffffff" fill-opacity="1"></use><g><use xlink:href="#a24thkhKCd" opacity="1" fill-opacity="0" stroke="#000000" stroke-width="1" stroke-opacity="0"></use></g></g><g><use xlink:href="#c1THkj2bn8" opacity="1" fill="#ffffff" fill-opacity="1"></use><g><use xlink:href="#c1THkj2bn8" opacity="1" fill-opacity="0" stroke="#000000" stroke-width="1" stroke-opacity="0"></use></g></g><g><use xlink:href="#aTS6G0et6" opacity="1" fill="#ffffff" fill-opacity="1"></use><g><use xlink:href="#aTS6G0et6" opacity="1" fill-opacity="0" stroke="#000000" stroke-width="1" stroke-opacity="0"></use></g></g><g><use xlink:href="#ei7B6xdxq" opacity="1" fill="#ffffff" fill-opacity="1"></use><g><use xlink:href="#ei7B6xdxq" opacity="1" fill-opacity="0" stroke="#000000" stroke-width="1" stroke-opacity="0"></use></g></g><g><use xlink:href="#amS55uA46" opacity="1" fill="#ffffff" fill-opacity="1"></use><g><use xlink:href="#amS55uA46" opacity="1" fill-opacity="0" stroke="#000000" stroke-width="1" stroke-opacity="0"></use></g></g><g><use xlink:href="#a3JAE09lex" opacity="1" fill="#ffffff" fill-opacity="1"></use><g><use xlink:href="#a3JAE09lex" opacity="1" fill-opacity="0" stroke="#000000" stroke-width="1" stroke-opacity="0"></use></g></g><g><use xlink:href="#aaJoJEbbb" opacity="1" fill="#ffffff" fill-opacity="1"></use><g><use xlink:href="#aaJoJEbbb" opacity="1" fill-opacity="0" stroke="#000000" stroke-width="1" stroke-opacity="0"></use></g></g><g><use xlink:href="#bxvLzmPni" opacity="1" fill="#ffffff" fill-opacity="1"></use><g><use xlink:href="#bxvLzmPni" opacity="1" fill-opacity="0" stroke="#000000" stroke-width="1" stroke-opacity="0"></use></g></g><g><use xlink:href="#a5aLwByJE" opacity="1" fill="#ffffff" fill-opacity="1"></use><g><use xlink:href="#a5aLwByJE" opacity="1" fill-opacity="0" stroke="#000000" stroke-width="1" stroke-opacity="0"></use></g></g><g><use xlink:href="#cyadywOia" opacity="1" fill="#ffffff" fill-opacity="1"></use><g><use xlink:href="#cyadywOia" opacity="1" fill-opacity="0" stroke="#000000" stroke-width="1" stroke-opacity="0"></use></g></g><g><use xlink:href="#ag32KXRHo" opacity="1" fill="#ffffff" fill-opacity="1"></use><g><use xlink:href="#ag32KXRHo" opacity="1" fill-opacity="0" stroke="#000000" stroke-width="1" stroke-opacity="0"></use></g></g><g><use xlink:href="#ee0wTCzqg" opacity="1" fill="#ffffff" fill-opacity="1"></use><g><use xlink:href="#ee0wTCzqg" opacity="1" fill-opacity="0" stroke="#000000" stroke-width="1" stroke-opacity="0"></use></g></g><g><use xlink:href="#c5jdjLcHS" opacity="1" fill="#ffffff" fill-opacity="1"></use><g><use xlink:href="#c5jdjLcHS" opacity="1" fill-opacity="0" stroke="#000000" stroke-width="1" stroke-opacity="0"></use></g></g></g></g></svg>